<svg width="164" height="60" viewBox="0 0 164 60" fill="none" xmlns="http://www.w3.org/2000/svg">
<path d="M7.42687 53.1839C6.45285 53.1839 5.56677 53.0148 4.76862 52.6766C3.98399 52.3249 3.30759 51.8447 2.73942 51.2359C2.18477 50.6271 1.75188 49.9305 1.44073 49.1458C1.14312 48.3477 0.994308 47.5022 0.994308 46.6093C0.994308 45.5136 1.20399 44.5531 1.62336 43.7279C2.05626 42.9027 2.62443 42.2195 3.32789 41.6784C4.03134 41.1237 4.80244 40.7111 5.64117 40.4406C6.47991 40.17 7.31188 40.0347 8.13709 40.0347C9.13816 40.0347 10.031 40.2173 10.8156 40.5826C11.6138 40.9343 12.2902 41.4146 12.8448 42.0233C13.3995 42.6321 13.8188 43.322 14.1029 44.0931C14.4006 44.8642 14.5494 45.6556 14.5494 46.4673C14.5494 47.4142 14.36 48.2936 13.9812 49.1052C13.6024 49.9169 13.0816 50.6271 12.4187 51.2359C11.7694 51.8447 11.0118 52.3249 10.146 52.6766C9.29373 53.0148 8.38736 53.1839 7.42687 53.1839ZM8.1168 52.6969C8.92848 52.6969 9.65222 52.4805 10.288 52.0476C10.9374 51.6147 11.4447 50.9789 11.8099 50.1401C12.1887 49.2879 12.3781 48.2597 12.3781 47.0558C12.3781 45.7976 12.1752 44.6816 11.7694 43.7076C11.3635 42.7336 10.7818 41.9692 10.0242 41.4146C9.26668 40.8464 8.3603 40.5623 7.30512 40.5623C5.9929 40.5623 4.97154 41.0358 4.24103 41.9828C3.52404 42.9162 3.16555 44.2149 3.16555 45.8788C3.16555 46.8528 3.2873 47.7592 3.53081 48.5979C3.77431 49.4232 4.11251 50.1469 4.54541 50.7692C4.99183 51.3915 5.51266 51.8717 6.10789 52.2099C6.71665 52.5346 7.38629 52.6969 8.1168 52.6969ZM18.6813 47.4413L18.5393 47.1978C19.0533 46.589 19.4862 46.1223 19.838 45.7976C20.2032 45.4594 20.5076 45.2295 20.7511 45.1077C20.9946 44.9724 21.2246 44.9048 21.441 44.9048C21.7251 44.9048 22.0092 45.0063 22.2933 45.2092C22.5909 45.3986 22.7397 45.6421 22.7397 45.9397C22.7397 46.1832 22.6653 46.3861 22.5165 46.5485C22.3677 46.7108 22.158 46.792 21.8875 46.792C21.6439 46.792 21.4546 46.7243 21.3193 46.589C21.184 46.4538 21.0555 46.3252 20.9337 46.2035C20.812 46.0817 20.6429 46.0209 20.4264 46.0209C20.3182 46.0209 20.2032 46.0547 20.0815 46.1223C19.9597 46.1764 19.7906 46.3049 19.5742 46.5079C19.3577 46.7108 19.0601 47.0219 18.6813 47.4413ZM16.368 52.9404C16.3274 52.9404 16.3072 52.8998 16.3072 52.8187C16.3072 52.7375 16.3274 52.6969 16.368 52.6969C16.828 52.6969 17.1324 52.6022 17.2812 52.4128C17.43 52.2234 17.5044 51.8514 17.5044 51.2968V47.421C17.5044 46.9881 17.457 46.6702 17.3623 46.4673C17.2676 46.2644 17.0985 46.1629 16.855 46.1629C16.7333 46.1629 16.5845 46.19 16.4086 46.2441C16.2327 46.2982 16.0434 46.3726 15.8404 46.4673C15.7863 46.4808 15.739 46.4538 15.6984 46.3861C15.6713 46.3049 15.6781 46.2576 15.7187 46.2441L18.3769 44.9454C18.4446 44.9183 18.4919 44.9048 18.519 44.9048C18.6543 44.9048 18.7895 45.0604 18.9248 45.3715C19.0736 45.6827 19.148 46.1358 19.148 46.7311V51.2968C19.148 51.662 19.2021 51.9529 19.3104 52.1693C19.4186 52.3723 19.608 52.5143 19.8785 52.5955C20.1491 52.6631 20.5279 52.6969 21.0149 52.6969C21.069 52.6969 21.0961 52.7375 21.0961 52.8187C21.0961 52.8998 21.069 52.9404 21.0149 52.9404C20.6632 52.9404 20.2573 52.9337 19.7974 52.9201C19.351 52.9066 18.8639 52.8998 18.3364 52.8998C17.9711 52.8998 17.6126 52.9066 17.2609 52.9201C16.9227 52.9337 16.6251 52.9404 16.368 52.9404ZM26.8798 53.1839C26.5551 53.1839 26.2304 53.1298 25.9057 53.0216C25.5946 52.9134 25.3308 52.7307 25.1144 52.4737C24.9114 52.2167 24.81 51.8514 24.81 51.3779V46.792C24.81 46.4943 24.7762 46.2644 24.7085 46.102C24.6544 45.9397 24.5529 45.8315 24.4041 45.7774C24.2553 45.7097 24.0456 45.6759 23.7751 45.6759C23.721 45.6759 23.6939 45.6218 23.6939 45.5136C23.6939 45.4053 23.721 45.3512 23.7751 45.3512C24.4109 45.3242 24.925 45.1754 25.3173 44.9048C25.7231 44.6207 26.0072 44.2216 26.1695 43.7076C26.1831 43.6535 26.2372 43.6264 26.3319 43.6264C26.4266 43.6264 26.4739 43.6535 26.4739 43.7076V50.7083C26.4739 51.263 26.6092 51.662 26.8798 51.9055C27.1638 52.149 27.5291 52.2708 27.9755 52.2708C28.3002 52.2708 28.5978 52.2099 28.8684 52.0882C29.1525 51.9529 29.3892 51.8108 29.5786 51.662C29.6192 51.635 29.6665 51.6553 29.7206 51.7229C29.7747 51.777 29.7747 51.8244 29.7206 51.865C29.2201 52.3249 28.7466 52.6631 28.3002 52.8796C27.8673 53.0825 27.3938 53.1839 26.8798 53.1839ZM29.0916 46.1223C28.5505 46.0006 28.0229 45.9194 27.5088 45.8788C27.0083 45.8247 26.4672 45.7976 25.8854 45.7976V45.3106C26.4401 45.3106 26.9745 45.2903 27.4885 45.2498C28.0161 45.2092 28.5775 45.1618 29.1728 45.1077C29.1998 45.1077 29.2269 45.1551 29.2539 45.2498C29.2945 45.3445 29.3148 45.4594 29.3148 45.5947C29.3148 45.7165 29.2877 45.8382 29.2336 45.96C29.193 46.0817 29.1457 46.1358 29.0916 46.1223ZM30.4291 52.9404C30.3885 52.9404 30.3682 52.8998 30.3682 52.8187C30.3682 52.7375 30.3885 52.6969 30.4291 52.6969C30.8755 52.6969 31.1799 52.6022 31.3423 52.4128C31.5046 52.2234 31.5858 51.8514 31.5858 51.2968V40.9276C31.5858 40.4541 31.5384 40.1159 31.4437 39.913C31.3625 39.6965 31.207 39.5883 30.977 39.5883C30.7741 39.5883 30.4968 39.6695 30.145 39.8318C30.1044 39.8453 30.0639 39.8183 30.0233 39.7506C29.9827 39.6695 29.9827 39.6154 30.0233 39.5883L32.8439 38.249C32.8709 38.2355 32.8844 38.2287 32.8844 38.2287C32.898 38.2287 32.9115 38.2287 32.925 38.2287C32.9927 38.2287 33.0535 38.2558 33.1077 38.3099C33.1753 38.364 33.2091 38.4114 33.2091 38.4519V51.2968C33.2091 51.8514 33.2835 52.2234 33.4323 52.4128C33.5947 52.6022 33.9058 52.6969 34.3658 52.6969C34.4199 52.6969 34.4469 52.7375 34.4469 52.8187C34.4469 52.8998 34.4199 52.9404 34.3658 52.9404C34.1087 52.9404 33.8111 52.9337 33.4729 52.9201C33.1482 52.9066 32.7897 52.8998 32.3974 52.8998C32.0187 52.8998 31.6602 52.9066 31.322 52.9201C30.9838 52.9337 30.6861 52.9404 30.4291 52.9404ZM35.8877 52.9404C35.8471 52.9404 35.8268 52.8998 35.8268 52.8187C35.8268 52.7375 35.8471 52.6969 35.8877 52.6969C36.3341 52.6969 36.6385 52.6022 36.8008 52.4128C36.9631 52.2234 37.0443 51.8514 37.0443 51.2968V48.2733C37.0443 46.7852 36.4626 46.0412 35.2992 46.0412C34.8663 46.0412 34.4199 46.1629 33.9599 46.4064C33.5 46.6499 33.1279 46.9813 32.8439 47.4007L32.7424 47.1572C33.2565 46.4267 33.8111 45.8653 34.4063 45.473C35.0016 45.0807 35.6374 44.8845 36.3138 44.8845C37.0578 44.8845 37.6328 45.1145 38.0386 45.5744C38.458 46.0209 38.6677 46.6229 38.6677 47.3804V51.2968C38.6677 51.8514 38.7421 52.2234 38.8909 52.4128C39.0532 52.6022 39.3644 52.6969 39.8243 52.6969C39.8784 52.6969 39.9055 52.7375 39.9055 52.8187C39.9055 52.8998 39.8784 52.9404 39.8243 52.9404C39.5673 52.9404 39.2697 52.9337 38.9315 52.9201C38.6068 52.9066 38.2483 52.8998 37.856 52.8998C37.4772 52.8998 37.1187 52.9066 36.7805 52.9201C36.4423 52.9337 36.1447 52.9404 35.8877 52.9404ZM44.9761 53.2042C44.1374 53.2042 43.4136 53.0081 42.8048 52.6158C42.1961 52.2234 41.7226 51.7026 41.3844 51.0533C41.0462 50.3904 40.8771 49.6802 40.8771 48.9226C40.8771 48.2192 41.0124 47.6104 41.2829 47.0963C41.5535 46.5823 41.9052 46.1629 42.3381 45.8382C42.7846 45.5 43.2648 45.2498 43.7789 45.0874C44.3065 44.9251 44.8205 44.8439 45.3211 44.8439C46.1733 44.8439 46.9038 45.0468 47.5126 45.4527C48.1214 45.8585 48.5813 46.3794 48.8924 47.0152C49.2171 47.651 49.3795 48.3274 49.3795 49.0444C49.3795 49.8831 49.1765 50.6136 48.7707 51.2359C48.3649 51.8582 47.8305 52.3452 47.1676 52.6969C46.5048 53.0351 45.7742 53.2042 44.9761 53.2042ZM45.5849 52.7984C46.1801 52.7984 46.64 52.5414 46.9647 52.0273C47.2894 51.4997 47.4517 50.7218 47.4517 49.6937C47.4517 48.7603 47.3164 47.9621 47.0459 47.2993C46.7888 46.6364 46.4506 46.1291 46.0313 45.7774C45.6119 45.4256 45.152 45.2498 44.6514 45.2498C44.0562 45.2498 43.5962 45.5 43.2716 46.0006C42.9469 46.4876 42.7846 47.2249 42.7846 48.2124C42.7846 49.1052 42.9063 49.8966 43.1498 50.5866C43.3933 51.2765 43.7248 51.8176 44.1441 52.2099C44.577 52.6022 45.0573 52.7984 45.5849 52.7984ZM53.9315 53.2042C53.3633 53.2042 52.8357 53.0487 52.3487 52.7375C51.8617 52.4128 51.4694 51.9596 51.1718 51.3779C50.8877 50.7962 50.7457 50.0928 50.7457 49.2676C50.7457 48.4694 50.8945 47.793 51.1921 47.2384C51.4897 46.6702 51.8685 46.2103 52.3284 45.8585C52.8019 45.5068 53.3092 45.2498 53.8503 45.0874C54.3915 44.9251 54.9055 44.8439 55.3925 44.8439C55.8795 44.8439 56.3327 44.9116 56.7521 45.0468C57.1715 45.1821 57.5503 45.358 57.8885 45.5744L57.5029 47.1166C57.2053 46.5349 56.8603 46.0953 56.468 45.7976C56.0892 45.4865 55.6022 45.3309 55.007 45.3309C54.263 45.3309 53.6677 45.5947 53.2213 46.1223C52.7884 46.6364 52.572 47.4751 52.572 48.6385C52.572 49.4096 52.6734 50.0725 52.8763 50.6271C53.0793 51.1683 53.3633 51.5876 53.7286 51.8852C54.0939 52.1693 54.4997 52.3114 54.9461 52.3114C55.5008 52.3114 55.9945 52.1558 56.4274 51.8447C56.8603 51.5335 57.2729 51.1615 57.6652 50.7286L57.8479 50.8909C57.5638 51.2156 57.2256 51.5606 56.8333 51.9258C56.4545 52.2776 56.0216 52.5819 55.5346 52.839C55.0611 53.0825 54.5267 53.2042 53.9315 53.2042ZM58.7407 38.4519V50.6271C58.7407 51.1006 58.7881 51.4388 58.8828 51.6417C58.9775 51.8311 59.1398 51.9258 59.3698 51.9258C59.478 51.9258 59.6065 51.9055 59.7553 51.865C59.9177 51.8244 60.0935 51.7635 60.2829 51.6823C60.3235 51.6553 60.3641 51.6823 60.4047 51.7635C60.4452 51.8311 60.4452 51.8785 60.4047 51.9055L57.8073 53.1636C57.7667 53.1772 57.7261 53.1839 57.6855 53.1839C57.5367 53.1839 57.4014 53.0216 57.2797 52.6969C57.1579 52.3723 57.0971 51.8988 57.0971 51.2765V40.9276C57.0971 40.4676 57.0565 40.1294 56.9753 39.913C56.8941 39.6965 56.7318 39.5883 56.4883 39.5883C56.3801 39.5883 56.2583 39.6154 56.1231 39.6695C55.9878 39.7101 55.839 39.7642 55.6766 39.8318C55.6225 39.8589 55.5752 39.8318 55.5346 39.7506C55.494 39.6695 55.494 39.6221 55.5346 39.6086L58.3755 38.249C58.4025 38.2355 58.4296 38.2287 58.4566 38.2287C58.5107 38.2287 58.5716 38.2558 58.6393 38.3099C58.7069 38.364 58.7407 38.4114 58.7407 38.4519ZM65.2086 53.2042C64.3699 53.2042 63.6462 53.0081 63.0374 52.6158C62.4286 52.2234 61.9552 51.7026 61.617 51.0533C61.2788 50.3904 61.1097 49.6802 61.1097 48.9226C61.1097 48.2192 61.2449 47.6104 61.5155 47.0963C61.7861 46.5823 62.1378 46.1629 62.5707 45.8382C63.0171 45.5 63.4973 45.2498 64.0114 45.0874C64.539 44.9251 65.0531 44.8439 65.5536 44.8439C66.4059 44.8439 67.1364 45.0468 67.7451 45.4527C68.3539 45.8585 68.8138 46.3794 69.125 47.0152C69.4497 47.651 69.612 48.3274 69.612 49.0444C69.612 49.8831 69.4091 50.6136 69.0032 51.2359C68.5974 51.8582 68.063 52.3452 67.4002 52.6969C66.7373 53.0351 66.0068 53.2042 65.2086 53.2042ZM65.8174 52.7984C66.4126 52.7984 66.8726 52.5414 67.1973 52.0273C67.5219 51.4997 67.6843 50.7218 67.6843 49.6937C67.6843 48.7603 67.549 47.9621 67.2784 47.2993C67.0214 46.6364 66.6832 46.1291 66.2638 45.7774C65.8445 45.4256 65.3845 45.2498 64.884 45.2498C64.2887 45.2498 63.8288 45.5 63.5041 46.0006C63.1794 46.4876 63.0171 47.2249 63.0171 48.2124C63.0171 49.1052 63.1389 49.8966 63.3824 50.5866C63.6259 51.2765 63.9573 51.8176 64.3767 52.2099C64.8096 52.6022 65.2898 52.7984 65.8174 52.7984ZM75.4222 52.9404C75.3816 52.9404 75.3613 52.8998 75.3613 52.8187C75.3613 52.7375 75.3816 52.6969 75.4222 52.6969C75.7198 52.6969 75.8889 52.636 75.9295 52.5143C75.9836 52.379 75.9159 52.1761 75.7265 51.9055L72.3175 46.792C72.0063 46.3185 71.702 45.96 71.4043 45.7165C71.1067 45.473 70.8429 45.3512 70.613 45.3512C70.5859 45.3512 70.5724 45.3106 70.5724 45.2295C70.5724 45.1483 70.5859 45.1077 70.613 45.1077C70.8159 45.1077 71.0256 45.1145 71.242 45.128C71.4585 45.1415 71.6681 45.1483 71.8711 45.1483C72.3445 45.1483 72.7639 45.1415 73.1292 45.128C73.4944 45.1145 73.8259 45.1077 74.1235 45.1077C74.1505 45.1077 74.1641 45.1483 74.1641 45.2295C74.1641 45.3106 74.1505 45.3512 74.1235 45.3512C73.8529 45.3512 73.6838 45.4121 73.6162 45.5339C73.5485 45.6421 73.6162 45.845 73.8191 46.1426L77.2079 51.2562C77.5596 51.7838 77.8978 52.1558 78.2225 52.3723C78.5607 52.5887 78.8515 52.6969 79.095 52.6969C79.1356 52.6969 79.1559 52.7375 79.1559 52.8187C79.1559 52.8998 79.1356 52.9404 79.095 52.9404C78.8786 52.9404 78.6418 52.9337 78.3848 52.9201C78.1278 52.9066 77.891 52.8998 77.6746 52.8998C77.2011 52.8998 76.7817 52.9066 76.4165 52.9201C76.0512 52.9337 75.7198 52.9404 75.4222 52.9404ZM70.4506 52.9404C70.41 52.9404 70.3897 52.8998 70.3897 52.8187C70.3897 52.7375 70.41 52.6969 70.4506 52.6969C70.8565 52.6969 71.2826 52.5414 71.729 52.2302C72.1754 51.9191 72.5948 51.4929 72.9871 50.9518L74.4279 48.9632L74.7119 49.227L73.4335 51.0736C73.2171 51.4118 73.0818 51.7094 73.0277 51.9664C72.9736 52.2099 73.0209 52.3925 73.1697 52.5143C73.3321 52.636 73.6026 52.6969 73.9814 52.6969C74.022 52.6969 74.0423 52.7375 74.0423 52.8187C74.0423 52.8998 74.022 52.9404 73.9814 52.9404C73.6703 52.9404 73.3659 52.9337 73.0683 52.9201C72.7842 52.9066 72.4122 52.8998 71.9522 52.8998C71.6276 52.8998 71.3638 52.9066 71.1608 52.9201C70.9715 52.9337 70.7347 52.9404 70.4506 52.9404ZM74.8134 49.0444L74.5699 48.8009L75.8077 46.9746C76.173 46.447 76.3218 46.0479 76.2541 45.7774C76.1865 45.4933 75.8551 45.3512 75.2598 45.3512C75.2328 45.3512 75.2192 45.3106 75.2192 45.2295C75.2192 45.1483 75.2328 45.1077 75.2598 45.1077C75.5845 45.1077 75.8889 45.1145 76.173 45.128C76.4706 45.1415 76.8494 45.1483 77.3093 45.1483C77.634 45.1483 77.891 45.1415 78.0804 45.128C78.2833 45.1145 78.5268 45.1077 78.8109 45.1077C78.8515 45.1077 78.8718 45.1483 78.8718 45.2295C78.8718 45.3106 78.8515 45.3512 78.8109 45.3512C78.4186 45.3512 77.9992 45.5068 77.5528 45.8179C77.1064 46.1156 76.6803 46.5417 76.2744 47.0963L74.8134 49.0444ZM92.5041 40.0347C93.0858 40.0347 93.7081 40.0888 94.3709 40.1971C95.0338 40.2918 95.5614 40.4406 95.9537 40.6435C96.0755 40.6841 96.1499 40.7382 96.1769 40.8058C96.2175 40.8599 96.2446 40.9614 96.2581 41.1102L96.5016 43.7482C96.5016 43.7752 96.4678 43.8023 96.4001 43.8293C96.346 43.8429 96.3054 43.8226 96.2784 43.7684C95.8861 42.7133 95.2908 41.9083 94.4927 41.3537C93.7081 40.7991 92.7814 40.5217 91.7127 40.5217C90.7522 40.5217 89.9337 40.7517 89.2573 41.2117C88.5945 41.6716 88.0804 42.3142 87.7152 43.1394C87.3634 43.9511 87.1876 44.898 87.1876 45.9803C87.1876 46.9272 87.3161 47.8133 87.5731 48.6385C87.8301 49.4637 88.1886 50.1875 88.6486 50.8098C89.1085 51.4321 89.6497 51.9191 90.2719 52.2708C90.8942 52.6225 91.5706 52.7984 92.3011 52.7984C93.194 52.7984 93.9854 52.5278 94.6753 51.9867C95.3788 51.4321 95.974 50.5663 96.461 49.3893C96.4881 49.3352 96.5354 49.3217 96.603 49.3487C96.6707 49.3623 96.7045 49.3826 96.7045 49.4096L96.4001 52.007C96.3731 52.1693 96.3392 52.2776 96.2987 52.3317C96.2716 52.3723 96.1972 52.4196 96.0755 52.4737C95.4532 52.7172 94.8241 52.8931 94.1883 53.0013C93.5525 53.1231 92.9302 53.1839 92.3214 53.1839C91.0227 53.1839 89.9067 52.9878 88.9733 52.5955C88.0398 52.1896 87.2823 51.662 86.7006 51.0127C86.1188 50.3498 85.686 49.6261 85.4019 48.8414C85.1313 48.0568 84.996 47.2857 84.996 46.5282C84.996 45.5406 85.1989 44.6478 85.6048 43.8496C86.0242 43.0515 86.5856 42.3683 87.289 41.8001C87.9925 41.2319 88.7906 40.7991 89.6835 40.5014C90.5899 40.1903 91.53 40.0347 92.5041 40.0347ZM104.009 53.0622C103.954 53.0892 103.894 53.1028 103.826 53.1028C103.609 53.1028 103.393 52.9472 103.177 52.636C102.96 52.3249 102.852 51.8717 102.852 51.2765V47.766C102.852 47.1978 102.805 46.7378 102.71 46.3861C102.629 46.0344 102.507 45.7774 102.345 45.615C102.182 45.4527 101.973 45.3715 101.716 45.3715C101.472 45.3715 101.256 45.4392 101.066 45.5744C100.89 45.6962 100.748 45.8721 100.64 46.102C100.545 46.332 100.484 46.6229 100.457 46.9746C100.43 47.2993 100.329 47.5495 100.153 47.7254C99.9907 47.9013 99.7472 47.9892 99.4225 47.9892C99.1249 47.9892 98.9017 47.9215 98.7529 47.7863C98.6176 47.651 98.55 47.4684 98.55 47.2384C98.55 46.9543 98.6852 46.677 98.9558 46.4064C99.2264 46.1358 99.5646 45.8923 99.9704 45.6759C100.376 45.4459 100.802 45.2633 101.249 45.128C101.695 44.9927 102.101 44.9251 102.466 44.9251C103.034 44.9251 103.515 45.1077 103.907 45.473C104.299 45.8247 104.496 46.3861 104.496 47.1572V50.7489C104.496 51.1683 104.563 51.4862 104.698 51.7026C104.834 51.9191 105.03 52.0273 105.287 52.0273C105.503 52.0273 105.747 51.9664 106.017 51.8447C106.085 51.8176 106.132 51.8447 106.159 51.9258C106.187 51.9935 106.166 52.0408 106.099 52.0679L104.009 53.0622ZM99.8486 53.0825C99.4293 53.0825 99.0978 52.9675 98.8543 52.7375C98.6108 52.5075 98.4891 52.2032 98.4891 51.8244C98.4891 51.3779 98.6582 51.0465 98.9964 50.8301C99.3481 50.6136 99.896 50.3836 100.64 50.1401L103.055 49.3285L103.116 49.6125L101.391 50.2416C101.053 50.3769 100.809 50.5257 100.66 50.688C100.512 50.8368 100.437 51.0262 100.437 51.2562C100.437 51.5403 100.518 51.7635 100.681 51.9258C100.843 52.0882 101.046 52.1693 101.289 52.1693C101.411 52.1693 101.553 52.149 101.716 52.1085C101.891 52.0679 102.074 52.0002 102.263 51.9055L103.582 51.2156L103.623 51.52L101.858 52.4737C101.506 52.6631 101.154 52.8119 100.802 52.9201C100.464 53.0284 100.146 53.0825 99.8486 53.0825ZM109.851 53.1839C109.526 53.1839 109.202 53.1298 108.877 53.0216C108.566 52.9134 108.302 52.7307 108.086 52.4737C107.883 52.2167 107.781 51.8514 107.781 51.3779V46.792C107.781 46.4943 107.747 46.2644 107.68 46.102C107.626 45.9397 107.524 45.8315 107.375 45.7774C107.227 45.7097 107.017 45.6759 106.746 45.6759C106.692 45.6759 106.665 45.6218 106.665 45.5136C106.665 45.4053 106.692 45.3512 106.746 45.3512C107.382 45.3242 107.896 45.1754 108.289 44.9048C108.694 44.6207 108.978 44.2216 109.141 43.7076C109.154 43.6535 109.208 43.6264 109.303 43.6264C109.398 43.6264 109.445 43.6535 109.445 43.7076V50.7083C109.445 51.263 109.58 51.662 109.851 51.9055C110.135 52.149 110.5 52.2708 110.947 52.2708C111.271 52.2708 111.569 52.2099 111.84 52.0882C112.124 51.9529 112.36 51.8108 112.55 51.662C112.59 51.635 112.638 51.6553 112.692 51.7229C112.746 51.777 112.746 51.8244 112.692 51.865C112.191 52.3249 111.718 52.6631 111.271 52.8796C110.839 53.0825 110.365 53.1839 109.851 53.1839ZM112.063 46.1223C111.522 46.0006 110.994 45.9194 110.48 45.8788C109.98 45.8247 109.438 45.7976 108.857 45.7976V45.3106C109.411 45.3106 109.946 45.2903 110.46 45.2498C110.987 45.2092 111.549 45.1618 112.144 45.1077C112.171 45.1077 112.198 45.1551 112.225 45.2498C112.266 45.3445 112.286 45.4594 112.286 45.5947C112.286 45.7165 112.259 45.8382 112.205 45.96C112.164 46.0817 112.117 46.1358 112.063 46.1223ZM113.4 52.9404C113.36 52.9404 113.339 52.8998 113.339 52.8187C113.339 52.7375 113.36 52.6969 113.4 52.6969C113.847 52.6969 114.151 52.6022 114.314 52.4128C114.476 52.2234 114.557 51.8514 114.557 51.2968V40.9276C114.557 40.4541 114.51 40.1159 114.415 39.913C114.334 39.6965 114.178 39.5883 113.948 39.5883C113.745 39.5883 113.468 39.6695 113.116 39.8318C113.076 39.8453 113.035 39.8183 112.995 39.7506C112.954 39.6695 112.954 39.6154 112.995 39.5883L115.815 38.249C115.842 38.2355 115.856 38.2287 115.856 38.2287C115.869 38.2287 115.883 38.2287 115.896 38.2287C115.964 38.2287 116.025 38.2558 116.079 38.3099C116.147 38.364 116.18 38.4114 116.18 38.4519V51.2968C116.18 51.8514 116.255 52.2234 116.404 52.4128C116.566 52.6022 116.877 52.6969 117.337 52.6969C117.391 52.6969 117.418 52.7375 117.418 52.8187C117.418 52.8998 117.391 52.9404 117.337 52.9404C117.08 52.9404 116.782 52.9337 116.444 52.9201C116.119 52.9066 115.761 52.8998 115.369 52.8998C114.99 52.8998 114.631 52.9066 114.293 52.9201C113.955 52.9337 113.657 52.9404 113.4 52.9404ZM118.859 52.9404C118.818 52.9404 118.798 52.8998 118.798 52.8187C118.798 52.7375 118.818 52.6969 118.859 52.6969C119.305 52.6969 119.61 52.6022 119.772 52.4128C119.934 52.2234 120.016 51.8514 120.016 51.2968V48.2733C120.016 46.7852 119.434 46.0412 118.27 46.0412C117.838 46.0412 117.391 46.1629 116.931 46.4064C116.471 46.6499 116.099 46.9813 115.815 47.4007L115.714 47.1572C116.228 46.4267 116.782 45.8653 117.378 45.473C117.973 45.0807 118.609 44.8845 119.285 44.8845C120.029 44.8845 120.604 45.1145 121.01 45.5744C121.429 46.0209 121.639 46.6229 121.639 47.3804V51.2968C121.639 51.8514 121.713 52.2234 121.862 52.4128C122.024 52.6022 122.336 52.6969 122.796 52.6969C122.85 52.6969 122.877 52.7375 122.877 52.8187C122.877 52.8998 122.85 52.9404 122.796 52.9404C122.539 52.9404 122.241 52.9337 121.903 52.9201C121.578 52.9066 121.22 52.8998 120.827 52.8998C120.448 52.8998 120.09 52.9066 119.752 52.9201C119.414 52.9337 119.116 52.9404 118.859 52.9404ZM127.866 53.1839C127 53.1839 126.27 53.0013 125.675 52.636C125.079 52.2708 124.626 51.7906 124.315 51.1953C124.004 50.5866 123.848 49.944 123.848 49.2676C123.848 48.4694 124.045 47.7457 124.437 47.0963C124.843 46.4335 125.384 45.9059 126.06 45.5136C126.75 45.1212 127.528 44.9251 128.394 44.9251C129.192 44.9251 129.807 45.1077 130.24 45.473C130.673 45.8247 130.89 46.3117 130.89 46.934C130.89 47.0828 130.876 47.2113 130.849 47.3195C130.822 47.4278 130.761 47.4819 130.666 47.4819H128.982C129.023 46.8325 128.935 46.3117 128.718 45.9194C128.502 45.5271 128.15 45.3309 127.663 45.3309C127.055 45.3309 126.567 45.615 126.202 46.1832C125.837 46.7378 125.654 47.4886 125.654 48.4356C125.654 49.2067 125.776 49.8831 126.02 50.4648C126.277 51.033 126.635 51.4794 127.095 51.8041C127.569 52.1287 128.13 52.2911 128.779 52.2911C129.118 52.2911 129.469 52.2437 129.835 52.149C130.2 52.0408 130.538 51.8852 130.849 51.6823C130.876 51.6553 130.91 51.6688 130.951 51.7229C131.005 51.777 131.018 51.8244 130.991 51.865C130.504 52.3384 130.004 52.6766 129.49 52.8796C128.975 53.0825 128.434 53.1839 127.866 53.1839ZM125.066 47.5225L125.046 47.1775L129.55 47.076V47.4819L125.066 47.5225ZM135.317 53.2042C134.749 53.2042 134.222 53.0487 133.735 52.7375C133.248 52.4128 132.855 51.9596 132.558 51.3779C132.274 50.7962 132.132 50.0928 132.132 49.2676C132.132 48.4694 132.28 47.793 132.578 47.2384C132.876 46.6702 133.254 46.2103 133.714 45.8585C134.188 45.5068 134.695 45.2498 135.236 45.0874C135.777 44.9251 136.291 44.8439 136.778 44.8439C137.266 44.8439 137.719 44.9116 138.138 45.0468C138.557 45.1821 138.936 45.358 139.274 45.5744L138.889 47.1166C138.591 46.5349 138.246 46.0953 137.854 45.7976C137.475 45.4865 136.988 45.3309 136.393 45.3309C135.649 45.3309 135.054 45.5947 134.607 46.1223C134.174 46.6364 133.958 47.4751 133.958 48.6385C133.958 49.4096 134.059 50.0725 134.262 50.6271C134.465 51.1683 134.749 51.5876 135.115 51.8852C135.48 52.1693 135.886 52.3114 136.332 52.3114C136.887 52.3114 137.38 52.1558 137.813 51.8447C138.246 51.5335 138.659 51.1615 139.051 50.7286L139.234 50.8909C138.95 51.2156 138.612 51.5606 138.219 51.9258C137.84 52.2776 137.408 52.5819 136.921 52.839C136.447 53.0825 135.913 53.2042 135.317 53.2042ZM140.127 38.4519V50.6271C140.127 51.1006 140.174 51.4388 140.269 51.6417C140.363 51.8311 140.526 51.9258 140.756 51.9258C140.864 51.9258 140.992 51.9055 141.141 51.865C141.304 51.8244 141.479 51.7635 141.669 51.6823C141.709 51.6553 141.75 51.6823 141.791 51.7635C141.831 51.8311 141.831 51.8785 141.791 51.9055L139.193 53.1636C139.153 53.1772 139.112 53.1839 139.071 53.1839C138.923 53.1839 138.787 53.0216 138.666 52.6969C138.544 52.3723 138.483 51.8988 138.483 51.2765V40.9276C138.483 40.4676 138.442 40.1294 138.361 39.913C138.28 39.6965 138.118 39.5883 137.874 39.5883C137.766 39.5883 137.644 39.6154 137.509 39.6695C137.374 39.7101 137.225 39.7642 137.063 39.8318C137.008 39.8589 136.961 39.8318 136.921 39.7506C136.88 39.6695 136.88 39.6221 136.921 39.6086L139.761 38.249C139.788 38.2355 139.816 38.2287 139.843 38.2287C139.897 38.2287 139.958 38.2558 140.025 38.3099C140.093 38.364 140.127 38.4114 140.127 38.4519ZM144.971 47.4413L144.829 47.1978C145.343 46.589 145.776 46.1223 146.128 45.7976C146.493 45.4594 146.797 45.2295 147.041 45.1077C147.285 44.9724 147.514 44.9048 147.731 44.9048C148.015 44.9048 148.299 45.0063 148.583 45.2092C148.881 45.3986 149.03 45.6421 149.03 45.9397C149.03 46.1832 148.955 46.3861 148.806 46.5485C148.658 46.7108 148.448 46.792 148.177 46.792C147.934 46.792 147.744 46.7243 147.609 46.589C147.474 46.4538 147.345 46.3252 147.224 46.2035C147.102 46.0817 146.933 46.0209 146.716 46.0209C146.608 46.0209 146.493 46.0547 146.371 46.1223C146.25 46.1764 146.081 46.3049 145.864 46.5079C145.648 46.7108 145.35 47.0219 144.971 47.4413ZM142.658 52.9404C142.617 52.9404 142.597 52.8998 142.597 52.8187C142.597 52.7375 142.617 52.6969 142.658 52.6969C143.118 52.6969 143.422 52.6022 143.571 52.4128C143.72 52.2234 143.794 51.8514 143.794 51.2968V47.421C143.794 46.9881 143.747 46.6702 143.652 46.4673C143.558 46.2644 143.388 46.1629 143.145 46.1629C143.023 46.1629 142.874 46.19 142.699 46.2441C142.523 46.2982 142.333 46.3726 142.13 46.4673C142.076 46.4808 142.029 46.4538 141.988 46.3861C141.961 46.3049 141.968 46.2576 142.009 46.2441L144.667 44.9454C144.734 44.9183 144.782 44.9048 144.809 44.9048C144.944 44.9048 145.079 45.0604 145.215 45.3715C145.364 45.6827 145.438 46.1358 145.438 46.7311V51.2968C145.438 51.662 145.492 51.9529 145.6 52.1693C145.708 52.3723 145.898 52.5143 146.168 52.5955C146.439 52.6631 146.818 52.6969 147.305 52.6969C147.359 52.6969 147.386 52.7375 147.386 52.8187C147.386 52.8998 147.359 52.9404 147.305 52.9404C146.953 52.9404 146.547 52.9337 146.087 52.9201C145.641 52.9066 145.154 52.8998 144.626 52.8998C144.261 52.8998 143.903 52.9066 143.551 52.9201C143.213 52.9337 142.915 52.9404 142.658 52.9404ZM155.571 53.0622C155.517 53.0892 155.456 53.1028 155.388 53.1028C155.172 53.1028 154.955 52.9472 154.739 52.636C154.522 52.3249 154.414 51.8717 154.414 51.2765V47.766C154.414 47.1978 154.367 46.7378 154.272 46.3861C154.191 46.0344 154.069 45.7774 153.907 45.615C153.744 45.4527 153.535 45.3715 153.278 45.3715C153.034 45.3715 152.818 45.4392 152.628 45.5744C152.453 45.6962 152.311 45.8721 152.202 46.102C152.108 46.332 152.047 46.6229 152.02 46.9746C151.993 47.2993 151.891 47.5495 151.715 47.7254C151.553 47.9013 151.309 47.9892 150.985 47.9892C150.687 47.9892 150.464 47.9215 150.315 47.7863C150.18 47.651 150.112 47.4684 150.112 47.2384C150.112 46.9543 150.248 46.677 150.518 46.4064C150.789 46.1358 151.127 45.8923 151.533 45.6759C151.939 45.4459 152.365 45.2633 152.811 45.128C153.257 44.9927 153.663 44.9251 154.029 44.9251C154.597 44.9251 155.077 45.1077 155.469 45.473C155.862 45.8247 156.058 46.3861 156.058 47.1572V50.7489C156.058 51.1683 156.125 51.4862 156.261 51.7026C156.396 51.9191 156.592 52.0273 156.849 52.0273C157.066 52.0273 157.309 51.9664 157.58 51.8447C157.647 51.8176 157.695 51.8447 157.722 51.9258C157.749 51.9935 157.728 52.0408 157.661 52.0679L155.571 53.0622ZM151.411 53.0825C150.992 53.0825 150.66 52.9675 150.417 52.7375C150.173 52.5075 150.051 52.2032 150.051 51.8244C150.051 51.3779 150.22 51.0465 150.559 50.8301C150.91 50.6136 151.458 50.3836 152.202 50.1401L154.617 49.3285L154.678 49.6125L152.953 50.2416C152.615 50.3769 152.371 50.5257 152.223 50.688C152.074 50.8368 151.999 51.0262 151.999 51.2562C151.999 51.5403 152.081 51.7635 152.243 51.9258C152.405 52.0882 152.608 52.1693 152.852 52.1693C152.973 52.1693 153.115 52.149 153.278 52.1085C153.454 52.0679 153.636 52.0002 153.826 51.9055L155.145 51.2156L155.185 51.52L153.42 52.4737C153.068 52.6631 152.716 52.8119 152.365 52.9201C152.026 53.0284 151.709 53.0825 151.411 53.0825ZM158.41 52.9404C158.369 52.9404 158.349 52.8998 158.349 52.8187C158.349 52.7375 158.369 52.6969 158.41 52.6969C158.856 52.6969 159.161 52.6022 159.323 52.4128C159.486 52.2234 159.567 51.8514 159.567 51.2968V40.9276C159.567 40.4541 159.526 40.1159 159.445 39.913C159.364 39.6965 159.208 39.5883 158.978 39.5883C158.789 39.5883 158.512 39.6695 158.146 39.8318C158.106 39.8453 158.065 39.8115 158.025 39.7303C157.984 39.6492 157.977 39.6018 158.004 39.5883L160.865 38.249C160.892 38.2355 160.92 38.2287 160.947 38.2287C161.001 38.2287 161.062 38.2558 161.129 38.3099C161.197 38.364 161.231 38.4114 161.231 38.4519V51.2968C161.231 51.8514 161.305 52.2234 161.454 52.4128C161.616 52.6022 161.927 52.6969 162.387 52.6969C162.428 52.6969 162.448 52.7375 162.448 52.8187C162.448 52.8998 162.428 52.9404 162.387 52.9404C162.13 52.9404 161.826 52.9337 161.474 52.9201C161.136 52.9066 160.777 52.8998 160.399 52.8998C160.02 52.8998 159.655 52.9066 159.303 52.9201C158.965 52.9337 158.667 52.9404 158.41 52.9404Z" fill="#4C4951"/>
<path d="M7.80914 29.9623C7.80914 30.677 7.89253 31.225 8.0593 31.6062C8.22608 31.9636 8.57154 32.2138 9.0957 32.3567C9.64368 32.4997 10.4537 32.5711 11.5259 32.5711C11.5973 32.5711 11.6331 32.6426 11.6331 32.7856C11.6331 32.9285 11.5973 33 11.5259 33C10.7635 33 9.92958 32.9881 9.02422 32.9643C8.14269 32.9404 7.17777 32.9285 6.12946 32.9285C5.29558 32.9285 4.49744 32.9404 3.73504 32.9643C2.97263 32.9881 2.29361 33 1.69798 33C1.62651 33 1.59077 32.9285 1.59077 32.7856C1.59077 32.6426 1.62651 32.5711 1.69798 32.5711C2.48421 32.5711 3.06793 32.5116 3.44913 32.3925C3.83034 32.2733 4.0805 32.0351 4.19963 31.6777C4.34258 31.3203 4.41405 30.7962 4.41405 30.1052V13.5587C4.41405 12.8677 4.34258 12.3555 4.19963 12.0219C4.0805 11.6646 3.83034 11.4263 3.44913 11.3072C3.06793 11.1642 2.48421 11.0928 1.69798 11.0928C1.62651 11.0928 1.59077 11.0213 1.59077 10.8783C1.59077 10.7354 1.62651 10.6639 1.69798 10.6639C2.29361 10.6639 2.96072 10.6877 3.6993 10.7354C4.4617 10.7592 5.25985 10.7711 6.09373 10.7711C6.66553 10.7711 7.40411 10.7354 8.30947 10.6639C9.23865 10.5924 10.1321 10.5567 10.9898 10.5567C12.4431 10.5567 13.7297 10.7592 14.8495 11.1642C15.9931 11.5454 16.8984 12.1649 17.5655 13.0226C18.2326 13.8803 18.59 15.012 18.6377 16.4177C18.6615 17.6566 18.4471 18.7287 17.9944 19.6341C17.5417 20.5394 16.9223 21.2899 16.136 21.8856C15.3736 22.4574 14.5278 22.8981 13.5987 23.2079C12.6695 23.4938 11.7403 23.6367 10.8111 23.6367C10.549 23.6367 10.2631 23.6248 9.9534 23.601C9.6675 23.5771 9.3816 23.5295 9.0957 23.458C9.02422 23.4342 9.0004 23.3508 9.02422 23.2079C9.04805 23.0411 9.10761 22.9696 9.20291 22.9934C9.39351 23.0411 9.60794 23.0768 9.84619 23.1006C10.0844 23.1245 10.287 23.1364 10.4537 23.1364C11.24 23.1364 11.9666 22.922 12.6337 22.4931C13.3008 22.0642 13.8369 21.4091 14.2419 20.5275C14.6708 19.646 14.8852 18.5381 14.8852 17.2039C14.8852 15.9412 14.6827 14.869 14.2777 13.9875C13.8726 13.106 13.3008 12.4389 12.5623 11.9862C11.8475 11.5097 10.966 11.2714 9.91767 11.2714C9.36969 11.2714 8.94083 11.331 8.63111 11.4501C8.32138 11.5454 8.10695 11.7599 7.98783 12.0934C7.8687 12.427 7.80914 12.9392 7.80914 13.6301V29.9623ZM27.4074 33.4289C25.8826 33.4289 24.596 33.1072 23.5477 32.4639C22.4994 31.8207 21.7013 30.9749 21.1533 29.9266C20.6053 28.8544 20.3313 27.7227 20.3313 26.5315C20.3313 25.1258 20.6768 23.8511 21.3677 22.7075C22.0825 21.5401 23.0355 20.6109 24.2267 19.92C25.4418 19.2291 26.8118 18.8836 28.3366 18.8836C29.7423 18.8836 30.8263 19.2052 31.5887 19.8485C32.3511 20.468 32.7323 21.3257 32.7323 22.4216C32.7323 22.6837 32.7085 22.91 32.6608 23.1006C32.6132 23.2912 32.506 23.3865 32.3392 23.3865H29.373C29.4444 22.2429 29.2896 21.3257 28.9084 20.6347C28.5272 19.9438 27.9077 19.5983 27.05 19.5983C25.9779 19.5983 25.1202 20.0987 24.4769 21.0993C23.8336 22.0762 23.512 23.3985 23.512 25.0662C23.512 26.4243 23.7264 27.6155 24.1552 28.64C24.6079 29.6407 25.2393 30.4269 26.0493 30.9987C26.8832 31.5705 27.872 31.8564 29.0156 31.8564C29.6112 31.8564 30.2307 31.773 30.8739 31.6062C31.5172 31.4156 32.1129 31.1416 32.6608 30.7843C32.7085 30.7366 32.768 30.7604 32.8395 30.8557C32.9348 30.951 32.9586 31.0344 32.911 31.1059C32.0533 31.9398 31.1718 32.5354 30.2664 32.8928C29.361 33.2502 28.408 33.4289 27.4074 33.4289ZM22.4756 23.458L22.4398 22.8505L30.3736 22.6718V23.3865L22.4756 23.458ZM40.5611 33.4289C39.9893 33.4289 39.4175 33.3336 38.8457 33.143C38.2977 32.9523 37.8331 32.6307 37.4519 32.178C37.0945 31.7254 36.9159 31.0821 36.9159 30.2482V22.1715C36.9159 21.6473 36.8563 21.2423 36.7372 20.9564C36.6419 20.6705 36.4632 20.4799 36.2011 20.3846C35.939 20.2654 35.5697 20.2059 35.0932 20.2059C34.9979 20.2059 34.9503 20.1106 34.9503 19.92C34.9503 19.7294 34.9979 19.6341 35.0932 19.6341C36.213 19.5864 37.1184 19.3244 37.8093 18.8479C38.5241 18.3475 39.0244 17.6447 39.3103 16.7393C39.3341 16.644 39.4294 16.5964 39.5962 16.5964C39.763 16.5964 39.8464 16.644 39.8464 16.7393V29.0688C39.8464 30.0457 40.0846 30.7485 40.5611 31.1774C41.0614 31.6062 41.7047 31.8207 42.4909 31.8207C43.0627 31.8207 43.5869 31.7134 44.0634 31.499C44.5637 31.2608 44.9807 31.0106 45.3142 30.7485C45.3857 30.7009 45.4691 30.7366 45.5644 30.8557C45.6597 30.951 45.6597 31.0344 45.5644 31.1059C44.6829 31.916 43.849 32.5116 43.0627 32.8928C42.3003 33.2502 41.4665 33.4289 40.5611 33.4289ZM44.4565 20.9921C43.5035 20.7777 42.5743 20.6347 41.669 20.5633C40.7874 20.468 39.8344 20.4203 38.81 20.4203V19.5626C39.7868 19.5626 40.7279 19.5269 41.6332 19.4554C42.5624 19.3839 43.5512 19.3005 44.5995 19.2052C44.6471 19.2052 44.6948 19.2886 44.7424 19.4554C44.8139 19.6222 44.8496 19.8247 44.8496 20.0629C44.8496 20.2774 44.802 20.4918 44.7067 20.7062C44.6352 20.9206 44.5518 21.0159 44.4565 20.9921ZM54.2456 33.4289C52.7208 33.4289 51.4342 33.1072 50.3859 32.4639C49.3376 31.8207 48.5395 30.9749 47.9915 29.9266C47.4435 28.8544 47.1695 27.7227 47.1695 26.5315C47.1695 25.1258 47.515 23.8511 48.2059 22.7075C48.9207 21.5401 49.8737 20.6109 51.0649 19.92C52.28 19.2291 53.65 18.8836 55.1748 18.8836C56.5805 18.8836 57.6645 19.2052 58.4269 19.8485C59.1893 20.468 59.5705 21.3257 59.5705 22.4216C59.5705 22.6837 59.5467 22.91 59.499 23.1006C59.4514 23.2912 59.3442 23.3865 59.1774 23.3865H56.2112C56.2826 22.2429 56.1278 21.3257 55.7466 20.6347C55.3654 19.9438 54.7459 19.5983 53.8882 19.5983C52.8161 19.5983 51.9584 20.0987 51.3151 21.0993C50.6718 22.0762 50.3502 23.3985 50.3502 25.0662C50.3502 26.4243 50.5646 27.6155 50.9935 28.64C51.4461 29.6407 52.0775 30.4269 52.8876 30.9987C53.7214 31.5705 54.7102 31.8564 55.8538 31.8564C56.4494 31.8564 57.0689 31.773 57.7122 31.6062C58.3554 31.4156 58.9511 31.1416 59.499 30.7843C59.5467 30.7366 59.6063 30.7604 59.6777 30.8557C59.773 30.951 59.7969 31.0344 59.7492 31.1059C58.8915 31.9398 58.01 32.5354 57.1046 32.8928C56.1993 33.2502 55.2462 33.4289 54.2456 33.4289ZM49.3138 23.458L49.278 22.8505L57.2118 22.6718V23.3865L49.3138 23.458ZM66.3272 23.3151L66.077 22.8862C66.9824 21.8141 67.7448 20.9921 68.3642 20.4203C69.0075 19.8247 69.5436 19.4197 69.9724 19.2052C70.4013 18.967 70.8063 18.8479 71.1875 18.8479C71.6878 18.8479 72.1882 19.0265 72.6885 19.3839C73.2127 19.7175 73.4747 20.1463 73.4747 20.6705C73.4747 21.0993 73.3437 21.4567 73.0816 21.7426C72.8195 22.0285 72.4503 22.1715 71.9737 22.1715C71.5449 22.1715 71.2113 22.0523 70.9731 21.8141C70.7348 21.5758 70.5085 21.3495 70.2941 21.1351C70.0796 20.9206 69.7818 20.8134 69.4006 20.8134C69.21 20.8134 69.0075 20.873 68.7931 20.9921C68.5787 21.0874 68.2808 21.3138 67.8996 21.6711C67.5184 22.0285 66.9943 22.5765 66.3272 23.3151ZM62.2531 33C62.1816 33 62.1459 32.9285 62.1459 32.7856C62.1459 32.6426 62.1816 32.5711 62.2531 32.5711C63.0631 32.5711 63.5992 32.4044 63.8613 32.0708C64.1234 31.7373 64.2544 31.0821 64.2544 30.1052V23.2793C64.2544 22.5169 64.171 21.957 64.0042 21.5997C63.8375 21.2423 63.5396 21.0636 63.1108 21.0636C62.8964 21.0636 62.6343 21.1112 62.3246 21.2065C62.0148 21.3018 61.6813 21.4329 61.3239 21.5997C61.2286 21.6235 61.1452 21.5758 61.0737 21.4567C61.0261 21.3138 61.038 21.2304 61.1095 21.2065L65.7911 18.9193C65.9102 18.8717 65.9936 18.8479 66.0413 18.8479C66.2795 18.8479 66.5178 19.1218 66.756 19.6698C67.0181 20.2178 67.1492 21.0159 67.1492 22.0642V30.1052C67.1492 30.7485 67.2445 31.2608 67.4351 31.642C67.6257 31.9993 67.9592 32.2495 68.4357 32.3925C68.9122 32.5116 69.5793 32.5711 70.437 32.5711C70.5323 32.5711 70.58 32.6426 70.58 32.7856C70.58 32.9285 70.5323 33 70.437 33C69.8176 33 69.1028 32.9881 68.2928 32.9643C67.5065 32.9404 66.6488 32.9285 65.7196 32.9285C65.0764 32.9285 64.445 32.9404 63.8255 32.9643C63.2299 32.9881 62.7058 33 62.2531 33ZM76.1331 28.9516C76.1331 28.1196 76.3462 27.3789 76.7723 26.7296C77.1985 26.0599 77.7565 25.441 78.4465 24.8728C79.1364 24.3046 79.867 23.7466 80.6381 23.1987C81.4092 22.6305 82.1397 22.042 82.8297 21.4332C83.5196 20.8244 84.0777 20.1548 84.5038 19.4243C84.93 18.6937 85.143 17.8719 85.143 16.9587C85.143 16.0455 84.9198 15.3454 84.4734 14.8584C84.0269 14.3511 83.4587 14.0974 82.7688 14.0974C82.1397 14.0974 81.673 14.3004 81.3686 14.7062C81.0642 15.1121 80.912 15.7209 80.912 16.5326C80.912 17.6284 81.1555 18.7444 81.6426 19.8808C82.1296 21.0172 82.7891 22.1333 83.6211 23.2291C84.4734 24.3249 85.417 25.3801 86.4519 26.3948C87.5071 27.3891 88.5928 28.3023 89.7089 29.1343C91.1091 30.1692 92.3469 30.9809 93.4224 31.5694C94.4979 32.1376 95.3299 32.4927 95.9184 32.6347C96.0199 32.655 96.0604 32.726 96.0402 32.8478C96.0199 32.9493 95.9793 33 95.9184 33C95.3502 33 94.6704 33 93.879 33C93.1079 33 92.3266 33 91.5352 33C91.2917 33 90.9772 32.9188 90.5916 32.7565C90.206 32.5941 89.6987 32.3101 89.0696 31.9042C88.4406 31.4781 87.6289 30.8693 86.6345 30.0779C85.7417 29.3473 84.8183 28.5356 83.8646 27.6428C82.9108 26.7296 82.0281 25.7961 81.2164 24.8424C80.425 23.8683 79.7858 22.9146 79.2988 21.9811C79.035 21.4535 78.8219 20.9259 78.6595 20.3983C78.4972 19.8707 78.416 19.3025 78.416 18.6937C78.416 17.6791 78.6393 16.7659 79.0857 15.9542C79.5524 15.1425 80.2018 14.5033 81.0338 14.0366C81.8658 13.5698 82.85 13.3365 83.9864 13.3365C84.7169 13.3365 85.3764 13.4481 85.9649 13.6713C86.5534 13.8945 87.0201 14.2293 87.3651 14.6758C87.71 15.1019 87.8825 15.6701 87.8825 16.3804C87.8825 17.2124 87.6593 17.9429 87.2129 18.572C86.7867 19.201 86.2287 19.7794 85.5387 20.307C84.8488 20.8346 84.1183 21.352 83.3471 21.8594C82.576 22.3667 81.8455 22.8943 81.1555 23.4422C80.4656 23.9698 79.8974 24.5583 79.451 25.2076C79.0248 25.857 78.8117 26.6078 78.8117 27.4601C78.8117 28.2515 79.035 29.0024 79.4814 29.7126C79.9278 30.4025 80.5569 30.9707 81.3686 31.4172C82.1803 31.8636 83.1442 32.0868 84.2603 32.0868C85.1329 32.0868 85.904 31.9346 86.5737 31.6302C87.2636 31.3056 87.8318 30.8693 88.2782 30.3214C88.745 29.7532 89.0899 29.0835 89.3132 28.3124C89.5567 27.521 89.6784 26.6586 89.6784 25.7251C89.6784 24.7308 89.5059 23.9901 89.161 23.5031C88.8363 22.9957 88.2174 22.7421 87.3042 22.7421C87.2636 22.7421 87.2332 22.6812 87.2129 22.5595C87.2129 22.4377 87.2433 22.3768 87.3042 22.3768L94.2443 22.3464C94.3254 22.3464 94.366 22.4073 94.366 22.529C94.366 22.6508 94.3254 22.7117 94.2443 22.7117C93.6152 22.7117 93.1383 22.7827 92.8136 22.9247C92.489 23.0668 92.2556 23.29 92.1135 23.5944C91.9715 23.8988 91.8193 24.3148 91.657 24.8424C91.4946 25.4714 91.2714 26.1715 90.9873 26.9427C90.7032 27.6935 90.3379 28.4443 89.8915 29.1951C89.4451 29.946 88.8769 30.6461 88.1869 31.2954C87.5173 31.9245 86.6853 32.4318 85.6909 32.8174C84.7169 33.1826 83.5704 33.3653 82.2513 33.3653C80.8309 33.3653 79.664 33.1522 78.7509 32.726C77.858 32.2999 77.1985 31.752 76.7723 31.0823C76.3462 30.3924 76.1331 29.6822 76.1331 28.9516ZM103.169 29.9623C103.169 30.677 103.252 31.225 103.419 31.6062C103.586 31.9636 103.931 32.2138 104.455 32.3567C105.003 32.4997 105.813 32.5711 106.885 32.5711C106.957 32.5711 106.993 32.6426 106.993 32.7856C106.993 32.9285 106.957 33 106.885 33C106.123 33 105.289 32.9881 104.384 32.9643C103.502 32.9404 102.537 32.9285 101.489 32.9285C100.655 32.9285 99.857 32.9404 99.0946 32.9643C98.3322 32.9881 97.6532 33 97.0576 33C96.9861 33 96.9504 32.9285 96.9504 32.7856C96.9504 32.6426 96.9861 32.5711 97.0576 32.5711C97.8438 32.5711 98.4275 32.5116 98.8087 32.3925C99.1899 32.2733 99.4401 32.0351 99.5592 31.6777C99.7022 31.3203 99.7737 30.7962 99.7737 30.1052V13.5587C99.7737 12.8677 99.7022 12.3555 99.5592 12.0219C99.4401 11.6646 99.1899 11.4263 98.8087 11.3072C98.4275 11.1642 97.8438 11.0928 97.0576 11.0928C96.9861 11.0928 96.9504 11.0213 96.9504 10.8783C96.9504 10.7354 96.9861 10.6639 97.0576 10.6639C97.6532 10.6639 98.3203 10.6877 99.0589 10.7354C99.8213 10.7592 100.619 10.7711 101.453 10.7711C102.025 10.7711 102.764 10.7354 103.669 10.6639C104.598 10.5924 105.492 10.5567 106.349 10.5567C107.803 10.5567 109.089 10.7592 110.209 11.1642C111.353 11.5454 112.258 12.1649 112.925 13.0226C113.592 13.8803 113.95 15.012 113.997 16.4177C114.021 17.6566 113.807 18.7287 113.354 19.6341C112.901 20.5394 112.282 21.2899 111.496 21.8856C110.733 22.4574 109.887 22.8981 108.958 23.2079C108.029 23.4938 107.1 23.6367 106.171 23.6367C105.909 23.6367 105.623 23.6248 105.313 23.601C105.027 23.5771 104.741 23.5295 104.455 23.458C104.384 23.4342 104.36 23.3508 104.384 23.2079C104.408 23.0411 104.467 22.9696 104.563 22.9934C104.753 23.0411 104.968 23.0768 105.206 23.1006C105.444 23.1245 105.647 23.1364 105.813 23.1364C106.6 23.1364 107.326 22.922 107.993 22.4931C108.66 22.0642 109.197 21.4091 109.602 20.5275C110.03 19.646 110.245 18.5381 110.245 17.2039C110.245 15.9412 110.042 14.869 109.637 13.9875C109.232 13.106 108.66 12.4389 107.922 11.9862C107.207 11.5097 106.326 11.2714 105.277 11.2714C104.729 11.2714 104.3 11.331 103.991 11.4501C103.681 11.5454 103.467 11.7599 103.347 12.0934C103.228 12.427 103.169 12.9392 103.169 13.6301V29.9623ZM125.631 33.2144C125.536 33.2621 125.429 33.2859 125.309 33.2859C124.928 33.2859 124.547 33.0119 124.166 32.4639C123.785 31.916 123.594 31.1178 123.594 30.0695V23.8869C123.594 22.8862 123.511 22.0762 123.344 21.4567C123.201 20.8373 122.986 20.3846 122.701 20.0987C122.415 19.8128 122.045 19.6698 121.593 19.6698C121.164 19.6698 120.783 19.7889 120.449 20.0272C120.139 20.2416 119.889 20.5514 119.699 20.9564C119.532 21.3614 119.425 21.8736 119.377 22.4931C119.329 23.0649 119.151 23.5057 118.841 23.8154C118.555 24.1251 118.126 24.28 117.554 24.28C117.03 24.28 116.637 24.1609 116.375 23.9226C116.137 23.6844 116.018 23.3627 116.018 22.9577C116.018 22.4574 116.256 21.9689 116.732 21.4924C117.209 21.0159 117.804 20.5871 118.519 20.2059C119.234 19.8009 119.984 19.4792 120.771 19.241C121.557 19.0027 122.272 18.8836 122.915 18.8836C123.916 18.8836 124.761 19.2052 125.452 19.8485C126.143 20.468 126.489 21.4567 126.489 22.8147V29.1403C126.489 29.8789 126.608 30.4388 126.846 30.82C127.084 31.2012 127.43 31.3918 127.883 31.3918C128.264 31.3918 128.693 31.2846 129.169 31.0702C129.288 31.0225 129.372 31.0702 129.419 31.2131C129.467 31.3322 129.431 31.4156 129.312 31.4633L125.631 33.2144ZM118.305 33.2502C117.566 33.2502 116.983 33.0477 116.554 32.6426C116.125 32.2376 115.91 31.7015 115.91 31.0344C115.91 30.2482 116.208 29.6645 116.804 29.2833C117.423 28.9021 118.388 28.497 119.699 28.0682L123.951 26.6387L124.059 27.139L121.021 28.2469C120.425 28.4851 119.996 28.7472 119.734 29.0331C119.472 29.2952 119.341 29.6287 119.341 30.0338C119.341 30.5341 119.484 30.9272 119.77 31.2131C120.056 31.499 120.413 31.642 120.842 31.642C121.057 31.642 121.307 31.6062 121.593 31.5348C121.902 31.4633 122.224 31.3442 122.558 31.1774L124.881 29.9623L124.952 30.4984L121.843 32.178C121.223 32.5116 120.604 32.7737 119.984 32.9643C119.389 33.1549 118.829 33.2502 118.305 33.2502ZM136.064 33.3931C134.801 33.3931 133.8 32.9881 133.062 32.178C132.347 31.368 131.99 30.2839 131.99 28.9259V23.601C131.99 22.7671 131.894 22.1595 131.704 21.7783C131.537 21.3733 131.263 21.1708 130.882 21.1708C130.596 21.1708 130.262 21.2661 129.881 21.4567C129.786 21.4805 129.702 21.421 129.631 21.278C129.583 21.1351 129.595 21.0517 129.667 21.0279L134.17 18.9193C134.241 18.8955 134.301 18.8836 134.348 18.8836C134.444 18.8836 134.551 18.9312 134.67 19.0265C134.789 19.1218 134.849 19.2052 134.849 19.2767V27.3892C134.849 28.7234 135.087 29.724 135.563 30.3911C136.064 31.0344 136.814 31.3561 137.815 31.3561C138.577 31.3561 139.34 31.1416 140.102 30.7128C140.888 30.2601 141.532 29.6764 142.032 28.9616L142.246 29.3905C141.341 30.6294 140.376 31.6062 139.352 32.321C138.327 33.0357 137.231 33.3931 136.064 33.3931ZM144.212 19.2767V28.9616C144.212 29.7717 144.295 30.3554 144.462 30.7128C144.629 31.0463 144.915 31.2131 145.32 31.2131C145.51 31.2131 145.737 31.1774 145.999 31.1059C146.261 31.0106 146.571 30.9034 146.928 30.7843C147.023 30.7366 147.107 30.7843 147.178 30.9272C147.25 31.0463 147.238 31.1297 147.142 31.1774L142.461 33.4289C142.413 33.4527 142.365 33.4646 142.318 33.4646C142.103 33.4646 141.889 33.1787 141.674 32.6069C141.46 32.0351 141.353 31.225 141.353 30.1767V23.601C141.353 22.7671 141.269 22.1595 141.103 21.7783C140.936 21.3733 140.65 21.1708 140.245 21.1708C139.959 21.1708 139.626 21.2661 139.244 21.4567C139.149 21.4805 139.078 21.421 139.03 21.278C138.982 21.1351 138.994 21.0517 139.066 21.0279L143.569 18.9193C143.616 18.8955 143.664 18.8836 143.712 18.8836C143.831 18.8836 143.938 18.9312 144.033 19.0265C144.152 19.1218 144.212 19.2052 144.212 19.2767ZM148.535 33C148.464 33 148.428 32.9285 148.428 32.7856C148.428 32.6426 148.464 32.5711 148.535 32.5711C149.322 32.5711 149.858 32.4044 150.144 32.0708C150.429 31.7373 150.572 31.0821 150.572 30.1052V11.8433C150.572 11.0094 150.501 10.4137 150.358 10.0564C150.215 9.67516 149.941 9.48456 149.536 9.48456C149.202 9.48456 148.714 9.62751 148.071 9.91341C147.999 9.93724 147.928 9.87768 147.856 9.73473C147.785 9.59178 147.773 9.50839 147.821 9.48456L152.86 7.12587C152.907 7.10204 152.955 7.09013 153.003 7.09013C153.098 7.09013 153.205 7.13778 153.324 7.23308C153.443 7.32838 153.503 7.41177 153.503 7.48325V30.1052C153.503 31.0821 153.634 31.7373 153.896 32.0708C154.182 32.4044 154.73 32.5711 155.54 32.5711C155.611 32.5711 155.647 32.6426 155.647 32.7856C155.647 32.9285 155.611 33 155.54 33C155.087 33 154.551 32.9881 153.932 32.9643C153.336 32.9404 152.705 32.9285 152.038 32.9285C151.371 32.9285 150.727 32.9404 150.108 32.9643C149.512 32.9881 148.988 33 148.535 33Z" fill="black"/>
<path d="M23.6304 8.04448C23.6304 8.29714 23.6952 8.5174 23.8247 8.70527C23.9543 8.88666 24.1195 9.05186 24.3203 9.20086C24.5276 9.34986 24.7446 9.49562 24.9714 9.63815C25.2176 9.78715 25.4508 9.94587 25.671 10.1143C25.8978 10.2827 26.0824 10.4771 26.2249 10.6973C26.3739 10.9111 26.4484 11.1735 26.4484 11.4845C26.4484 11.8213 26.361 12.1193 26.1861 12.3785C26.0112 12.6311 25.7682 12.8319 25.4573 12.981C25.1528 13.1235 24.7932 13.1947 24.3786 13.1947C24.2037 13.1947 24.0191 13.1785 23.8247 13.1461C23.6369 13.1138 23.4587 13.0684 23.2903 13.0101C23.1283 12.9518 22.9955 12.8903 22.8919 12.8255C22.8659 12.806 22.8433 12.7834 22.8238 12.7574C22.8109 12.7315 22.8012 12.6927 22.7947 12.6408L22.7364 11.1735C22.7299 11.1411 22.7429 11.1249 22.7752 11.1249C22.8141 11.1184 22.8368 11.1282 22.8433 11.1541C22.921 11.3484 23.0117 11.5557 23.1154 11.776C23.2255 11.9898 23.3518 12.1874 23.4943 12.3688C23.6369 12.5501 23.7988 12.6991 23.9802 12.8158C24.1681 12.9259 24.3819 12.981 24.6216 12.981C24.79 12.981 24.9487 12.9518 25.0977 12.8935C25.2467 12.8352 25.3698 12.7348 25.467 12.5923C25.5642 12.4433 25.6127 12.2424 25.6127 11.9898C25.6127 11.6853 25.5415 11.4262 25.399 11.2124C25.2629 10.9921 25.088 10.801 24.8742 10.639C24.6604 10.4771 24.4369 10.3248 24.2037 10.1823C23.977 10.0333 23.7599 9.88108 23.5526 9.7256C23.3453 9.57012 23.1737 9.39197 23.0376 9.19114C22.908 8.98384 22.8433 8.73442 22.8433 8.4429C22.8433 8.08659 22.9404 7.79507 23.1348 7.56833C23.3291 7.34159 23.5753 7.17315 23.8733 7.06302C24.1778 6.95289 24.4888 6.89783 24.8062 6.89783C25.02 6.89783 25.237 6.91726 25.4573 6.95613C25.6775 6.995 25.8654 7.05007 26.0209 7.12133C26.0792 7.14076 26.118 7.16667 26.1375 7.19907C26.1569 7.23146 26.1666 7.26709 26.1666 7.30596L26.1861 8.61781C26.1861 8.64373 26.1699 8.65992 26.1375 8.6664C26.1116 8.67288 26.0921 8.6664 26.0792 8.64697C26.0468 8.54979 25.9982 8.41699 25.9334 8.24855C25.8686 8.07364 25.7779 7.89872 25.6613 7.72381C25.5447 7.54889 25.399 7.39989 25.224 7.27681C25.0491 7.15372 24.8353 7.09217 24.5827 7.09217C24.3883 7.09217 24.2199 7.13104 24.0774 7.20878C23.9349 7.28652 23.8247 7.39665 23.747 7.53918C23.6693 7.67522 23.6304 7.84366 23.6304 8.04448ZM35.0954 13.1364C35.0695 13.1494 35.0403 13.1559 35.0079 13.1559C34.9043 13.1559 34.8006 13.0814 34.697 12.9324C34.5933 12.7834 34.5415 12.5663 34.5415 12.2813V10.6002C34.5415 10.3281 34.5188 10.1078 34.4735 9.93939C34.4346 9.77095 34.3763 9.64786 34.2985 9.57012C34.2208 9.49238 34.1204 9.45352 33.9973 9.45352C33.8807 9.45352 33.777 9.48591 33.6863 9.55069C33.6021 9.60899 33.5341 9.69321 33.4823 9.80334C33.4369 9.91347 33.4078 10.0528 33.3948 10.2212C33.3819 10.3767 33.3333 10.4965 33.2491 10.5807C33.1713 10.665 33.0547 10.7071 32.8992 10.7071C32.7567 10.7071 32.6498 10.6747 32.5786 10.6099C32.5138 10.5451 32.4814 10.4577 32.4814 10.3475C32.4814 10.2115 32.5462 10.0787 32.6757 9.94911C32.8053 9.81954 32.9673 9.70293 33.1616 9.59928C33.356 9.48915 33.56 9.40169 33.7738 9.33691C33.9876 9.27212 34.1819 9.23973 34.3569 9.23973C34.6289 9.23973 34.8589 9.32719 35.0468 9.5021C35.2347 9.67054 35.3286 9.93939 35.3286 10.3087V12.0286C35.3286 12.2295 35.361 12.3817 35.4258 12.4854C35.4906 12.589 35.5845 12.6408 35.7076 12.6408C35.8112 12.6408 35.9278 12.6117 36.0574 12.5534C36.0898 12.5404 36.1125 12.5534 36.1254 12.5923C36.1384 12.6246 36.1287 12.6473 36.0963 12.6603L35.0954 13.1364ZM33.1033 13.1461C32.9025 13.1461 32.7438 13.0911 32.6271 12.981C32.5105 12.8708 32.4522 12.7251 32.4522 12.5437C32.4522 12.3299 32.5332 12.1712 32.6952 12.0675C32.8636 11.9639 33.126 11.8537 33.4823 11.7371L34.6387 11.3484L34.6678 11.4845L33.8418 11.7857C33.6799 11.8505 33.5633 11.9217 33.492 11.9995C33.4207 12.0707 33.3851 12.1614 33.3851 12.2716C33.3851 12.4076 33.424 12.5145 33.5017 12.5923C33.5795 12.67 33.6766 12.7089 33.7932 12.7089C33.8515 12.7089 33.9196 12.6991 33.9973 12.6797C34.0815 12.6603 34.169 12.6279 34.2597 12.5825L34.8913 12.2521L34.9107 12.3979L34.0653 12.8546C33.8969 12.9453 33.7285 13.0166 33.56 13.0684C33.3981 13.1202 33.2458 13.1461 33.1033 13.1461ZM41.5762 13.0781C41.5567 13.0781 41.547 13.0587 41.547 13.0198C41.547 12.981 41.5567 12.9615 41.5762 12.9615C41.7964 12.9615 41.9422 12.9162 42.0134 12.8255C42.0912 12.7348 42.1301 12.5566 42.1301 12.291V10.5224C42.1301 10.3022 42.1074 10.1435 42.062 10.0463C42.0167 9.94263 41.9389 9.8908 41.8288 9.8908C41.777 9.8908 41.7187 9.90052 41.6539 9.91995C41.5891 9.93939 41.5179 9.96854 41.4401 10.0074C41.4142 10.0139 41.3915 9.99769 41.3721 9.95882C41.3591 9.91995 41.3624 9.89728 41.3818 9.8908L42.7811 9.23973C42.7941 9.23325 42.8038 9.23001 42.8103 9.23001C42.8362 9.23001 42.8621 9.24621 42.888 9.2786C42.9204 9.30451 42.9366 9.32719 42.9366 9.34662C42.9366 9.41788 42.9334 9.54745 42.9269 9.73532C42.9204 9.92319 42.9172 10.1823 42.9172 10.5127V12.291C42.9172 12.5566 42.9528 12.7348 43.0241 12.8255C43.1018 12.9162 43.2508 12.9615 43.4711 12.9615C43.4905 12.9615 43.5002 12.981 43.5002 13.0198C43.5002 13.0587 43.4905 13.0781 43.4711 13.0781C43.3415 13.0781 43.1957 13.0749 43.0338 13.0684C42.8718 13.0619 42.7001 13.0587 42.5188 13.0587C42.3438 13.0587 42.1722 13.0619 42.0037 13.0684C41.8418 13.0749 41.6992 13.0781 41.5762 13.0781ZM42.4702 8.20968C42.3017 8.20968 42.1689 8.16433 42.0718 8.07364C41.9811 7.98294 41.9357 7.85337 41.9357 7.68494C41.9357 7.52946 41.9811 7.40637 42.0718 7.31568C42.1689 7.22498 42.3017 7.17963 42.4702 7.17963C42.6321 7.17963 42.7552 7.22498 42.8394 7.31568C42.9301 7.40637 42.9755 7.52946 42.9755 7.68494C42.9755 8.03477 42.807 8.20968 42.4702 8.20968ZM51.7953 13.0781C51.7758 13.0781 51.7661 13.0587 51.7661 13.0198C51.7661 12.981 51.7758 12.9615 51.7953 12.9615C52.0155 12.9615 52.1613 12.9162 52.2326 12.8255C52.3038 12.7348 52.3395 12.5566 52.3395 12.291V10.8334C52.3395 10.4706 52.2714 10.205 52.1354 10.0366C52.0058 9.86165 51.7985 9.77419 51.5135 9.77419C51.3062 9.77419 51.0924 9.8325 50.8721 9.94911C50.6583 10.0592 50.4802 10.2147 50.3377 10.4155L50.2891 10.2989C50.5417 9.95558 50.8073 9.68997 51.0859 9.5021C51.3709 9.30775 51.6754 9.21058 51.9993 9.21058C52.3621 9.21058 52.6407 9.32071 52.835 9.54097C53.0294 9.75476 53.1266 10.0463 53.1266 10.4155V12.291C53.1266 12.5566 53.1622 12.7348 53.2335 12.8255C53.3112 12.9162 53.4602 12.9615 53.6805 12.9615C53.6999 12.9615 53.7096 12.981 53.7096 13.0198C53.7096 13.0587 53.6999 13.0781 53.6805 13.0781C53.5574 13.0781 53.4149 13.0749 53.2529 13.0684C53.0909 13.0619 52.9193 13.0587 52.7379 13.0587C52.563 13.0587 52.3913 13.0619 52.2228 13.0684C52.0609 13.0749 51.9184 13.0781 51.7953 13.0781ZM49.1813 13.0781C49.1618 13.0781 49.1521 13.0587 49.1521 13.0198C49.1521 12.981 49.1618 12.9615 49.1813 12.9615C49.4015 12.9615 49.5473 12.9162 49.6186 12.8255C49.6898 12.7348 49.7255 12.5566 49.7255 12.291V10.435C49.7255 10.2277 49.7028 10.0754 49.6574 9.97826C49.6121 9.88108 49.5311 9.8325 49.4145 9.8325C49.3562 9.8325 49.2849 9.84545 49.2007 9.87137C49.1165 9.89728 49.0258 9.93291 48.9286 9.97826C48.9027 9.98474 48.88 9.97178 48.8606 9.93939C48.8476 9.90052 48.8509 9.87784 48.8703 9.87137L50.1433 9.24945C50.1757 9.23649 50.1984 9.23001 50.2113 9.23001C50.2761 9.23001 50.3409 9.30451 50.4057 9.45352C50.4769 9.60252 50.5126 9.81954 50.5126 10.1046V12.291C50.5126 12.5566 50.5482 12.7348 50.6195 12.8255C50.6972 12.9162 50.8462 12.9615 51.0665 12.9615C51.0859 12.9615 51.0956 12.981 51.0956 13.0198C51.0956 13.0587 51.0859 13.0781 51.0665 13.0781C50.9434 13.0781 50.8009 13.0749 50.6389 13.0684C50.4769 13.0619 50.3053 13.0587 50.1239 13.0587C49.949 13.0587 49.7773 13.0619 49.6088 13.0684C49.4469 13.0749 49.3044 13.0781 49.1813 13.0781ZM60.7201 13.1947C60.5647 13.1947 60.4092 13.1688 60.2537 13.117C60.1047 13.0652 59.9784 12.9777 59.8747 12.8546C59.7776 12.7315 59.729 12.5566 59.729 12.3299V10.1337C59.729 9.99121 59.7128 9.88108 59.6804 9.80334C59.6545 9.7256 59.6059 9.67378 59.5346 9.64786C59.4634 9.61547 59.3629 9.59928 59.2334 9.59928C59.2075 9.59928 59.1945 9.57336 59.1945 9.52154C59.1945 9.46971 59.2075 9.4438 59.2334 9.4438C59.5379 9.43084 59.784 9.35958 59.9719 9.23001C60.1663 9.09397 60.3023 8.90286 60.38 8.65668C60.3865 8.63077 60.4124 8.61781 60.4578 8.61781C60.5031 8.61781 60.5258 8.63077 60.5258 8.65668V12.0092C60.5258 12.2748 60.5906 12.4659 60.7201 12.5825C60.8562 12.6991 61.0311 12.7574 61.2449 12.7574C61.4004 12.7574 61.5429 12.7283 61.6725 12.67C61.8085 12.6052 61.9219 12.5372 62.0126 12.4659C62.032 12.453 62.0547 12.4627 62.0806 12.4951C62.1065 12.521 62.1065 12.5437 62.0806 12.5631C61.8409 12.7834 61.6142 12.9453 61.4004 13.049C61.1931 13.1461 60.9663 13.1947 60.7201 13.1947ZM61.7793 9.81306C61.5202 9.75476 61.2676 9.71589 61.0214 9.69645C60.7817 9.67054 60.5226 9.65758 60.244 9.65758V9.42436C60.5096 9.42436 60.7655 9.41465 61.0117 9.39521C61.2643 9.37578 61.5332 9.3531 61.8182 9.32719C61.8312 9.32719 61.8441 9.34986 61.8571 9.39521C61.8765 9.44056 61.8862 9.49562 61.8862 9.56041C61.8862 9.61871 61.8733 9.67702 61.8474 9.73532C61.8279 9.79363 61.8053 9.81954 61.7793 9.81306ZM68.3378 9.8325C68.3378 9.9815 68.3767 10.1111 68.4544 10.2212C68.5321 10.3313 68.6326 10.4317 68.7556 10.5224C68.8787 10.6067 69.0115 10.6876 69.1541 10.7654C69.316 10.8561 69.4715 10.95 69.6205 11.0472C69.776 11.1444 69.9055 11.2642 70.0092 11.4067C70.1129 11.5428 70.1647 11.7209 70.1647 11.9412C70.1647 12.1485 70.1096 12.3493 69.9995 12.5437C69.8958 12.7315 69.7371 12.887 69.5233 13.0101C69.316 13.1267 69.0537 13.185 68.7362 13.185C68.5743 13.185 68.4155 13.1656 68.2601 13.1267C68.1046 13.0878 67.9361 13.0166 67.7548 12.9129C67.7418 12.9 67.7288 12.8838 67.7159 12.8643C67.7029 12.8449 67.6964 12.8222 67.6964 12.7963L67.677 11.9023C67.677 11.8829 67.6932 11.8732 67.7256 11.8732C67.7645 11.8667 67.7871 11.8732 67.7936 11.8926C67.8649 12.0999 67.9621 12.2878 68.0851 12.4562C68.2147 12.6246 68.3572 12.7574 68.5127 12.8546C68.6747 12.9453 68.8399 12.9907 69.0083 12.9907C69.1703 12.9907 69.2966 12.9486 69.3873 12.8643C69.4845 12.7736 69.5298 12.6376 69.5233 12.4562C69.5233 12.2748 69.4812 12.1258 69.397 12.0092C69.3128 11.8861 69.2059 11.7825 69.0763 11.6982C68.9532 11.614 68.8237 11.5363 68.6876 11.465C68.5321 11.3808 68.3799 11.2966 68.2309 11.2124C68.0884 11.1217 67.9685 11.0083 67.8714 10.8723C67.7742 10.7297 67.7256 10.5451 67.7256 10.3184C67.7256 10.0528 67.7904 9.84221 67.9199 9.68673C68.056 9.52478 68.2309 9.40817 68.4447 9.33691C68.6585 9.25917 68.8787 9.2203 69.1055 9.2203C69.2415 9.2203 69.3678 9.23001 69.4845 9.24945C69.6075 9.26888 69.7404 9.30775 69.8829 9.36606C69.9412 9.38549 69.9703 9.42112 69.9703 9.47295C69.9703 9.59604 69.9671 9.72236 69.9606 9.85193C69.9541 9.9815 69.9509 10.1273 69.9509 10.2892C69.9509 10.3022 69.9315 10.3087 69.8926 10.3087C69.8537 10.3087 69.8343 10.3022 69.8343 10.2892C69.8343 10.1597 69.7825 10.0268 69.6788 9.8908C69.5752 9.75476 69.4423 9.64139 69.2804 9.55069C69.1249 9.45352 68.9597 9.40493 68.7848 9.40493C68.6682 9.40493 68.5645 9.43408 68.4738 9.49239C68.3831 9.55069 68.3378 9.66406 68.3378 9.8325Z" fill="#4C4951"/>
</svg>
