<svg width="4408" height="1262" viewBox="0 0 4408 1262" fill="none" xmlns="http://www.w3.org/2000/svg">
<g clip-path="url(#clip0_150_57)">
<path d="M175.756 1261.23C149.165 1261.23 124.975 1256.62 103.185 1247.38C81.765 1237.78 63.2986 1224.67 47.7872 1208.05C32.6451 1191.43 20.8269 1172.41 12.3325 1150.99C4.20752 1129.2 0.14502 1106.12 0.14502 1081.75C0.14502 1051.83 5.86942 1025.61 17.3184 1003.08C29.1366 980.55 44.648 961.9 63.8526 947.13C83.057 931.99 104.108 920.72 127.006 913.34C149.904 905.95 172.617 902.26 195.146 902.26C222.475 902.26 246.85 907.24 268.271 917.21C290.061 926.82 308.527 939.93 323.669 956.55C338.811 973.17 350.26 992 358.016 1013.05C366.141 1034.1 370.203 1055.71 370.203 1077.87C370.203 1103.72 365.033 1127.73 354.692 1149.88C344.351 1172.04 330.132 1191.43 312.035 1208.05C294.308 1224.67 273.626 1237.78 249.99 1247.38C226.723 1256.62 201.978 1261.23 175.756 1261.23ZM194.592 1247.94C216.751 1247.94 236.51 1242.03 253.868 1230.21C271.595 1218.39 285.444 1201.04 295.416 1178.14C305.757 1154.87 310.927 1126.8 310.927 1093.93C310.927 1059.59 305.388 1029.12 294.308 1002.53C283.228 975.94 267.348 955.07 246.666 939.93C225.984 924.41 201.24 916.66 172.433 916.66C136.609 916.66 108.725 929.59 88.782 955.44C69.2078 980.92 59.4208 1016.38 59.4208 1061.8C59.4208 1088.39 62.7447 1113.14 69.3924 1136.04C76.04 1158.56 85.273 1178.32 97.091 1195.31C109.279 1212.3 123.498 1225.41 139.748 1234.64C156.367 1243.51 174.648 1247.94 194.592 1247.94ZM483.007 1104.46L479.129 1097.81C493.164 1081.19 504.982 1068.45 514.584 1059.59C524.556 1050.35 532.865 1044.07 539.513 1040.75C546.161 1037.06 552.439 1035.21 558.348 1035.21C566.104 1035.21 573.86 1037.98 581.616 1043.52C589.741 1048.69 593.803 1055.34 593.803 1063.46C593.803 1070.11 591.772 1075.65 587.709 1080.08C583.647 1084.51 577.922 1086.73 570.536 1086.73C563.888 1086.73 558.718 1084.88 555.025 1081.19C551.331 1077.5 547.823 1073.99 544.499 1070.67C541.175 1067.34 536.559 1065.68 530.649 1065.68C527.695 1065.68 524.556 1066.6 521.232 1068.45C517.908 1069.93 513.291 1073.44 507.382 1078.98C501.473 1084.51 493.348 1093.01 483.007 1104.46ZM419.854 1254.59C418.746 1254.59 418.192 1253.48 418.192 1251.26C418.192 1249.05 418.746 1247.94 419.854 1247.94C432.41 1247.94 440.72 1245.35 444.783 1240.18C448.845 1235.01 450.876 1224.86 450.876 1209.71V1103.9C450.876 1092.09 449.584 1083.41 446.999 1077.87C444.413 1072.33 439.797 1069.56 433.149 1069.56C429.825 1069.56 425.763 1070.3 420.962 1071.77C416.16 1073.25 410.99 1075.28 405.45 1077.87C403.973 1078.24 402.68 1077.5 401.572 1075.65C400.834 1073.44 401.018 1072.14 402.126 1071.77L474.698 1036.32C476.544 1035.58 477.837 1035.21 478.575 1035.21C482.269 1035.21 485.962 1039.46 489.655 1047.95C493.718 1056.45 495.749 1068.82 495.749 1085.07V1209.71C495.749 1219.69 497.226 1227.63 500.181 1233.54C503.135 1239.08 508.306 1242.95 515.692 1245.17C523.078 1247.02 533.419 1247.94 546.715 1247.94C548.192 1247.94 548.931 1249.05 548.931 1251.26C548.931 1253.48 548.192 1254.59 546.715 1254.59C537.113 1254.59 526.033 1254.4 513.476 1254.03C501.289 1253.66 487.993 1253.48 473.59 1253.48C463.618 1253.48 453.831 1253.66 444.229 1254.03C434.996 1254.4 426.871 1254.59 419.854 1254.59ZM706.828 1261.23C697.964 1261.23 689.101 1259.76 680.237 1256.8C671.743 1253.85 664.541 1248.86 658.632 1241.85C653.092 1234.83 650.322 1224.86 650.322 1211.93V1086.73C650.322 1078.61 649.399 1072.33 647.552 1067.9C646.075 1063.46 643.305 1060.51 639.242 1059.03C635.18 1057.19 629.455 1056.26 622.069 1056.26C620.592 1056.26 619.853 1054.78 619.853 1051.83C619.853 1048.88 620.592 1047.4 622.069 1047.4C639.427 1046.66 653.461 1042.6 664.171 1035.21C675.251 1027.46 683.007 1016.56 687.439 1002.53C687.808 1001.05 689.285 1000.31 691.87 1000.31C694.456 1000.31 695.748 1001.05 695.748 1002.53V1193.65C695.748 1208.79 699.441 1219.69 706.828 1226.33C714.584 1232.98 724.555 1236.31 736.743 1236.31C745.606 1236.31 753.731 1234.64 761.118 1231.32C768.874 1227.63 775.337 1223.75 780.507 1219.69C781.615 1218.95 782.908 1219.5 784.385 1221.35C785.862 1222.83 785.862 1224.12 784.385 1225.23C770.72 1237.78 757.794 1247.02 745.606 1252.92C733.788 1258.46 720.862 1261.23 706.828 1261.23ZM767.212 1068.45C752.439 1065.13 738.035 1062.91 724.001 1061.8C710.336 1060.32 695.564 1059.59 679.683 1059.59V1046.29C694.825 1046.29 709.413 1045.74 723.447 1044.63C737.851 1043.52 753.177 1042.23 769.428 1040.75C770.166 1040.75 770.905 1042.04 771.643 1044.63C772.751 1047.21 773.305 1050.35 773.305 1054.05C773.305 1057.37 772.567 1060.69 771.089 1064.02C769.982 1067.34 768.689 1068.82 767.212 1068.45ZM803.727 1254.59C802.619 1254.59 802.065 1253.48 802.065 1251.26C802.065 1249.05 802.619 1247.94 803.727 1247.94C815.914 1247.94 824.224 1245.35 828.656 1240.18C833.088 1235.01 835.303 1224.86 835.303 1209.71V926.63C835.303 913.7 834.011 904.47 831.426 898.93C829.21 893.02 824.963 890.07 818.684 890.07C813.144 890.07 805.573 892.28 795.971 896.72C794.863 897.09 793.755 896.35 792.647 894.5C791.539 892.28 791.539 890.81 792.647 890.07L869.65 853.51C870.389 853.14 870.758 852.95 870.758 852.95C871.127 852.95 871.497 852.95 871.866 852.95C873.713 852.95 875.375 853.69 876.852 855.17C878.699 856.64 879.622 857.94 879.622 859.05V1209.71C879.622 1224.86 881.653 1235.01 885.716 1240.18C890.147 1245.35 898.642 1247.94 911.199 1247.94C912.676 1247.94 913.415 1249.05 913.415 1251.26C913.415 1253.48 912.676 1254.59 911.199 1254.59C904.182 1254.59 896.057 1254.4 886.824 1254.03C877.96 1253.66 868.173 1253.48 857.463 1253.48C847.122 1253.48 837.335 1253.66 828.102 1254.03C818.869 1254.4 810.744 1254.59 803.727 1254.59ZM952.747 1254.59C951.639 1254.59 951.085 1253.48 951.085 1251.26C951.085 1249.05 951.639 1247.94 952.747 1247.94C964.935 1247.94 973.24 1245.35 977.68 1240.18C982.11 1235.01 984.32 1224.86 984.32 1209.71V1127.17C984.32 1086.55 968.443 1066.23 936.682 1066.23C924.863 1066.23 912.676 1069.56 900.119 1076.21C887.562 1082.85 877.406 1091.9 869.65 1103.35L866.88 1096.7C880.914 1076.76 896.057 1061.43 912.307 1050.72C928.557 1040.01 945.915 1034.66 964.381 1034.66C984.69 1034.66 1000.39 1040.94 1011.47 1053.49C1022.92 1065.68 1028.64 1082.11 1028.64 1102.8V1209.71C1028.64 1224.86 1030.67 1235.01 1034.74 1240.18C1039.17 1245.35 1047.66 1247.94 1060.22 1247.94C1061.7 1247.94 1062.44 1249.05 1062.44 1251.26C1062.44 1253.48 1061.7 1254.59 1060.22 1254.59C1053.2 1254.59 1045.08 1254.4 1035.84 1254.03C1026.98 1253.66 1017.19 1253.48 1006.48 1253.48C996.14 1253.48 986.36 1253.66 977.12 1254.03C967.889 1254.4 959.764 1254.59 952.747 1254.59ZM1200.86 1261.79C1177.97 1261.79 1158.21 1256.43 1141.59 1245.72C1124.97 1235.01 1112.04 1220.79 1102.81 1203.07C1093.58 1184.97 1088.96 1165.58 1088.96 1144.9C1088.96 1125.69 1092.65 1109.07 1100.04 1095.04C1107.43 1081.01 1117.03 1069.56 1128.85 1060.69C1141.04 1051.46 1154.15 1044.63 1168.18 1040.2C1182.58 1035.76 1196.62 1033.55 1210.28 1033.55C1233.55 1033.55 1253.49 1039.09 1270.11 1050.17C1286.73 1061.25 1299.29 1075.47 1307.78 1092.82C1316.65 1110.18 1321.08 1128.65 1321.08 1148.22C1321.08 1171.12 1315.54 1191.06 1304.46 1208.05C1293.38 1225.04 1278.79 1238.34 1260.69 1247.94C1242.6 1257.17 1222.65 1261.79 1200.86 1261.79ZM1217.48 1250.71C1233.73 1250.71 1246.29 1243.69 1255.15 1229.66C1264.02 1215.25 1268.45 1194.02 1268.45 1165.95C1268.45 1140.47 1264.76 1118.68 1257.37 1100.58C1250.35 1082.48 1241.12 1068.63 1229.67 1059.03C1218.22 1049.43 1205.67 1044.63 1192 1044.63C1175.75 1044.63 1163.19 1051.46 1154.33 1065.13C1145.47 1078.42 1141.04 1098.55 1141.04 1125.51C1141.04 1149.88 1144.36 1171.49 1151.01 1190.33C1157.65 1209.16 1166.7 1223.93 1178.15 1234.64C1189.97 1245.35 1203.08 1250.71 1217.48 1250.71ZM1445.35 1261.79C1429.84 1261.79 1415.44 1257.54 1402.14 1249.05C1388.85 1240.18 1378.14 1227.81 1370.01 1211.93C1362.25 1196.05 1358.38 1176.84 1358.38 1154.32C1358.38 1132.53 1362.44 1114.06 1370.56 1098.92C1378.69 1083.41 1389.03 1070.85 1401.59 1061.25C1414.51 1051.65 1428.36 1044.63 1443.14 1040.2C1457.91 1035.76 1471.94 1033.55 1485.24 1033.55C1498.53 1033.55 1510.91 1035.4 1522.35 1039.09C1533.8 1042.78 1544.14 1047.58 1553.38 1053.49L1542.85 1095.59C1534.73 1079.71 1525.31 1067.71 1514.6 1059.59C1504.26 1051.09 1490.96 1046.84 1474.71 1046.84C1454.4 1046.84 1438.15 1054.05 1425.96 1068.45C1414.14 1082.48 1408.24 1105.38 1408.24 1137.14C1408.24 1158.19 1411 1176.29 1416.54 1191.43C1422.08 1206.21 1429.84 1217.65 1439.81 1225.78C1449.78 1233.54 1460.86 1237.41 1473.05 1237.41C1488.19 1237.41 1501.67 1233.17 1513.49 1224.67C1525.31 1216.18 1536.57 1206.02 1547.28 1194.2L1552.27 1198.63C1544.51 1207.5 1535.28 1216.92 1524.57 1226.89C1514.23 1236.49 1502.41 1244.8 1489.12 1251.82C1476.19 1258.46 1461.6 1261.79 1445.35 1261.79ZM1576.64 859.05V1191.43C1576.64 1204.36 1577.94 1213.59 1580.52 1219.13C1583.11 1224.3 1587.54 1226.89 1593.82 1226.89C1596.77 1226.89 1600.28 1226.33 1604.34 1225.23C1608.78 1224.12 1613.58 1222.46 1618.75 1220.24C1619.86 1219.5 1620.96 1220.24 1622.07 1222.46C1623.18 1224.3 1623.18 1225.6 1622.07 1226.33L1551.16 1260.68C1550.05 1261.05 1548.95 1261.23 1547.84 1261.23C1543.78 1261.23 1540.08 1256.8 1536.76 1247.94C1533.43 1239.08 1531.77 1226.15 1531.77 1209.16V926.63C1531.77 914.07 1530.66 904.84 1528.45 898.93C1526.23 893.02 1521.8 890.07 1515.15 890.07C1512.2 890.07 1508.87 890.81 1505.18 892.28C1501.49 893.39 1497.43 894.87 1492.99 896.72C1491.52 897.45 1490.22 896.72 1489.12 894.5C1488.01 892.28 1488.01 890.99 1489.12 890.62L1566.67 853.51C1567.41 853.14 1568.15 852.95 1568.89 852.95C1570.37 852.95 1572.03 853.69 1573.87 855.17C1575.72 856.64 1576.64 857.94 1576.64 859.05ZM1753.22 1261.79C1730.32 1261.79 1710.56 1256.43 1693.95 1245.72C1677.33 1235.01 1664.4 1220.79 1655.17 1203.07C1645.93 1184.97 1641.32 1165.58 1641.32 1144.9C1641.32 1125.69 1645.01 1109.07 1652.4 1095.04C1659.78 1081.01 1669.39 1069.56 1681.2 1060.69C1693.39 1051.46 1706.5 1044.63 1720.54 1040.2C1734.94 1035.76 1748.97 1033.55 1762.64 1033.55C1785.91 1033.55 1805.85 1039.09 1822.47 1050.17C1839.09 1061.25 1851.64 1075.47 1860.14 1092.82C1869 1110.18 1873.43 1128.65 1873.43 1148.22C1873.43 1171.12 1867.9 1191.06 1856.82 1208.05C1845.74 1225.04 1831.15 1238.34 1813.05 1247.94C1794.95 1257.17 1775.01 1261.79 1753.22 1261.79ZM1769.84 1250.71C1786.09 1250.71 1798.65 1243.69 1807.51 1229.66C1816.37 1215.25 1820.81 1194.02 1820.81 1165.95C1820.81 1140.47 1817.11 1118.68 1809.73 1100.58C1802.71 1082.48 1793.48 1068.63 1782.03 1059.03C1770.58 1049.43 1758.02 1044.63 1744.36 1044.63C1728.11 1044.63 1715.55 1051.46 1706.69 1065.13C1697.82 1078.42 1693.39 1098.55 1693.39 1125.51C1693.39 1149.88 1696.72 1171.49 1703.36 1190.33C1710.01 1209.16 1719.06 1223.93 1730.51 1234.64C1742.33 1245.35 1755.44 1250.71 1769.84 1250.71ZM2032.05 1254.59C2030.95 1254.59 2030.39 1253.48 2030.39 1251.26C2030.39 1249.05 2030.95 1247.94 2032.05 1247.94C2040.18 1247.94 2044.8 1246.28 2045.9 1242.95C2047.38 1239.26 2045.53 1233.72 2040.36 1226.33L1947.3 1086.73C1938.8 1073.8 1930.49 1064.02 1922.37 1057.37C1914.24 1050.72 1907.04 1047.4 1900.76 1047.4C1900.02 1047.4 1899.65 1046.29 1899.65 1044.07C1899.65 1041.86 1900.02 1040.75 1900.76 1040.75C1906.3 1040.75 1912.03 1040.94 1917.93 1041.3C1923.84 1041.67 1929.57 1041.86 1935.11 1041.86C1948.03 1041.86 1959.48 1041.67 1969.46 1041.3C1979.43 1040.94 1988.47 1040.75 1996.6 1040.75C1997.34 1040.75 1997.71 1041.86 1997.71 1044.07C1997.71 1046.29 1997.34 1047.4 1996.6 1047.4C1989.21 1047.4 1984.6 1049.06 1982.75 1052.38C1980.9 1055.34 1982.75 1060.88 1988.29 1069L2080.8 1208.61C2090.41 1223.01 2099.64 1233.17 2108.5 1239.08C2117.74 1244.98 2125.68 1247.94 2132.32 1247.94C2133.43 1247.94 2133.99 1249.05 2133.99 1251.26C2133.99 1253.48 2133.43 1254.59 2132.32 1254.59C2126.42 1254.59 2119.95 1254.4 2112.94 1254.03C2105.92 1253.66 2099.46 1253.48 2093.55 1253.48C2080.62 1253.48 2069.17 1253.66 2059.2 1254.03C2049.23 1254.4 2040.18 1254.59 2032.05 1254.59ZM1896.33 1254.59C1895.22 1254.59 1894.67 1253.48 1894.67 1251.26C1894.67 1249.05 1895.22 1247.94 1896.33 1247.94C1907.41 1247.94 1919.04 1243.69 1931.23 1235.2C1943.42 1226.7 1954.87 1215.07 1965.58 1200.3L2004.91 1146.01L2012.67 1153.21L1977.76 1203.62C1971.86 1212.85 1968.16 1220.98 1966.69 1228C1965.21 1234.64 1966.5 1239.63 1970.56 1242.95C1974.99 1246.28 1982.38 1247.94 1992.72 1247.94C1993.83 1247.94 1994.38 1249.05 1994.38 1251.26C1994.38 1253.48 1993.83 1254.59 1992.72 1254.59C1984.23 1254.59 1975.92 1254.4 1967.79 1254.03C1960.04 1253.66 1949.88 1253.48 1937.32 1253.48C1928.46 1253.48 1921.26 1253.66 1915.72 1254.03C1910.55 1254.4 1904.09 1254.59 1896.33 1254.59ZM2015.44 1148.22L2008.79 1141.57L2042.58 1091.72C2052.55 1077.31 2056.61 1066.42 2054.77 1059.03C2052.92 1051.28 2043.87 1047.4 2027.62 1047.4C2026.88 1047.4 2026.51 1046.29 2026.51 1044.07C2026.51 1041.86 2026.88 1040.75 2027.62 1040.75C2036.49 1040.75 2044.8 1040.94 2052.55 1041.3C2060.68 1041.67 2071.02 1041.86 2083.57 1041.86C2092.44 1041.86 2099.46 1041.67 2104.63 1041.3C2110.17 1040.94 2116.81 1040.75 2124.57 1040.75C2125.68 1040.75 2126.23 1041.86 2126.23 1044.07C2126.23 1046.29 2125.68 1047.4 2124.57 1047.4C2113.86 1047.4 2102.41 1051.65 2090.22 1060.14C2078.03 1068.26 2066.4 1079.9 2055.32 1095.04L2015.44 1148.22ZM2498.4 902.26C2514.28 902.26 2531.27 903.73 2549.36 906.69C2567.46 909.27 2581.86 913.34 2592.57 918.88C2595.9 919.98 2597.93 921.46 2598.67 923.31C2599.78 924.78 2600.51 927.55 2600.88 931.62L2607.53 1003.63C2607.53 1004.37 2606.61 1005.11 2604.76 1005.85C2603.28 1006.22 2602.18 1005.67 2601.44 1004.19C2590.73 975.38 2574.48 953.41 2552.69 938.26C2531.27 923.12 2505.97 915.55 2476.79 915.55C2450.57 915.55 2428.23 921.83 2409.76 934.39C2391.66 946.94 2377.63 964.49 2367.66 987.01C2358.06 1009.17 2353.25 1035.03 2353.25 1064.57C2353.25 1090.42 2356.76 1114.61 2363.78 1137.14C2370.8 1159.67 2380.58 1179.43 2393.14 1196.42C2405.7 1213.41 2420.47 1226.7 2437.46 1236.31C2454.45 1245.91 2472.91 1250.71 2492.86 1250.71C2517.23 1250.71 2538.84 1243.32 2557.67 1228.55C2576.88 1213.41 2593.13 1189.77 2606.42 1157.64C2607.16 1156.16 2608.45 1155.79 2610.3 1156.53C2612.15 1156.9 2613.07 1157.46 2613.07 1158.19L2604.76 1229.1C2604.02 1233.54 2603.1 1236.49 2601.99 1237.97C2601.25 1239.08 2599.22 1240.37 2595.9 1241.85C2578.91 1248.49 2561.74 1253.29 2544.38 1256.25C2527.02 1259.57 2510.03 1261.23 2493.41 1261.23C2457.96 1261.23 2427.49 1255.88 2402 1245.17C2376.52 1234.09 2355.84 1219.69 2339.96 1201.96C2324.08 1183.86 2312.26 1164.1 2304.5 1142.68C2297.12 1121.26 2293.42 1100.21 2293.42 1079.53C2293.42 1052.57 2298.96 1028.19 2310.04 1006.4C2321.49 984.61 2336.82 965.96 2356.02 950.45C2375.23 934.94 2397.02 923.12 2421.39 915C2446.14 906.5 2471.81 902.26 2498.4 902.26ZM2812.47 1257.91C2811 1258.65 2809.33 1259.02 2807.49 1259.02C2801.58 1259.02 2795.67 1254.77 2789.76 1246.28C2783.85 1237.78 2780.9 1225.41 2780.9 1209.16V1113.32C2780.9 1097.81 2779.6 1085.25 2777.02 1075.65C2774.8 1066.05 2771.48 1059.03 2767.05 1054.6C2762.62 1050.17 2756.89 1047.95 2749.87 1047.95C2743.23 1047.95 2737.32 1049.8 2732.15 1053.49C2727.35 1056.82 2723.47 1061.62 2720.51 1067.9C2717.93 1074.17 2716.27 1082.11 2715.53 1091.72C2714.79 1100.58 2712.02 1107.41 2707.22 1112.21C2702.79 1117.02 2696.14 1119.42 2687.27 1119.42C2679.15 1119.42 2673.06 1117.57 2668.99 1113.88C2665.3 1110.18 2663.45 1105.2 2663.45 1098.92C2663.45 1091.16 2667.15 1083.59 2674.53 1076.21C2681.92 1068.82 2691.15 1062.17 2702.23 1056.26C2713.31 1049.98 2724.94 1045 2737.13 1041.3C2749.32 1037.61 2760.4 1035.76 2770.37 1035.76C2785.88 1035.76 2798.99 1040.75 2809.7 1050.72C2820.41 1060.32 2825.77 1075.65 2825.77 1096.7V1194.76C2825.77 1206.21 2827.62 1214.88 2831.31 1220.79C2835 1226.7 2840.36 1229.66 2847.37 1229.66C2853.28 1229.66 2859.93 1228 2867.32 1224.67C2869.16 1223.93 2870.46 1224.67 2871.2 1226.89C2871.93 1228.73 2871.38 1230.03 2869.53 1230.77L2812.47 1257.91ZM2698.91 1258.46C2687.46 1258.46 2678.41 1255.33 2671.76 1249.05C2665.11 1242.77 2661.79 1234.46 2661.79 1224.12C2661.79 1211.93 2666.41 1202.88 2675.64 1196.97C2685.24 1191.06 2700.2 1184.79 2720.51 1178.14L2786.44 1155.98L2788.1 1163.73L2741.01 1180.91C2731.78 1184.6 2725.13 1188.66 2721.07 1193.09C2717 1197.16 2714.97 1202.33 2714.97 1208.61C2714.97 1216.36 2717.19 1222.46 2721.62 1226.89C2726.05 1231.32 2731.59 1233.54 2738.24 1233.54C2741.56 1233.54 2745.44 1232.98 2749.87 1231.87C2754.67 1230.77 2759.66 1228.92 2764.83 1226.33L2800.84 1207.5L2801.95 1215.81L2753.75 1241.85C2744.15 1247.02 2734.55 1251.08 2724.94 1254.03C2715.71 1256.99 2707.03 1258.46 2698.91 1258.46ZM2971.98 1261.23C2963.11 1261.23 2954.25 1259.76 2945.38 1256.8C2936.89 1253.85 2929.69 1248.86 2923.78 1241.85C2918.24 1234.83 2915.47 1224.86 2915.47 1211.93V1086.73C2915.47 1078.61 2914.55 1072.33 2912.7 1067.9C2911.22 1063.46 2908.45 1060.51 2904.39 1059.03C2900.33 1057.19 2894.6 1056.26 2887.22 1056.26C2885.74 1056.26 2885 1054.78 2885 1051.83C2885 1048.88 2885.74 1047.4 2887.22 1047.4C2904.58 1046.66 2918.61 1042.6 2929.32 1035.21C2940.4 1027.46 2948.15 1016.56 2952.59 1002.53C2952.96 1001.05 2954.43 1000.31 2957.02 1000.31C2959.6 1000.31 2960.9 1001.05 2960.9 1002.53V1193.65C2960.9 1208.79 2964.59 1219.69 2971.98 1226.33C2979.73 1232.98 2989.7 1236.31 3001.89 1236.31C3010.75 1236.31 3018.88 1234.64 3026.27 1231.32C3034.02 1227.63 3040.48 1223.75 3045.66 1219.69C3046.76 1218.95 3048.06 1219.5 3049.53 1221.35C3051.01 1222.83 3051.01 1224.12 3049.53 1225.23C3035.87 1237.78 3022.94 1247.02 3010.75 1252.92C2998.94 1258.46 2986.01 1261.23 2971.98 1261.23ZM3032.36 1068.45C3017.59 1065.13 3003.18 1062.91 2989.15 1061.8C2975.48 1060.32 2960.71 1059.59 2944.83 1059.59V1046.29C2959.97 1046.29 2974.56 1045.74 2988.6 1044.63C3003 1043.52 3018.33 1042.23 3034.58 1040.75C3035.31 1040.75 3036.05 1042.04 3036.79 1044.63C3037.9 1047.21 3038.45 1050.35 3038.45 1054.05C3038.45 1057.37 3037.71 1060.69 3036.24 1064.02C3035.13 1067.34 3033.84 1068.82 3032.36 1068.45ZM3068.87 1254.59C3067.77 1254.59 3067.21 1253.48 3067.21 1251.26C3067.21 1249.05 3067.77 1247.94 3068.87 1247.94C3081.06 1247.94 3089.37 1245.35 3093.8 1240.18C3098.24 1235.01 3100.45 1224.86 3100.45 1209.71V926.63C3100.45 913.7 3099.16 904.47 3096.57 898.93C3094.36 893.02 3090.11 890.07 3083.83 890.07C3078.29 890.07 3070.72 892.28 3061.12 896.72C3060.01 897.09 3058.9 896.35 3057.8 894.5C3056.69 892.28 3056.69 890.81 3057.8 890.07L3134.8 853.51C3135.54 853.14 3135.91 852.95 3135.91 852.95C3136.28 852.95 3136.64 852.95 3137.01 852.95C3138.86 852.95 3140.52 853.69 3142 855.17C3143.85 856.64 3144.77 857.94 3144.77 859.05V1209.71C3144.77 1224.86 3146.8 1235.01 3150.86 1240.18C3155.3 1245.35 3163.79 1247.94 3176.35 1247.94C3177.82 1247.94 3178.56 1249.05 3178.56 1251.26C3178.56 1253.48 3177.82 1254.59 3176.35 1254.59C3169.33 1254.59 3161.2 1254.4 3151.97 1254.03C3143.11 1253.66 3133.32 1253.48 3122.61 1253.48C3112.27 1253.48 3102.48 1253.66 3093.25 1254.03C3084.02 1254.4 3075.89 1254.59 3068.87 1254.59ZM3217.9 1254.59C3216.79 1254.59 3216.23 1253.48 3216.23 1251.26C3216.23 1249.05 3216.79 1247.94 3217.9 1247.94C3230.08 1247.94 3238.39 1245.35 3242.82 1240.18C3247.26 1235.01 3249.47 1224.86 3249.47 1209.71V1127.17C3249.47 1086.55 3233.59 1066.23 3201.83 1066.23C3190.01 1066.23 3177.82 1069.56 3165.27 1076.21C3152.71 1082.85 3142.55 1091.9 3134.8 1103.35L3132.03 1096.7C3146.06 1076.76 3161.2 1061.43 3177.45 1050.72C3193.7 1040.01 3211.06 1034.66 3229.53 1034.66C3249.84 1034.66 3265.54 1040.94 3276.62 1053.49C3288.07 1065.68 3293.79 1082.11 3293.79 1102.8V1209.71C3293.79 1224.86 3295.82 1235.01 3299.88 1240.18C3304.32 1245.35 3312.81 1247.94 3325.37 1247.94C3326.84 1247.94 3327.58 1249.05 3327.58 1251.26C3327.58 1253.48 3326.84 1254.59 3325.37 1254.59C3318.35 1254.59 3310.23 1254.4 3300.99 1254.03C3292.13 1253.66 3282.34 1253.48 3271.63 1253.48C3261.29 1253.48 3251.5 1253.66 3242.27 1254.03C3233.04 1254.4 3224.91 1254.59 3217.9 1254.59ZM3463.8 1261.23C3440.16 1261.23 3420.22 1256.25 3403.97 1246.28C3387.72 1236.31 3375.35 1223.19 3366.85 1206.94C3358.36 1190.33 3354.11 1172.78 3354.11 1154.32C3354.11 1132.53 3359.46 1112.77 3370.17 1095.04C3381.25 1076.94 3396.03 1062.54 3414.49 1051.83C3433.33 1041.12 3454.56 1035.76 3478.2 1035.76C3499.99 1035.76 3516.79 1040.75 3528.61 1050.72C3540.43 1060.32 3546.34 1073.62 3546.34 1090.61C3546.34 1094.67 3545.97 1098.18 3545.23 1101.13C3544.49 1104.09 3542.83 1105.57 3540.25 1105.57H3494.27C3495.37 1087.84 3492.97 1073.62 3487.06 1062.91C3481.16 1052.2 3471.55 1046.84 3458.26 1046.84C3441.64 1046.84 3428.34 1054.6 3418.37 1070.11C3408.4 1085.25 3403.41 1105.75 3403.41 1131.6C3403.41 1152.65 3406.74 1171.12 3413.38 1187C3420.4 1202.51 3430.19 1214.7 3442.75 1223.56C3455.67 1232.43 3471 1236.86 3488.73 1236.86C3497.96 1236.86 3507.56 1235.57 3517.53 1232.98C3527.5 1230.03 3536.74 1225.78 3545.23 1220.24C3545.97 1219.5 3546.89 1219.87 3548 1221.35C3549.48 1222.83 3549.85 1224.12 3549.11 1225.23C3535.81 1238.15 3522.15 1247.38 3508.12 1252.92C3494.08 1258.46 3479.31 1261.23 3463.8 1261.23ZM3387.35 1106.67L3386.79 1097.26L3509.78 1094.49V1105.57L3387.35 1106.67ZM3667.22 1261.79C3651.71 1261.79 3637.31 1257.54 3624.01 1249.05C3610.71 1240.18 3600 1227.81 3591.88 1211.93C3584.12 1196.05 3580.25 1176.84 3580.25 1154.32C3580.25 1132.53 3584.31 1114.06 3592.43 1098.92C3600.56 1083.41 3610.9 1070.85 3623.46 1061.25C3636.38 1051.65 3650.23 1044.63 3665 1040.2C3679.78 1035.76 3693.81 1033.55 3707.11 1033.55C3720.4 1033.55 3732.77 1035.4 3744.22 1039.09C3755.67 1042.78 3766.01 1047.58 3775.25 1053.49L3764.72 1095.59C3756.6 1079.71 3747.18 1067.71 3736.47 1059.59C3726.13 1051.09 3712.83 1046.84 3696.58 1046.84C3676.27 1046.84 3660.02 1054.05 3647.83 1068.45C3636.01 1082.48 3630.1 1105.38 3630.1 1137.14C3630.1 1158.19 3632.87 1176.29 3638.41 1191.43C3643.95 1206.21 3651.71 1217.65 3661.68 1225.78C3671.65 1233.54 3682.73 1237.41 3694.92 1237.41C3710.06 1237.41 3723.54 1233.17 3735.36 1224.67C3747.18 1216.18 3758.44 1206.02 3769.15 1194.2L3774.14 1198.63C3766.38 1207.5 3757.15 1216.92 3746.44 1226.89C3736.1 1236.49 3724.28 1244.8 3710.98 1251.82C3698.06 1258.46 3683.47 1261.79 3667.22 1261.79ZM3798.51 859.05V1191.43C3798.51 1204.36 3799.81 1213.59 3802.39 1219.13C3804.98 1224.3 3809.41 1226.89 3815.69 1226.89C3818.64 1226.89 3822.15 1226.33 3826.21 1225.23C3830.64 1224.12 3835.45 1222.46 3840.62 1220.24C3841.72 1219.5 3842.83 1220.24 3843.94 1222.46C3845.05 1224.3 3845.05 1225.6 3843.94 1226.33L3773.03 1260.68C3771.92 1261.05 3770.81 1261.23 3769.71 1261.23C3765.64 1261.23 3761.95 1256.8 3758.63 1247.94C3755.3 1239.08 3753.64 1226.15 3753.64 1209.16V926.63C3753.64 914.07 3752.53 904.84 3750.32 898.93C3748.1 893.02 3743.67 890.07 3737.02 890.07C3734.07 890.07 3730.74 890.81 3727.05 892.28C3723.36 893.39 3719.29 894.87 3714.86 896.72C3713.38 897.45 3712.09 896.72 3710.98 894.5C3709.88 892.28 3709.88 890.99 3710.98 890.62L3788.54 853.51C3789.28 853.14 3790.02 852.95 3790.76 852.95C3792.23 852.95 3793.9 853.69 3795.74 855.17C3797.59 856.64 3798.51 857.94 3798.51 859.05ZM3930.77 1104.46L3926.89 1097.81C3940.93 1081.19 3952.75 1068.45 3962.35 1059.59C3972.32 1050.35 3980.63 1044.07 3987.28 1040.75C3993.92 1037.06 4000.2 1035.21 4006.11 1035.21C4013.87 1035.21 4021.62 1037.98 4029.38 1043.52C4037.5 1048.69 4041.57 1055.34 4041.57 1063.46C4041.57 1070.11 4039.54 1075.65 4035.47 1080.08C4031.41 1084.51 4025.69 1086.73 4018.3 1086.73C4011.65 1086.73 4006.48 1084.88 4002.79 1081.19C3999.1 1077.5 3995.59 1073.99 3992.26 1070.67C3988.94 1067.34 3984.32 1065.68 3978.41 1065.68C3975.46 1065.68 3972.32 1066.6 3969 1068.45C3965.67 1069.93 3961.06 1073.44 3955.15 1078.98C3949.24 1084.51 3941.11 1093.01 3930.77 1104.46ZM3867.62 1254.59C3866.51 1254.59 3865.96 1253.48 3865.96 1251.26C3865.96 1249.05 3866.51 1247.94 3867.62 1247.94C3880.17 1247.94 3888.48 1245.35 3892.55 1240.18C3896.61 1235.01 3898.64 1224.86 3898.64 1209.71V1103.9C3898.64 1092.09 3897.35 1083.41 3894.76 1077.87C3892.18 1072.33 3887.56 1069.56 3880.91 1069.56C3877.59 1069.56 3873.53 1070.3 3868.73 1071.77C3863.92 1073.25 3858.75 1075.28 3853.21 1077.87C3851.74 1078.24 3850.44 1077.5 3849.34 1075.65C3848.6 1073.44 3848.78 1072.14 3849.89 1071.77L3922.46 1036.32C3924.31 1035.58 3925.6 1035.21 3926.34 1035.21C3930.03 1035.21 3933.73 1039.46 3937.42 1047.95C3941.48 1056.45 3943.51 1068.82 3943.51 1085.07V1209.71C3943.51 1219.69 3944.99 1227.63 3947.94 1233.54C3950.9 1239.08 3956.07 1242.95 3963.46 1245.17C3970.84 1247.02 3981.18 1247.94 3994.48 1247.94C3995.96 1247.94 3996.69 1249.05 3996.69 1251.26C3996.69 1253.48 3995.96 1254.59 3994.48 1254.59C3984.88 1254.59 3973.8 1254.4 3961.24 1254.03C3949.05 1253.66 3935.76 1253.48 3921.35 1253.48C3911.38 1253.48 3901.6 1253.66 3891.99 1254.03C3882.76 1254.4 3874.63 1254.59 3867.62 1254.59ZM4220.14 1257.91C4218.67 1258.65 4217 1259.02 4215.16 1259.02C4209.25 1259.02 4203.34 1254.77 4197.43 1246.28C4191.52 1237.78 4188.57 1225.41 4188.57 1209.16V1113.32C4188.57 1097.81 4187.27 1085.25 4184.69 1075.65C4182.47 1066.05 4179.15 1059.03 4174.72 1054.6C4170.29 1050.17 4164.56 1047.95 4157.54 1047.95C4150.9 1047.95 4144.99 1049.8 4139.82 1053.49C4135.02 1056.82 4131.14 1061.62 4128.18 1067.9C4125.6 1074.17 4123.94 1082.11 4123.2 1091.72C4122.46 1100.58 4119.69 1107.41 4114.89 1112.21C4110.46 1117.02 4103.81 1119.42 4094.94 1119.42C4086.82 1119.42 4080.73 1117.57 4076.66 1113.88C4072.97 1110.18 4071.12 1105.2 4071.12 1098.92C4071.12 1091.16 4074.82 1083.59 4082.2 1076.21C4089.59 1068.82 4098.82 1062.17 4109.9 1056.26C4120.98 1049.98 4132.61 1045 4144.8 1041.3C4156.99 1037.61 4168.07 1035.76 4178.04 1035.76C4193.55 1035.76 4206.66 1040.75 4217.37 1050.72C4228.08 1060.32 4233.44 1075.65 4233.44 1096.7V1194.76C4233.44 1206.21 4235.29 1214.88 4238.98 1220.79C4242.67 1226.7 4248.03 1229.66 4255.04 1229.66C4260.95 1229.66 4267.6 1228 4274.99 1224.67C4276.83 1223.93 4278.13 1224.67 4278.87 1226.89C4279.6 1228.73 4279.05 1230.03 4277.2 1230.77L4220.14 1257.91ZM4106.58 1258.46C4095.13 1258.46 4086.08 1255.33 4079.43 1249.05C4072.78 1242.77 4069.46 1234.46 4069.46 1224.12C4069.46 1211.93 4074.08 1202.88 4083.31 1196.97C4092.91 1191.06 4107.87 1184.79 4128.18 1178.14L4194.11 1155.98L4195.77 1163.73L4148.68 1180.91C4139.45 1184.6 4132.8 1188.66 4128.74 1193.09C4124.67 1197.16 4122.64 1202.33 4122.64 1208.61C4122.64 1216.36 4124.86 1222.46 4129.29 1226.89C4133.72 1231.32 4139.26 1233.54 4145.91 1233.54C4149.23 1233.54 4153.11 1232.98 4157.54 1231.87C4162.34 1230.77 4167.33 1228.92 4172.5 1226.33L4208.51 1207.5L4209.62 1215.81L4161.42 1241.85C4151.82 1247.02 4142.22 1251.08 4132.61 1254.03C4123.38 1256.99 4114.7 1258.46 4106.58 1258.46ZM4297.66 1254.59C4296.55 1254.59 4296 1253.48 4296 1251.26C4296 1249.05 4296.55 1247.94 4297.66 1247.94C4309.84 1247.94 4318.15 1245.35 4322.59 1240.18C4327.02 1235.01 4329.23 1224.86 4329.23 1209.71V926.63C4329.23 913.7 4328.13 904.47 4325.91 898.93C4323.69 893.02 4319.45 890.07 4313.17 890.07C4308 890.07 4300.43 892.28 4290.46 896.72C4289.35 897.09 4288.24 896.16 4287.13 893.95C4286.02 891.73 4285.84 890.44 4286.58 890.07L4364.69 853.51C4365.43 853.14 4366.17 852.95 4366.9 852.95C4368.38 852.95 4370.04 853.69 4371.89 855.17C4373.74 856.64 4374.66 857.94 4374.66 859.05V1209.71C4374.66 1224.86 4376.69 1235.01 4380.75 1240.18C4385.19 1245.35 4393.68 1247.94 4406.24 1247.94C4407.35 1247.94 4407.9 1249.05 4407.9 1251.26C4407.9 1253.48 4407.35 1254.59 4406.24 1254.59C4399.22 1254.59 4390.91 1254.4 4381.31 1254.03C4372.08 1253.66 4362.29 1253.48 4351.95 1253.48C4341.61 1253.48 4331.63 1253.66 4322.03 1254.03C4312.8 1254.4 4304.67 1254.59 4297.66 1254.59Z" fill="#4C4951"/>
<path d="M220.376 627.069C220.376 646.582 222.652 661.542 227.205 671.949C231.758 681.706 241.19 688.536 255.499 692.438C270.459 696.341 292.574 698.292 321.844 698.292C323.795 698.292 324.771 700.243 324.771 704.146C324.771 708.049 323.795 710 321.844 710C301.03 710 278.265 709.675 253.548 709.024C229.482 708.374 203.139 708.049 174.52 708.049C151.755 708.049 129.965 708.374 109.151 709.024C88.3368 709.675 69.7996 710 53.5387 710C51.5874 710 50.6118 708.049 50.6118 704.146C50.6118 700.243 51.5874 698.292 53.5387 698.292C75.0028 698.292 90.9388 696.666 101.346 693.414C111.753 690.162 118.583 683.657 121.835 673.901C125.737 664.144 127.689 649.835 127.689 630.972V179.244C127.689 160.381 125.737 146.397 121.835 137.291C118.583 127.534 111.753 121.03 101.346 117.778C90.9388 113.875 75.0028 111.924 53.5387 111.924C51.5874 111.924 50.6118 109.972 50.6118 106.07C50.6118 102.167 51.5874 100.216 53.5387 100.216C69.7996 100.216 88.0118 100.866 108.176 102.167C128.99 102.818 150.779 103.143 173.544 103.143C189.155 103.143 209.318 102.167 234.035 100.216C259.402 98.2649 283.793 97.2889 307.209 97.2889C346.886 97.2889 382.009 102.818 412.58 113.875C443.801 124.282 468.517 141.193 486.73 164.609C504.942 188.025 514.698 218.921 515.999 257.296C516.65 291.119 510.796 320.389 498.437 345.105C486.079 369.822 469.168 390.311 447.703 406.571C426.889 422.182 403.799 434.215 378.432 442.671C353.065 450.476 327.698 454.379 302.331 454.379C295.176 454.379 287.371 454.053 278.915 453.403C271.11 452.752 263.305 451.452 255.499 449.5C253.548 448.85 252.898 446.573 253.548 442.671C254.199 438.118 255.825 436.166 258.426 436.817C263.63 438.118 269.484 439.093 275.988 439.744C282.493 440.394 288.021 440.719 292.574 440.719C314.039 440.719 333.877 434.865 352.089 423.158C370.301 411.45 384.936 393.563 395.994 369.497C407.702 345.43 413.555 315.185 413.555 278.761C413.555 244.288 408.027 215.018 396.969 190.952C385.912 166.886 370.301 148.673 350.138 136.315C330.625 123.306 306.559 116.802 277.939 116.802C262.979 116.802 251.272 118.428 242.816 121.68C234.36 124.282 228.506 130.136 225.254 139.242C222.002 148.348 220.376 162.333 220.376 181.195V627.069ZM755.416 721.708C713.788 721.708 678.664 712.927 650.045 695.365C621.426 677.803 599.636 654.713 584.676 626.094C569.716 596.824 562.236 565.928 562.236 533.407C562.236 495.031 571.667 460.232 590.53 429.011C610.043 397.14 636.061 371.773 668.582 352.91C701.755 334.048 739.155 324.616 780.783 324.616C819.158 324.616 848.753 333.397 869.567 350.959C890.381 367.87 900.788 391.286 900.788 421.206C900.788 428.361 900.138 434.54 898.837 439.744C897.536 444.947 894.609 447.549 890.056 447.549H809.077C811.028 416.328 806.8 391.286 796.393 372.424C785.986 353.561 769.075 344.13 745.659 344.13C716.389 344.13 692.974 357.789 675.412 385.107C657.85 411.775 649.069 447.874 649.069 493.405C649.069 530.48 654.923 563.001 666.631 590.97C678.989 618.288 696.226 639.753 718.341 655.363C741.106 670.974 768.099 678.779 799.32 678.779C815.581 678.779 832.492 676.503 850.054 671.949C867.616 666.746 883.877 659.266 898.837 649.509C900.138 648.209 901.764 648.859 903.715 651.461C906.317 654.062 906.967 656.339 905.666 658.29C882.251 681.056 858.185 697.316 833.468 707.073C808.751 716.83 782.734 721.708 755.416 721.708ZM620.775 449.5L619.8 432.914L836.395 428.036V447.549L620.775 449.5ZM1114.52 721.708C1098.91 721.708 1083.3 719.106 1067.69 713.903C1052.73 708.699 1040.04 699.918 1029.64 687.56C1019.88 675.202 1015 657.64 1015 634.875V414.377C1015 400.067 1013.37 389.01 1010.12 381.204C1007.52 373.399 1002.64 368.196 995.49 365.594C988.33 362.342 978.25 360.716 965.242 360.716C962.641 360.716 961.34 358.114 961.34 352.91C961.34 347.707 962.641 345.105 965.242 345.105C995.81 343.804 1020.53 336.65 1039.39 323.641C1058.91 309.982 1072.56 290.794 1080.37 266.077C1081.02 263.475 1083.62 262.175 1088.17 262.175C1092.73 262.175 1095 263.475 1095 266.077V602.678C1095 629.346 1101.51 648.534 1114.52 660.242C1128.18 671.949 1145.74 677.803 1167.2 677.803C1182.81 677.803 1197.12 674.876 1210.13 669.023C1223.79 662.518 1235.17 655.689 1244.28 648.534C1246.23 647.233 1248.51 648.209 1251.11 651.461C1253.71 654.062 1253.71 656.339 1251.11 658.29C1227.04 680.405 1204.28 696.666 1182.81 707.073C1162 716.83 1139.23 721.708 1114.52 721.708ZM1220.86 382.18C1194.85 376.326 1169.48 372.424 1144.76 370.472C1120.7 367.87 1094.68 366.57 1066.71 366.57V343.154C1093.38 343.154 1119.07 342.178 1143.79 340.227C1169.15 338.276 1196.15 335.999 1224.77 333.397C1226.07 333.397 1227.37 335.674 1228.67 340.227C1230.62 344.78 1231.6 350.309 1231.6 356.813C1231.6 362.667 1230.3 368.521 1227.69 374.375C1225.74 380.229 1223.47 382.831 1220.86 382.18ZM1488.11 721.708C1446.48 721.708 1411.36 712.927 1382.74 695.365C1354.12 677.803 1332.33 654.713 1317.37 626.094C1302.41 596.824 1294.93 565.928 1294.93 533.407C1294.93 495.031 1304.36 460.232 1323.22 429.011C1342.74 397.14 1368.75 371.773 1401.28 352.91C1434.45 334.048 1471.85 324.616 1513.48 324.616C1551.85 324.616 1581.45 333.397 1602.26 350.959C1623.07 367.87 1633.48 391.286 1633.48 421.206C1633.48 428.361 1632.83 434.54 1631.53 439.744C1630.23 444.947 1627.3 447.549 1622.75 447.549H1541.77C1543.72 416.328 1539.49 391.286 1529.09 372.424C1518.68 353.561 1501.77 344.13 1478.35 344.13C1449.08 344.13 1425.67 357.789 1408.11 385.107C1390.54 411.775 1381.76 447.874 1381.76 493.405C1381.76 530.48 1387.62 563.001 1399.32 590.97C1411.68 618.288 1428.92 639.753 1451.03 655.363C1473.8 670.974 1500.79 678.779 1532.01 678.779C1548.27 678.779 1565.19 676.503 1582.75 671.949C1600.31 666.746 1616.57 659.266 1631.53 649.509C1632.83 648.209 1634.46 648.859 1636.41 651.461C1639.01 654.062 1639.66 656.339 1638.36 658.29C1614.94 681.056 1590.88 697.316 1566.16 707.073C1541.45 716.83 1515.43 721.708 1488.11 721.708ZM1353.47 449.5L1352.49 432.914L1569.09 428.036V447.549L1353.47 449.5ZM1817.94 445.598L1811.11 433.89C1835.83 404.62 1856.64 382.18 1873.55 366.57C1891.12 350.309 1905.75 339.251 1917.46 333.397C1929.17 326.893 1940.22 323.641 1950.63 323.641C1964.29 323.641 1977.95 328.519 1991.61 338.276C2005.92 347.382 2013.07 359.09 2013.07 373.399C2013.07 385.107 2009.49 394.864 2002.34 402.669C1995.19 410.474 1985.1 414.377 1972.09 414.377C1960.39 414.377 1951.28 411.125 1944.78 404.62C1938.27 398.116 1932.09 391.937 1926.24 386.083C1920.39 380.229 1912.25 377.302 1901.85 377.302C1896.64 377.302 1891.12 378.928 1885.26 382.18C1879.41 384.782 1871.28 390.961 1860.87 400.718C1850.46 410.474 1836.15 425.434 1817.94 445.598ZM1706.72 710C1704.77 710 1703.79 708.049 1703.79 704.146C1703.79 700.243 1704.77 698.292 1706.72 698.292C1728.83 698.292 1743.47 693.739 1750.62 684.633C1757.78 675.527 1761.35 657.64 1761.35 630.972V444.622C1761.35 423.808 1759.08 408.523 1754.52 398.766C1749.97 389.01 1741.84 384.131 1730.13 384.131C1724.28 384.131 1717.12 385.432 1708.67 388.034C1700.21 390.636 1691.11 394.213 1681.35 398.766C1678.75 399.417 1676.47 398.116 1674.52 394.864C1673.22 390.961 1673.54 388.684 1675.5 388.034L1803.31 325.592C1806.56 324.291 1808.84 323.641 1810.14 323.641C1816.64 323.641 1823.14 331.121 1829.65 346.081C1836.8 361.041 1840.38 382.831 1840.38 411.45V630.972C1840.38 648.534 1842.98 662.518 1848.19 672.925C1853.39 682.682 1862.5 689.511 1875.51 693.414C1888.51 696.666 1906.73 698.292 1930.14 698.292C1932.74 698.292 1934.04 700.243 1934.04 704.146C1934.04 708.049 1932.74 710 1930.14 710C1913.23 710 1893.72 709.675 1871.6 709.024C1850.14 708.374 1826.72 708.049 1801.36 708.049C1783.79 708.049 1766.56 708.374 1749.65 709.024C1733.38 709.675 1719.08 710 1706.72 710ZM2291.73 719.972C2257.39 719.972 2226.64 713.324 2199.49 700.028C2172.35 686.178 2149.63 667.896 2131.35 645.182C2113.62 621.915 2101.44 595.877 2094.79 567.069C2088.14 538.261 2088.14 508.899 2094.79 478.984C2101.44 448.514 2113.9 421.645 2132.18 398.377C2150.46 375.109 2172.9 356.828 2199.49 343.532C2226.09 330.236 2253.78 323.588 2282.59 323.588C2297 323.588 2310.85 325.25 2324.14 328.574C2337.44 331.898 2349.35 337.715 2359.88 346.025L2299.21 403.363C2292.01 380.649 2282.59 365.692 2270.96 358.49C2259.32 351.288 2248.52 347.687 2238.55 347.687C2224.7 347.687 2212.51 352.673 2201.99 362.645C2192.01 372.062 2183.43 384.804 2176.23 400.87C2169.58 416.382 2164.59 433.556 2161.27 452.392C2155.73 486.74 2156.28 517.763 2162.93 545.463C2170.13 573.163 2181.49 596.985 2197 616.929C2212.51 636.319 2231.07 651.276 2252.68 661.802C2274.28 672.328 2297.27 677.591 2321.65 677.591C2353.78 677.591 2383.42 668.727 2410.57 650.999C2437.71 633.272 2459.87 607.788 2477.05 574.548C2494.22 541.308 2503.64 500.867 2505.3 453.223L2522.75 458.209C2518.32 515.824 2505.58 564.299 2484.52 603.633C2464.03 642.412 2437.16 671.497 2403.92 690.887C2370.68 710.277 2333.28 719.972 2291.73 719.972ZM2133.84 550.449L2123.04 539.646C2141.32 524.134 2162.1 507.237 2185.37 488.956C2209.19 470.12 2233.29 450.453 2257.66 429.955C2282.04 409.457 2304.48 388.959 2324.97 368.461C2346.03 347.964 2362.92 328.02 2375.66 308.63C2388.96 289.24 2395.61 271.235 2395.61 254.615C2395.61 243.535 2393.39 235.225 2388.96 229.686C2384.53 224.146 2379.54 219.714 2374 216.39C2369.02 213.066 2364.31 208.911 2359.88 203.925C2355.44 198.939 2353.23 191.46 2353.23 181.488C2353.23 170.408 2356.55 161.544 2363.2 154.896C2369.85 147.694 2378.43 144.093 2388.96 144.093C2404.47 144.093 2416.11 150.464 2423.86 163.206C2431.62 175.394 2435.5 191.183 2435.5 210.573C2435.5 236.056 2429.12 260.986 2416.38 285.362C2404.19 309.184 2387.57 332.452 2366.52 355.166C2345.47 377.879 2321.65 400.316 2295.06 422.476C2269.02 444.636 2242.15 466.242 2214.45 487.294C2186.75 508.345 2159.88 529.397 2133.84 550.449ZM2355.72 529.674C2348.52 529.674 2342.15 527.458 2336.61 523.026C2331.07 518.594 2328.3 510.561 2328.3 498.928C2328.3 482.862 2333.56 467.627 2344.09 453.223C2354.61 438.265 2368.19 426.077 2384.8 416.659C2401.42 407.241 2418.6 402.532 2436.33 402.532C2451.28 402.532 2466.8 405.856 2482.86 412.504C2498.93 418.598 2514.72 425.8 2530.23 434.11C2546.29 442.42 2561.53 449.899 2575.93 456.547C2590.34 462.641 2603.63 465.688 2615.82 465.688C2623.58 465.688 2629.67 464.303 2634.1 461.533C2638.54 458.763 2640.75 455.162 2640.75 450.73C2640.75 445.19 2638.81 440.758 2634.93 437.434C2631.06 433.556 2627.18 429.124 2623.3 424.138C2619.42 419.152 2617.48 413.058 2617.48 405.856C2617.48 399.208 2619.7 393.945 2624.13 390.067C2629.12 386.189 2635.77 384.25 2644.08 384.25C2651.28 384.25 2657.37 386.189 2662.36 390.067C2667.9 393.945 2670.67 401.978 2670.67 414.166C2670.67 429.124 2666.23 444.082 2657.37 459.04C2648.51 473.998 2636.87 486.463 2622.47 496.435C2608.07 506.406 2592.55 511.392 2575.93 511.392C2560.98 511.392 2545.46 508.068 2529.4 501.421C2513.89 494.219 2497.82 486.186 2481.2 477.322C2465.13 467.904 2449.07 459.871 2433 453.223C2417.49 446.575 2402.81 443.251 2388.96 443.251C2380.1 443.251 2373.45 444.913 2369.02 448.237C2364.58 451.561 2362.37 455.716 2362.37 460.702C2362.37 466.242 2363.75 471.505 2366.52 476.491C2369.85 480.923 2372.89 485.632 2375.66 490.618C2378.99 495.05 2380.65 500.036 2380.65 505.575C2380.65 510.561 2378.71 515.824 2374.83 521.364C2371.51 526.904 2365.14 529.674 2355.72 529.674ZM2865.93 627.069C2865.93 646.582 2868.21 661.542 2872.76 671.949C2877.31 681.706 2886.74 688.536 2901.05 692.438C2916.01 696.341 2938.13 698.292 2967.4 698.292C2969.35 698.292 2970.32 700.243 2970.32 704.146C2970.32 708.049 2969.35 710 2967.4 710C2946.58 710 2923.82 709.675 2899.1 709.024C2875.04 708.374 2848.69 708.049 2820.07 708.049C2797.31 708.049 2775.52 708.374 2754.7 709.024C2733.89 709.675 2715.35 710 2699.09 710C2697.14 710 2696.17 708.049 2696.17 704.146C2696.17 700.243 2697.14 698.292 2699.09 698.292C2720.56 698.292 2736.49 696.666 2746.9 693.414C2757.31 690.162 2764.14 683.657 2767.39 673.901C2771.29 664.144 2773.24 649.835 2773.24 630.972V179.244C2773.24 160.381 2771.29 146.397 2767.39 137.291C2764.14 127.534 2757.31 121.03 2746.9 117.778C2736.49 113.875 2720.56 111.924 2699.09 111.924C2697.14 111.924 2696.17 109.972 2696.17 106.07C2696.17 102.167 2697.14 100.216 2699.09 100.216C2715.35 100.216 2733.57 100.866 2753.73 102.167C2774.54 102.818 2796.33 103.143 2819.1 103.143C2834.71 103.143 2854.87 102.167 2879.59 100.216C2904.96 98.2649 2929.35 97.2889 2952.76 97.2889C2992.44 97.2889 3027.56 102.818 3058.13 113.875C3089.35 124.282 3114.07 141.193 3132.28 164.609C3150.5 188.025 3160.25 218.921 3161.55 257.296C3162.2 291.119 3156.35 320.389 3143.99 345.105C3131.63 369.822 3114.72 390.311 3093.26 406.571C3072.44 422.182 3049.35 434.215 3023.99 442.671C2998.62 450.476 2973.25 454.379 2947.88 454.379C2940.73 454.379 2932.92 454.053 2924.47 453.403C2916.66 452.752 2908.86 451.452 2901.05 449.5C2899.1 448.85 2898.45 446.573 2899.1 442.671C2899.75 438.118 2901.38 436.166 2903.98 436.817C2909.18 438.118 2915.04 439.093 2921.54 439.744C2928.05 440.394 2933.57 440.719 2938.13 440.719C2959.59 440.719 2979.43 434.865 2997.64 423.158C3015.85 411.45 3030.49 393.563 3041.55 369.497C3053.25 345.43 3059.11 315.185 3059.11 278.761C3059.11 244.288 3053.58 215.018 3042.52 190.952C3031.47 166.886 3015.85 148.673 2995.69 136.315C2976.18 123.306 2952.11 116.802 2923.49 116.802C2908.53 116.802 2896.83 118.428 2888.37 121.68C2879.91 124.282 2874.06 130.136 2870.81 139.242C2867.56 148.348 2865.93 162.333 2865.93 181.195V627.069ZM3479.16 715.854C3476.56 717.155 3473.63 717.805 3470.38 717.805C3459.97 717.805 3449.56 710.325 3439.16 695.365C3428.75 680.405 3423.55 658.616 3423.55 629.996V461.208C3423.55 433.89 3421.27 411.775 3416.72 394.864C3412.81 377.952 3406.96 365.594 3399.16 357.789C3391.35 349.983 3381.27 346.081 3368.91 346.081C3357.2 346.081 3346.79 349.333 3337.69 355.837C3329.23 361.691 3322.4 370.147 3317.2 381.204C3312.65 392.262 3309.72 406.246 3308.42 423.158C3307.12 438.768 3302.24 450.801 3293.78 459.257C3285.98 467.712 3274.27 471.94 3258.66 471.94C3244.35 471.94 3233.62 468.688 3226.46 462.184C3219.96 455.679 3216.71 446.899 3216.71 435.841C3216.71 422.182 3223.21 408.848 3236.22 395.839C3249.23 382.831 3265.49 371.123 3285 360.716C3304.52 349.658 3325.01 340.877 3346.47 334.373C3367.93 327.869 3387.45 324.616 3405.01 324.616C3432.33 324.616 3455.42 333.397 3474.28 350.959C3493.14 367.87 3502.57 394.864 3502.57 431.938V604.629C3502.57 624.793 3505.83 640.078 3512.33 650.485C3518.84 660.892 3528.27 666.096 3540.62 666.096C3551.03 666.096 3562.74 663.169 3575.75 657.315C3579 656.014 3581.28 657.315 3582.58 661.217C3583.88 664.469 3582.9 666.746 3579.65 668.047L3479.16 715.854ZM3279.15 716.83C3258.99 716.83 3243.05 711.301 3231.34 700.243C3219.63 689.186 3213.78 674.551 3213.78 656.339C3213.78 634.875 3221.91 618.939 3238.17 608.532C3255.08 598.125 3281.43 587.068 3317.2 575.36L3433.3 536.333L3436.23 549.993L3353.3 580.238C3337.04 586.742 3325.33 593.897 3318.18 601.702C3311.02 608.857 3307.44 617.963 3307.44 629.021C3307.44 642.68 3311.35 653.412 3319.15 661.217C3326.96 669.023 3336.71 672.925 3348.42 672.925C3354.27 672.925 3361.1 671.949 3368.91 669.998C3377.37 668.047 3386.15 664.795 3395.25 660.242L3458.67 627.069L3460.62 641.704L3375.74 687.56C3358.83 696.666 3341.92 703.821 3325.01 709.024C3308.74 714.228 3293.46 716.83 3279.15 716.83ZM3763.97 720.732C3729.5 720.732 3702.18 709.675 3682.02 687.56C3662.51 665.445 3652.75 635.85 3652.75 598.775V453.403C3652.75 430.638 3650.15 414.051 3644.94 403.644C3640.39 392.587 3632.91 387.058 3622.5 387.058C3614.7 387.058 3605.59 389.66 3595.19 394.864C3592.58 395.514 3590.31 393.888 3588.36 389.985C3587.05 386.083 3587.38 383.806 3589.33 383.156L3712.26 325.592C3714.22 324.942 3715.84 324.616 3717.14 324.616C3719.74 324.616 3722.67 325.917 3725.92 328.519C3729.18 331.121 3730.8 333.397 3730.8 335.349V556.822C3730.8 593.247 3737.31 620.565 3750.31 638.777C3763.97 656.339 3784.46 665.12 3811.78 665.12C3832.59 665.12 3853.41 659.266 3874.22 647.558C3895.69 635.2 3913.25 619.264 3926.91 599.751L3932.76 611.459C3908.05 645.282 3881.7 671.949 3853.73 691.463C3825.77 710.976 3795.85 720.732 3763.97 720.732ZM3986.42 335.349V599.751C3986.42 621.866 3988.7 637.802 3993.25 647.558C3997.81 656.664 4005.61 661.217 4016.67 661.217C4021.87 661.217 4028.05 660.242 4035.21 658.29C4042.36 655.689 4050.82 652.762 4060.57 649.509C4063.17 648.209 4065.45 649.509 4067.4 653.412C4069.35 656.664 4069.03 658.941 4066.43 660.242L3938.62 721.708C3937.31 722.358 3936.01 722.684 3934.71 722.684C3928.86 722.684 3923.01 714.878 3917.15 699.268C3911.3 683.657 3908.37 661.542 3908.37 632.923V453.403C3908.37 430.638 3906.09 414.051 3901.54 403.644C3896.99 392.587 3889.18 387.058 3878.13 387.058C3870.32 387.058 3861.21 389.66 3850.81 394.864C3848.21 395.514 3846.25 393.888 3844.95 389.985C3843.65 386.083 3843.98 383.806 3845.93 383.156L3968.86 325.592C3970.16 324.942 3971.46 324.616 3972.76 324.616C3976.02 324.616 3978.94 325.917 3981.54 328.519C3984.8 331.121 3986.42 333.397 3986.42 335.349ZM4104.45 710C4102.5 710 4101.53 708.049 4101.53 704.146C4101.53 700.243 4102.5 698.292 4104.45 698.292C4125.92 698.292 4140.55 693.739 4148.36 684.633C4156.16 675.527 4160.07 657.64 4160.07 630.972V132.413C4160.07 109.647 4158.12 93.3859 4154.21 83.6299C4150.31 73.2229 4142.83 68.0189 4131.77 68.0189C4122.67 68.0189 4109.33 71.9219 4091.77 79.7269C4089.82 80.3779 4087.87 78.7519 4085.92 74.8489C4083.97 70.9459 4083.64 68.6699 4084.94 68.0189L4222.51 3.62592C4223.81 2.97592 4225.11 2.6499 4226.41 2.6499C4229.01 2.6499 4231.94 3.9509 4235.19 6.5529C4238.44 9.1549 4240.07 11.4309 4240.07 13.3829V630.972C4240.07 657.64 4243.65 675.527 4250.8 684.633C4258.61 693.739 4273.57 698.292 4295.68 698.292C4297.63 698.292 4298.61 700.243 4298.61 704.146C4298.61 708.049 4297.63 710 4295.68 710C4283.32 710 4268.69 709.675 4251.78 709.024C4235.52 708.374 4218.28 708.049 4200.07 708.049C4181.86 708.049 4164.29 708.374 4147.38 709.024C4131.12 709.675 4116.81 710 4104.45 710Z" fill="black"/>
<path d="M618.119 30.9139C618.119 37.8109 619.888 43.8239 623.425 48.9529C626.962 53.9049 631.472 58.4149 636.955 62.4829C642.614 66.5509 648.539 70.5299 654.729 74.4209C661.45 78.4889 667.817 82.8219 673.83 87.4199C680.02 92.0189 685.061 97.3249 688.951 103.338C693.019 109.174 695.053 116.337 695.053 124.826C695.053 134.023 692.666 142.159 687.89 149.233C683.115 156.131 676.483 161.613 667.994 165.681C659.681 169.572 649.865 171.517 638.546 171.517C633.771 171.517 628.731 171.075 623.425 170.191C618.296 169.307 613.432 168.069 608.834 166.477C604.412 164.885 600.787 163.205 597.957 161.436C597.249 160.906 596.63 160.287 596.1 159.579C595.746 158.872 595.481 157.811 595.304 156.396L593.712 116.337C593.535 115.453 593.889 115.011 594.773 115.011C595.835 114.834 596.454 115.099 596.63 115.807C598.753 121.112 601.229 126.772 604.059 132.785C607.065 138.621 610.514 144.016 614.405 148.968C618.296 153.92 622.717 157.988 627.669 161.171C632.798 164.178 638.635 165.681 645.179 165.681C649.777 165.681 654.11 164.885 658.178 163.293C662.246 161.702 665.606 158.96 668.259 155.069C670.912 151.002 672.238 145.519 672.238 138.621C672.238 130.309 670.293 123.235 666.402 117.398C662.688 111.385 657.913 106.168 652.076 101.746C646.24 97.3249 640.138 93.1679 633.771 89.2769C627.581 85.2099 621.656 81.0529 615.997 76.8089C610.337 72.5639 605.65 67.7009 601.936 62.2179C598.399 56.5579 596.63 49.7489 596.63 41.7909C596.63 32.0629 599.283 24.1049 604.589 17.9139C609.895 11.7239 616.616 7.1259 624.751 4.1189C633.064 1.1129 641.553 -0.391113 650.219 -0.391113C656.056 -0.391113 661.98 0.139897 667.994 1.2009C674.007 2.2619 679.136 3.76589 683.38 5.71089C684.972 6.24189 686.033 6.94889 686.564 7.83289C687.094 8.71789 687.36 9.68989 687.36 10.7519L687.89 46.5659C687.89 47.2729 687.448 47.7149 686.564 47.8919C685.856 48.0689 685.326 47.8919 684.972 47.3619C684.088 44.7089 682.761 41.0829 680.993 36.4849C679.224 31.7089 676.748 26.9339 673.565 22.1589C670.381 17.3839 666.402 13.3159 661.627 9.95589C656.851 6.59489 651.015 4.91489 644.117 4.91489C638.812 4.91489 634.213 5.97589 630.322 8.09889C626.431 10.2209 623.425 13.2279 621.302 17.1189C619.18 20.8329 618.119 25.4309 618.119 30.9139ZM931.118 169.926C930.411 170.279 929.615 170.456 928.73 170.456C925.901 170.456 923.071 168.422 920.241 164.355C917.411 160.287 915.996 154.362 915.996 146.58V100.685C915.996 93.2569 915.377 87.2439 914.139 82.6449C913.078 78.0469 911.486 74.6869 909.364 72.5639C907.242 70.4419 904.5 69.3809 901.14 69.3809C897.957 69.3809 895.127 70.2649 892.651 72.0339C890.352 73.6249 888.495 75.9249 887.08 78.9309C885.842 81.9379 885.046 85.7399 884.692 90.3389C884.338 94.5829 883.012 97.8549 880.713 100.154C878.59 102.454 875.407 103.603 871.162 103.603C867.271 103.603 864.353 102.719 862.408 100.95C860.639 99.1819 859.755 96.7939 859.755 93.7869C859.755 90.0729 861.523 86.4479 865.061 82.9109C868.598 79.3729 873.019 76.1899 878.325 73.3599C883.631 70.3529 889.202 67.9659 895.038 66.1969C900.875 64.4289 906.181 63.5439 910.956 63.5439C918.384 63.5439 924.663 65.9319 929.791 70.7069C934.92 75.3059 937.485 82.6449 937.485 92.7259V139.683C937.485 145.165 938.369 149.322 940.138 152.151C941.906 154.981 944.471 156.396 947.831 156.396C950.661 156.396 953.844 155.6 957.382 154.008C958.266 153.655 958.885 154.008 959.239 155.069C959.592 155.954 959.327 156.573 958.443 156.927L931.118 169.926ZM876.733 170.191C871.251 170.191 866.918 168.688 863.734 165.681C860.551 162.674 858.959 158.695 858.959 153.743C858.959 147.907 861.17 143.574 865.591 140.744C870.19 137.914 877.352 134.907 887.08 131.724L918.649 121.112L919.445 124.826L896.896 133.05C892.474 134.819 889.291 136.764 887.345 138.887C885.4 140.832 884.427 143.308 884.427 146.315C884.427 150.029 885.488 152.947 887.61 155.069C889.733 157.192 892.386 158.253 895.569 158.253C897.161 158.253 899.018 157.988 901.14 157.457C903.439 156.927 905.827 156.042 908.303 154.804L925.547 145.784L926.077 149.764L902.997 162.232C898.399 164.708 893.8 166.654 889.202 168.069C884.781 169.484 880.624 170.191 876.733 170.191ZM1108.05 168.334C1107.52 168.334 1107.25 167.803 1107.25 166.742C1107.25 165.681 1107.52 165.151 1108.05 165.151C1114.06 165.151 1118.04 163.912 1119.98 161.436C1122.11 158.96 1123.17 154.097 1123.17 146.845V98.5629C1123.17 92.5489 1122.55 88.2159 1121.31 85.5629C1120.07 82.7339 1117.95 81.3189 1114.94 81.3189C1113.53 81.3189 1111.94 81.5839 1110.17 82.1149C1108.4 82.6449 1106.45 83.4409 1104.33 84.5019C1103.62 84.6789 1103.01 84.2369 1102.47 83.1759C1102.12 82.1149 1102.21 81.4959 1102.74 81.3189L1140.94 63.5439C1141.3 63.3669 1141.56 63.2789 1141.74 63.2789C1142.45 63.2789 1143.15 63.7209 1143.86 64.6049C1144.74 65.3129 1145.19 65.9319 1145.19 66.4629C1145.19 68.4079 1145.1 71.9449 1144.92 77.0739C1144.74 82.2029 1144.66 89.2769 1144.66 98.2969V146.845C1144.66 154.097 1145.63 158.96 1147.57 161.436C1149.7 163.912 1153.76 165.151 1159.78 165.151C1160.31 165.151 1160.57 165.681 1160.57 166.742C1160.57 167.803 1160.31 168.334 1159.78 168.334C1156.24 168.334 1152.26 168.246 1147.84 168.069C1143.42 167.892 1138.73 167.803 1133.78 167.803C1129 167.803 1124.32 167.892 1119.72 168.069C1115.3 168.246 1111.41 168.334 1108.05 168.334ZM1132.45 35.4239C1127.85 35.4239 1124.23 34.1859 1121.58 31.7089C1119.1 29.2329 1117.86 25.6959 1117.86 21.0979C1117.86 16.8529 1119.1 13.4929 1121.58 11.0169C1124.23 8.54089 1127.85 7.30289 1132.45 7.30289C1136.87 7.30289 1140.23 8.54089 1142.53 11.0169C1145.01 13.4929 1146.25 16.8529 1146.25 21.0979C1146.25 30.6479 1141.65 35.4239 1132.45 35.4239ZM1387.03 168.334C1386.5 168.334 1386.24 167.803 1386.24 166.742C1386.24 165.681 1386.5 165.151 1387.03 165.151C1393.04 165.151 1397.02 163.912 1398.97 161.436C1400.92 158.96 1401.89 154.097 1401.89 146.845V107.052C1401.89 97.1479 1400.03 89.8959 1396.32 85.2979C1392.78 80.5229 1387.12 78.1349 1379.34 78.1349C1373.68 78.1349 1367.84 79.7269 1361.83 82.9109C1355.99 85.9169 1351.13 90.1619 1347.24 95.6439L1345.91 92.4609C1352.81 83.0869 1360.06 75.8359 1367.67 70.7069C1375.45 65.4009 1383.76 62.7479 1392.6 62.7479C1402.51 62.7479 1410.11 65.7549 1415.42 71.7679C1420.72 77.6049 1423.38 85.5629 1423.38 95.6439V146.845C1423.38 154.097 1424.35 158.96 1426.29 161.436C1428.42 163.912 1432.48 165.151 1438.5 165.151C1439.03 165.151 1439.29 165.681 1439.29 166.742C1439.29 167.803 1439.03 168.334 1438.5 168.334C1435.14 168.334 1431.25 168.246 1426.83 168.069C1422.4 167.892 1417.72 167.803 1412.76 167.803C1407.99 167.803 1403.3 167.892 1398.7 168.069C1394.28 168.246 1390.39 168.334 1387.03 168.334ZM1315.67 168.334C1315.14 168.334 1314.87 167.803 1314.87 166.742C1314.87 165.681 1315.14 165.151 1315.67 165.151C1321.68 165.151 1325.66 163.912 1327.61 161.436C1329.55 158.96 1330.52 154.097 1330.52 146.845V96.1749C1330.52 90.5159 1329.91 86.3589 1328.67 83.7059C1327.43 81.0529 1325.22 79.7269 1322.04 79.7269C1320.44 79.7269 1318.5 80.0809 1316.2 80.7879C1313.9 81.4959 1311.42 82.4679 1308.77 83.7059C1308.06 83.8829 1307.44 83.5299 1306.91 82.6449C1306.56 81.5839 1306.65 80.9649 1307.18 80.7879L1341.93 63.8099C1342.82 63.4559 1343.44 63.2789 1343.79 63.2789C1345.56 63.2789 1347.33 65.3129 1349.1 69.3809C1351.04 73.4479 1352.01 79.3729 1352.01 87.1549V146.845C1352.01 154.097 1352.99 158.96 1354.93 161.436C1357.05 163.912 1361.12 165.151 1367.13 165.151C1367.67 165.151 1367.93 165.681 1367.93 166.742C1367.93 167.803 1367.67 168.334 1367.13 168.334C1363.77 168.334 1359.88 168.246 1355.46 168.069C1351.04 167.892 1346.35 167.803 1341.4 167.803C1336.63 167.803 1331.94 167.892 1327.34 168.069C1322.92 168.246 1319.03 168.334 1315.67 168.334ZM1630.68 171.517C1626.44 171.517 1622.19 170.81 1617.95 169.395C1613.88 167.98 1610.43 165.593 1607.6 162.232C1604.95 158.872 1603.62 154.097 1603.62 147.907V87.9509C1603.62 84.0599 1603.18 81.0529 1602.3 78.9309C1601.59 76.8089 1600.26 75.3939 1598.32 74.6869C1596.37 73.8019 1593.63 73.3599 1590.09 73.3599C1589.39 73.3599 1589.03 72.6529 1589.03 71.2379C1589.03 69.8229 1589.39 69.1149 1590.09 69.1149C1598.41 68.7619 1605.13 66.8159 1610.26 63.2789C1615.56 59.5649 1619.28 54.3479 1621.4 47.6269C1621.58 46.9189 1622.28 46.5659 1623.52 46.5659C1624.76 46.5659 1625.38 46.9189 1625.38 47.6269V139.152C1625.38 146.403 1627.15 151.621 1630.68 154.804C1634.4 157.988 1639.17 159.579 1645.01 159.579C1649.25 159.579 1653.15 158.784 1656.68 157.192C1660.4 155.423 1663.49 153.566 1665.97 151.621C1666.5 151.267 1667.12 151.532 1667.82 152.417C1668.53 153.124 1668.53 153.743 1667.82 154.274C1661.28 160.287 1655.09 164.708 1649.25 167.538C1643.6 170.191 1637.4 171.517 1630.68 171.517ZM1659.6 79.1959C1652.53 77.6049 1645.63 76.5439 1638.91 76.0129C1632.36 75.3059 1625.29 74.9519 1617.69 74.9519V68.5849C1624.94 68.5849 1631.92 68.3199 1638.64 67.7889C1645.54 67.2579 1652.88 66.6389 1660.66 65.9319C1661.02 65.9319 1661.37 66.5509 1661.72 67.7889C1662.25 69.0269 1662.52 70.5299 1662.52 72.2989C1662.52 73.8909 1662.17 75.4819 1661.46 77.0739C1660.93 78.6659 1660.31 79.3729 1659.6 79.1959ZM1838.65 79.7269C1838.65 83.7949 1839.71 87.3319 1841.83 90.3389C1843.95 93.3449 1846.7 96.0869 1850.06 98.5629C1853.42 100.862 1857.04 103.073 1860.93 105.195C1865.35 107.671 1869.6 110.235 1873.67 112.888C1877.91 115.541 1881.45 118.813 1884.28 122.704C1887.11 126.418 1888.52 131.282 1888.52 137.295C1888.52 142.955 1887.02 148.437 1884.01 153.743C1881.18 158.872 1876.85 163.117 1871.01 166.477C1865.35 169.66 1858.19 171.252 1849.53 171.252C1845.1 171.252 1840.77 170.722 1836.53 169.66C1832.28 168.599 1827.68 166.654 1822.73 163.824C1822.38 163.47 1822.02 163.028 1821.67 162.498C1821.32 161.967 1821.14 161.348 1821.14 160.641L1820.61 136.234C1820.61 135.703 1821.05 135.438 1821.94 135.438C1823 135.261 1823.62 135.438 1823.79 135.969C1825.74 141.628 1828.39 146.757 1831.75 151.355C1835.29 155.954 1839.18 159.579 1843.42 162.232C1847.85 164.708 1852.36 165.946 1856.95 165.946C1861.38 165.946 1864.82 164.797 1867.3 162.498C1869.95 160.022 1871.19 156.307 1871.01 151.355C1871.01 146.403 1869.86 142.336 1867.57 139.152C1865.27 135.792 1862.35 132.962 1858.81 130.663C1855.45 128.364 1851.91 126.241 1848.2 124.296C1843.95 121.997 1839.8 119.697 1835.73 117.398C1831.84 114.922 1828.57 111.827 1825.92 108.113C1823.26 104.222 1821.94 99.1819 1821.94 92.9919C1821.94 85.7399 1823.7 79.9919 1827.24 75.7479C1830.96 71.3259 1835.73 68.1429 1841.57 66.1969C1847.4 64.0749 1853.42 63.0139 1859.61 63.0139C1863.32 63.0139 1866.77 63.2789 1869.95 63.8099C1873.31 64.3399 1876.94 65.4009 1880.83 66.9929C1882.42 67.5239 1883.22 68.4959 1883.22 69.9109C1883.22 73.2719 1883.13 76.7199 1882.95 80.2579C1882.78 83.7949 1882.69 87.7739 1882.69 92.1959C1882.69 92.5489 1882.16 92.7259 1881.1 92.7259C1880.03 92.7259 1879.5 92.5489 1879.5 92.1959C1879.5 88.6579 1878.09 85.0329 1875.26 81.3189C1872.43 77.6049 1868.8 74.5099 1864.38 72.0339C1860.14 69.3809 1855.63 68.0539 1850.85 68.0539C1847.67 68.0539 1844.84 68.8499 1842.36 70.4419C1839.89 72.0339 1838.65 75.1289 1838.65 79.7269Z" fill="#4C4951"/>
</g>
<defs>
<clipPath id="clip0_150_57">
<rect width="4408" height="1262" fill="white"/>
</clipPath>
</defs>
</svg>
