<svg width="4469" height="1617" viewBox="0 0 4469 1617" fill="none" xmlns="http://www.w3.org/2000/svg">
<path d="M202.756 1455.23C176.165 1455.23 151.975 1450.62 130.185 1441.38C108.765 1431.78 90.2986 1418.67 74.7872 1402.05C59.6451 1385.43 47.8269 1366.41 39.3325 1344.99C31.2075 1323.2 27.145 1300.12 27.145 1275.75C27.145 1245.83 32.8694 1219.61 44.3184 1197.08C56.1366 1174.55 71.648 1155.9 90.8526 1141.13C110.057 1125.99 131.108 1114.72 154.006 1107.34C176.904 1099.95 199.617 1096.26 222.146 1096.26C249.475 1096.26 273.85 1101.24 295.271 1111.21C317.061 1120.82 335.527 1133.93 350.669 1150.55C365.811 1167.17 377.26 1186 385.016 1207.05C393.141 1228.1 397.203 1249.71 397.203 1271.87C397.203 1297.72 392.033 1321.73 381.692 1343.88C371.351 1366.04 357.132 1385.43 339.035 1402.05C321.308 1418.67 300.626 1431.78 276.99 1441.38C253.723 1450.62 228.978 1455.23 202.756 1455.23ZM221.592 1441.94C243.751 1441.94 263.51 1436.03 280.868 1424.21C298.595 1412.39 312.444 1395.04 322.416 1372.14C332.757 1348.87 337.927 1320.8 337.927 1287.93C337.927 1253.59 332.388 1223.12 321.308 1196.53C310.228 1169.94 294.348 1149.07 273.666 1133.93C252.984 1118.41 228.24 1110.66 199.433 1110.66C163.609 1110.66 135.725 1123.59 115.782 1149.44C96.2078 1174.92 86.4208 1210.38 86.4208 1255.8C86.4208 1282.39 89.7447 1307.14 96.3924 1330.04C103.04 1352.56 112.273 1372.32 124.091 1389.31C136.279 1406.3 150.498 1419.41 166.748 1428.64C183.367 1437.51 201.648 1441.94 221.592 1441.94ZM510.007 1298.46L506.129 1291.81C520.164 1275.19 531.982 1262.45 541.584 1253.59C551.556 1244.35 559.865 1238.07 566.513 1234.75C573.161 1231.06 579.439 1229.21 585.348 1229.21C593.104 1229.21 600.86 1231.98 608.616 1237.52C616.741 1242.69 620.803 1249.34 620.803 1257.46C620.803 1264.11 618.772 1269.65 614.709 1274.08C610.647 1278.51 604.922 1280.73 597.536 1280.73C590.888 1280.73 585.718 1278.88 582.025 1275.19C578.331 1271.5 574.823 1267.99 571.499 1264.67C568.175 1261.34 563.559 1259.68 557.649 1259.68C554.695 1259.68 551.556 1260.6 548.232 1262.45C544.908 1263.93 540.291 1267.44 534.382 1272.98C528.473 1278.51 520.348 1287.01 510.007 1298.46ZM446.854 1448.59C445.746 1448.59 445.192 1447.48 445.192 1445.26C445.192 1443.05 445.746 1441.94 446.854 1441.94C459.41 1441.94 467.72 1439.35 471.783 1434.18C475.845 1429.01 477.876 1418.86 477.876 1403.71V1297.9C477.876 1286.09 476.584 1277.41 473.999 1271.87C471.413 1266.33 466.797 1263.56 460.149 1263.56C456.825 1263.56 452.763 1264.3 447.962 1265.77C443.16 1267.25 437.99 1269.28 432.45 1271.87C430.973 1272.24 429.68 1271.5 428.572 1269.65C427.834 1267.44 428.018 1266.14 429.126 1265.77L501.698 1230.32C503.544 1229.58 504.837 1229.21 505.575 1229.21C509.269 1229.21 512.962 1233.46 516.655 1241.95C520.718 1250.45 522.749 1262.82 522.749 1279.07V1403.71C522.749 1413.69 524.226 1421.63 527.181 1427.54C530.135 1433.08 535.306 1436.95 542.692 1439.17C550.078 1441.02 560.419 1441.94 573.715 1441.94C575.192 1441.94 575.931 1443.05 575.931 1445.26C575.931 1447.48 575.192 1448.59 573.715 1448.59C564.113 1448.59 553.033 1448.4 540.476 1448.03C528.289 1447.66 514.993 1447.48 500.59 1447.48C490.618 1447.48 480.831 1447.66 471.229 1448.03C461.996 1448.4 453.871 1448.59 446.854 1448.59ZM733.828 1455.23C724.964 1455.23 716.101 1453.76 707.237 1450.8C698.743 1447.85 691.541 1442.86 685.632 1435.85C680.092 1428.83 677.322 1418.86 677.322 1405.93V1280.73C677.322 1272.61 676.399 1266.33 674.552 1261.9C673.075 1257.46 670.305 1254.51 666.242 1253.03C662.18 1251.19 656.455 1250.26 649.069 1250.26C647.592 1250.26 646.853 1248.78 646.853 1245.83C646.853 1242.88 647.592 1241.4 649.069 1241.4C666.427 1240.66 680.461 1236.6 691.171 1229.21C702.251 1221.46 710.007 1210.56 714.439 1196.53C714.808 1195.05 716.285 1194.31 718.87 1194.31C721.456 1194.31 722.748 1195.05 722.748 1196.53V1387.65C722.748 1402.79 726.441 1413.69 733.828 1420.33C741.584 1426.98 751.555 1430.31 763.743 1430.31C772.606 1430.31 780.731 1428.64 788.118 1425.32C795.874 1421.63 802.337 1417.75 807.507 1413.69C808.615 1412.95 809.908 1413.5 811.385 1415.35C812.862 1416.83 812.862 1418.12 811.385 1419.23C797.72 1431.78 784.794 1441.02 772.606 1446.92C760.788 1452.46 747.862 1455.23 733.828 1455.23ZM794.212 1262.45C779.439 1259.13 765.035 1256.91 751.001 1255.8C737.336 1254.32 722.564 1253.59 706.683 1253.59V1240.29C721.825 1240.29 736.413 1239.74 750.447 1238.63C764.851 1237.52 780.177 1236.23 796.428 1234.75C797.166 1234.75 797.905 1236.04 798.643 1238.63C799.751 1241.21 800.305 1244.35 800.305 1248.05C800.305 1251.37 799.567 1254.69 798.089 1258.02C796.982 1261.34 795.689 1262.82 794.212 1262.45ZM830.727 1448.59C829.619 1448.59 829.065 1447.48 829.065 1445.26C829.065 1443.05 829.619 1441.94 830.727 1441.94C842.914 1441.94 851.224 1439.35 855.656 1434.18C860.088 1429.01 862.303 1418.86 862.303 1403.71V1120.63C862.303 1107.7 861.011 1098.47 858.426 1092.93C856.21 1087.02 851.963 1084.07 845.684 1084.07C840.144 1084.07 832.573 1086.28 822.971 1090.72C821.863 1091.09 820.755 1090.35 819.647 1088.5C818.539 1086.28 818.539 1084.81 819.647 1084.07L896.65 1047.51C897.389 1047.14 897.758 1046.95 897.758 1046.95C898.127 1046.95 898.497 1046.95 898.866 1046.95C900.713 1046.95 902.375 1047.69 903.852 1049.17C905.699 1050.64 906.622 1051.94 906.622 1053.05V1403.71C906.622 1418.86 908.653 1429.01 912.716 1434.18C917.147 1439.35 925.642 1441.94 938.199 1441.94C939.676 1441.94 940.415 1443.05 940.415 1445.26C940.415 1447.48 939.676 1448.59 938.199 1448.59C931.182 1448.59 923.057 1448.4 913.824 1448.03C904.96 1447.66 895.173 1447.48 884.463 1447.48C874.122 1447.48 864.335 1447.66 855.102 1448.03C845.869 1448.4 837.744 1448.59 830.727 1448.59ZM979.747 1448.59C978.639 1448.59 978.085 1447.48 978.085 1445.26C978.085 1443.05 978.639 1441.94 979.747 1441.94C991.935 1441.94 1000.24 1439.35 1004.68 1434.18C1009.11 1429.01 1011.32 1418.86 1011.32 1403.71V1321.17C1011.32 1280.55 995.443 1260.23 963.682 1260.23C951.863 1260.23 939.676 1263.56 927.119 1270.21C914.562 1276.85 904.406 1285.9 896.65 1297.35L893.88 1290.7C907.914 1270.76 923.057 1255.43 939.307 1244.72C955.557 1234.01 972.915 1228.66 991.381 1228.66C1011.69 1228.66 1027.39 1234.94 1038.47 1247.49C1049.92 1259.68 1055.64 1276.11 1055.64 1296.8V1403.71C1055.64 1418.86 1057.67 1429.01 1061.74 1434.18C1066.17 1439.35 1074.66 1441.94 1087.22 1441.94C1088.7 1441.94 1089.44 1443.05 1089.44 1445.26C1089.44 1447.48 1088.7 1448.59 1087.22 1448.59C1080.2 1448.59 1072.08 1448.4 1062.84 1448.03C1053.98 1447.66 1044.19 1447.48 1033.48 1447.48C1023.14 1447.48 1013.36 1447.66 1004.12 1448.03C994.889 1448.4 986.764 1448.59 979.747 1448.59ZM1227.86 1455.79C1204.97 1455.79 1185.21 1450.43 1168.59 1439.72C1151.97 1429.01 1139.04 1414.79 1129.81 1397.07C1120.58 1378.97 1115.96 1359.58 1115.96 1338.9C1115.96 1319.69 1119.65 1303.07 1127.04 1289.04C1134.43 1275.01 1144.03 1263.56 1155.85 1254.69C1168.04 1245.46 1181.15 1238.63 1195.18 1234.2C1209.58 1229.76 1223.62 1227.55 1237.28 1227.55C1260.55 1227.55 1280.49 1233.09 1297.11 1244.17C1313.73 1255.25 1326.29 1269.47 1334.78 1286.82C1343.65 1304.18 1348.08 1322.65 1348.08 1342.22C1348.08 1365.12 1342.54 1385.06 1331.46 1402.05C1320.38 1419.04 1305.79 1432.34 1287.69 1441.94C1269.6 1451.17 1249.65 1455.79 1227.86 1455.79ZM1244.48 1444.71C1260.73 1444.71 1273.29 1437.69 1282.15 1423.66C1291.02 1409.25 1295.45 1388.02 1295.45 1359.95C1295.45 1334.47 1291.76 1312.68 1284.37 1294.58C1277.35 1276.48 1268.12 1262.63 1256.67 1253.03C1245.22 1243.43 1232.67 1238.63 1219 1238.63C1202.75 1238.63 1190.19 1245.46 1181.33 1259.13C1172.47 1272.42 1168.04 1292.55 1168.04 1319.51C1168.04 1343.88 1171.36 1365.49 1178.01 1384.33C1184.65 1403.16 1193.7 1417.93 1205.15 1428.64C1216.97 1439.35 1230.08 1444.71 1244.48 1444.71ZM1472.35 1455.79C1456.84 1455.79 1442.44 1451.54 1429.14 1443.05C1415.85 1434.18 1405.14 1421.81 1397.01 1405.93C1389.25 1390.05 1385.38 1370.84 1385.38 1348.32C1385.38 1326.53 1389.44 1308.06 1397.56 1292.92C1405.69 1277.41 1416.03 1264.85 1428.59 1255.25C1441.51 1245.65 1455.36 1238.63 1470.14 1234.2C1484.91 1229.76 1498.94 1227.55 1512.24 1227.55C1525.53 1227.55 1537.91 1229.4 1549.35 1233.09C1560.8 1236.78 1571.14 1241.58 1580.38 1247.49L1569.85 1289.59C1561.73 1273.71 1552.31 1261.71 1541.6 1253.59C1531.26 1245.09 1517.96 1240.84 1501.71 1240.84C1481.4 1240.84 1465.15 1248.05 1452.96 1262.45C1441.14 1276.48 1435.24 1299.38 1435.24 1331.14C1435.24 1352.19 1438 1370.29 1443.54 1385.43C1449.08 1400.21 1456.84 1411.65 1466.81 1419.78C1476.78 1427.54 1487.86 1431.41 1500.05 1431.41C1515.19 1431.41 1528.67 1427.17 1540.49 1418.67C1552.31 1410.18 1563.57 1400.02 1574.28 1388.2L1579.27 1392.63C1571.51 1401.5 1562.28 1410.92 1551.57 1420.89C1541.23 1430.49 1529.41 1438.8 1516.12 1445.82C1503.19 1452.46 1488.6 1455.79 1472.35 1455.79ZM1603.64 1053.05V1385.43C1603.64 1398.36 1604.94 1407.59 1607.52 1413.13C1610.11 1418.3 1614.54 1420.89 1620.82 1420.89C1623.77 1420.89 1627.28 1420.33 1631.34 1419.23C1635.78 1418.12 1640.58 1416.46 1645.75 1414.24C1646.86 1413.5 1647.96 1414.24 1649.07 1416.46C1650.18 1418.3 1650.18 1419.6 1649.07 1420.33L1578.16 1454.68C1577.05 1455.05 1575.95 1455.23 1574.84 1455.23C1570.78 1455.23 1567.08 1450.8 1563.76 1441.94C1560.43 1433.08 1558.77 1420.15 1558.77 1403.16V1120.63C1558.77 1108.07 1557.66 1098.84 1555.45 1092.93C1553.23 1087.02 1548.8 1084.07 1542.15 1084.07C1539.2 1084.07 1535.87 1084.81 1532.18 1086.28C1528.49 1087.39 1524.43 1088.87 1519.99 1090.72C1518.52 1091.45 1517.22 1090.72 1516.12 1088.5C1515.01 1086.28 1515.01 1084.99 1516.12 1084.62L1593.67 1047.51C1594.41 1047.14 1595.15 1046.95 1595.89 1046.95C1597.37 1046.95 1599.03 1047.69 1600.87 1049.17C1602.72 1050.64 1603.64 1051.94 1603.64 1053.05ZM1780.22 1455.79C1757.32 1455.79 1737.56 1450.43 1720.95 1439.72C1704.33 1429.01 1691.4 1414.79 1682.17 1397.07C1672.93 1378.97 1668.32 1359.58 1668.32 1338.9C1668.32 1319.69 1672.01 1303.07 1679.4 1289.04C1686.78 1275.01 1696.39 1263.56 1708.2 1254.69C1720.39 1245.46 1733.5 1238.63 1747.54 1234.2C1761.94 1229.76 1775.97 1227.55 1789.64 1227.55C1812.91 1227.55 1832.85 1233.09 1849.47 1244.17C1866.09 1255.25 1878.64 1269.47 1887.14 1286.82C1896 1304.18 1900.43 1322.65 1900.43 1342.22C1900.43 1365.12 1894.9 1385.06 1883.82 1402.05C1872.74 1419.04 1858.15 1432.34 1840.05 1441.94C1821.95 1451.17 1802.01 1455.79 1780.22 1455.79ZM1796.84 1444.71C1813.09 1444.71 1825.65 1437.69 1834.51 1423.66C1843.37 1409.25 1847.81 1388.02 1847.81 1359.95C1847.81 1334.47 1844.11 1312.68 1836.73 1294.58C1829.71 1276.48 1820.48 1262.63 1809.03 1253.03C1797.58 1243.43 1785.02 1238.63 1771.36 1238.63C1755.11 1238.63 1742.55 1245.46 1733.69 1259.13C1724.82 1272.42 1720.39 1292.55 1720.39 1319.51C1720.39 1343.88 1723.72 1365.49 1730.36 1384.33C1737.01 1403.16 1746.06 1417.93 1757.51 1428.64C1769.33 1439.35 1782.44 1444.71 1796.84 1444.71ZM2059.05 1448.59C2057.95 1448.59 2057.39 1447.48 2057.39 1445.26C2057.39 1443.05 2057.95 1441.94 2059.05 1441.94C2067.18 1441.94 2071.8 1440.28 2072.9 1436.95C2074.38 1433.26 2072.53 1427.72 2067.36 1420.33L1974.3 1280.73C1965.8 1267.8 1957.49 1258.02 1949.37 1251.37C1941.24 1244.72 1934.04 1241.4 1927.76 1241.4C1927.02 1241.4 1926.65 1240.29 1926.65 1238.07C1926.65 1235.86 1927.02 1234.75 1927.76 1234.75C1933.3 1234.75 1939.03 1234.94 1944.93 1235.3C1950.84 1235.67 1956.57 1235.86 1962.11 1235.86C1975.03 1235.86 1986.48 1235.67 1996.46 1235.3C2006.43 1234.94 2015.47 1234.75 2023.6 1234.75C2024.34 1234.75 2024.71 1235.86 2024.71 1238.07C2024.71 1240.29 2024.34 1241.4 2023.6 1241.4C2016.21 1241.4 2011.6 1243.06 2009.75 1246.38C2007.9 1249.34 2009.75 1254.88 2015.29 1263L2107.8 1402.61C2117.41 1417.01 2126.64 1427.17 2135.5 1433.08C2144.74 1438.98 2152.68 1441.94 2159.32 1441.94C2160.43 1441.94 2160.99 1443.05 2160.99 1445.26C2160.99 1447.48 2160.43 1448.59 2159.32 1448.59C2153.42 1448.59 2146.95 1448.4 2139.94 1448.03C2132.92 1447.66 2126.46 1447.48 2120.55 1447.48C2107.62 1447.48 2096.17 1447.66 2086.2 1448.03C2076.23 1448.4 2067.18 1448.59 2059.05 1448.59ZM1923.33 1448.59C1922.22 1448.59 1921.67 1447.48 1921.67 1445.26C1921.67 1443.05 1922.22 1441.94 1923.33 1441.94C1934.41 1441.94 1946.04 1437.69 1958.23 1429.2C1970.42 1420.7 1981.87 1409.07 1992.58 1394.3L2031.91 1340.01L2039.67 1347.21L2004.76 1397.62C1998.86 1406.85 1995.16 1414.98 1993.69 1422C1992.21 1428.64 1993.5 1433.63 1997.56 1436.95C2001.99 1440.28 2009.38 1441.94 2019.72 1441.94C2020.83 1441.94 2021.38 1443.05 2021.38 1445.26C2021.38 1447.48 2020.83 1448.59 2019.72 1448.59C2011.23 1448.59 2002.92 1448.4 1994.79 1448.03C1987.04 1447.66 1976.88 1447.48 1964.32 1447.48C1955.46 1447.48 1948.26 1447.66 1942.72 1448.03C1937.55 1448.4 1931.09 1448.59 1923.33 1448.59ZM2042.44 1342.22L2035.79 1335.57L2069.58 1285.72C2079.55 1271.31 2083.61 1260.42 2081.77 1253.03C2079.92 1245.28 2070.87 1241.4 2054.62 1241.4C2053.88 1241.4 2053.51 1240.29 2053.51 1238.07C2053.51 1235.86 2053.88 1234.75 2054.62 1234.75C2063.49 1234.75 2071.8 1234.94 2079.55 1235.3C2087.68 1235.67 2098.02 1235.86 2110.57 1235.86C2119.44 1235.86 2126.46 1235.67 2131.63 1235.3C2137.17 1234.94 2143.81 1234.75 2151.57 1234.75C2152.68 1234.75 2153.23 1235.86 2153.23 1238.07C2153.23 1240.29 2152.68 1241.4 2151.57 1241.4C2140.86 1241.4 2129.41 1245.65 2117.22 1254.14C2105.03 1262.26 2093.4 1273.9 2082.32 1289.04L2042.44 1342.22ZM2525.4 1096.26C2541.28 1096.26 2558.27 1097.73 2576.36 1100.69C2594.46 1103.27 2608.86 1107.34 2619.57 1112.88C2622.9 1113.98 2624.93 1115.46 2625.67 1117.31C2626.78 1118.78 2627.51 1121.55 2627.88 1125.62L2634.53 1197.63C2634.53 1198.37 2633.61 1199.11 2631.76 1199.85C2630.28 1200.22 2629.18 1199.67 2628.44 1198.19C2617.73 1169.38 2601.48 1147.41 2579.69 1132.26C2558.27 1117.12 2532.97 1109.55 2503.79 1109.55C2477.57 1109.55 2455.23 1115.83 2436.76 1128.39C2418.66 1140.94 2404.63 1158.49 2394.66 1181.01C2385.06 1203.17 2380.25 1229.03 2380.25 1258.57C2380.25 1284.42 2383.76 1308.61 2390.78 1331.14C2397.8 1353.67 2407.58 1373.43 2420.14 1390.42C2432.7 1407.41 2447.47 1420.7 2464.46 1430.31C2481.45 1439.91 2499.91 1444.71 2519.86 1444.71C2544.23 1444.71 2565.84 1437.32 2584.67 1422.55C2603.88 1407.41 2620.13 1383.77 2633.42 1351.64C2634.16 1350.16 2635.45 1349.79 2637.3 1350.53C2639.15 1350.9 2640.07 1351.46 2640.07 1352.19L2631.76 1423.1C2631.02 1427.54 2630.1 1430.49 2628.99 1431.97C2628.25 1433.08 2626.22 1434.37 2622.9 1435.85C2605.91 1442.49 2588.74 1447.29 2571.38 1450.25C2554.02 1453.57 2537.03 1455.23 2520.41 1455.23C2484.96 1455.23 2454.49 1449.88 2429 1439.17C2403.52 1428.09 2382.84 1413.69 2366.96 1395.96C2351.08 1377.86 2339.26 1358.1 2331.5 1336.68C2324.12 1315.26 2320.42 1294.21 2320.42 1273.53C2320.42 1246.57 2325.96 1222.19 2337.04 1200.4C2348.49 1178.61 2363.82 1159.96 2383.02 1144.45C2402.23 1128.94 2424.02 1117.12 2448.39 1109C2473.14 1100.5 2498.81 1096.26 2525.4 1096.26ZM2839.47 1451.91C2838 1452.65 2836.33 1453.02 2834.49 1453.02C2828.58 1453.02 2822.67 1448.77 2816.76 1440.28C2810.85 1431.78 2807.9 1419.41 2807.9 1403.16V1307.32C2807.9 1291.81 2806.6 1279.25 2804.02 1269.65C2801.8 1260.05 2798.48 1253.03 2794.05 1248.6C2789.62 1244.17 2783.89 1241.95 2776.87 1241.95C2770.23 1241.95 2764.32 1243.8 2759.15 1247.49C2754.35 1250.82 2750.47 1255.62 2747.51 1261.9C2744.93 1268.17 2743.27 1276.11 2742.53 1285.72C2741.79 1294.58 2739.02 1301.41 2734.22 1306.21C2729.79 1311.02 2723.14 1313.42 2714.27 1313.42C2706.15 1313.42 2700.06 1311.57 2695.99 1307.88C2692.3 1304.18 2690.45 1299.2 2690.45 1292.92C2690.45 1285.16 2694.15 1277.59 2701.53 1270.21C2708.92 1262.82 2718.15 1256.17 2729.23 1250.26C2740.31 1243.98 2751.94 1239 2764.13 1235.3C2776.32 1231.61 2787.4 1229.76 2797.37 1229.76C2812.88 1229.76 2825.99 1234.75 2836.7 1244.72C2847.41 1254.32 2852.77 1269.65 2852.77 1290.7V1388.76C2852.77 1400.21 2854.62 1408.88 2858.31 1414.79C2862 1420.7 2867.36 1423.66 2874.37 1423.66C2880.28 1423.66 2886.93 1422 2894.32 1418.67C2896.16 1417.93 2897.46 1418.67 2898.2 1420.89C2898.93 1422.73 2898.38 1424.03 2896.53 1424.77L2839.47 1451.91ZM2725.91 1452.46C2714.46 1452.46 2705.41 1449.33 2698.76 1443.05C2692.11 1436.77 2688.79 1428.46 2688.79 1418.12C2688.79 1405.93 2693.41 1396.88 2702.64 1390.97C2712.24 1385.06 2727.2 1378.79 2747.51 1372.14L2813.44 1349.98L2815.1 1357.73L2768.01 1374.91C2758.78 1378.6 2752.13 1382.66 2748.07 1387.09C2744 1391.16 2741.97 1396.33 2741.97 1402.61C2741.97 1410.36 2744.19 1416.46 2748.62 1420.89C2753.05 1425.32 2758.59 1427.54 2765.24 1427.54C2768.56 1427.54 2772.44 1426.98 2776.87 1425.87C2781.67 1424.77 2786.66 1422.92 2791.83 1420.33L2827.84 1401.5L2828.95 1409.81L2780.75 1435.85C2771.15 1441.02 2761.55 1445.08 2751.94 1448.03C2742.71 1450.99 2734.03 1452.46 2725.91 1452.46ZM2998.98 1455.23C2990.11 1455.23 2981.25 1453.76 2972.38 1450.8C2963.89 1447.85 2956.69 1442.86 2950.78 1435.85C2945.24 1428.83 2942.47 1418.86 2942.47 1405.93V1280.73C2942.47 1272.61 2941.55 1266.33 2939.7 1261.9C2938.22 1257.46 2935.45 1254.51 2931.39 1253.03C2927.33 1251.19 2921.6 1250.26 2914.22 1250.26C2912.74 1250.26 2912 1248.78 2912 1245.83C2912 1242.88 2912.74 1241.4 2914.22 1241.4C2931.58 1240.66 2945.61 1236.6 2956.32 1229.21C2967.4 1221.46 2975.15 1210.56 2979.59 1196.53C2979.96 1195.05 2981.43 1194.31 2984.02 1194.31C2986.6 1194.31 2987.9 1195.05 2987.9 1196.53V1387.65C2987.9 1402.79 2991.59 1413.69 2998.98 1420.33C3006.73 1426.98 3016.7 1430.31 3028.89 1430.31C3037.75 1430.31 3045.88 1428.64 3053.27 1425.32C3061.02 1421.63 3067.48 1417.75 3072.66 1413.69C3073.76 1412.95 3075.06 1413.5 3076.53 1415.35C3078.01 1416.83 3078.01 1418.12 3076.53 1419.23C3062.87 1431.78 3049.94 1441.02 3037.75 1446.92C3025.94 1452.46 3013.01 1455.23 2998.98 1455.23ZM3059.36 1262.45C3044.59 1259.13 3030.18 1256.91 3016.15 1255.8C3002.48 1254.32 2987.71 1253.59 2971.83 1253.59V1240.29C2986.97 1240.29 3001.56 1239.74 3015.6 1238.63C3030 1237.52 3045.33 1236.23 3061.58 1234.75C3062.31 1234.75 3063.05 1236.04 3063.79 1238.63C3064.9 1241.21 3065.45 1244.35 3065.45 1248.05C3065.45 1251.37 3064.71 1254.69 3063.24 1258.02C3062.13 1261.34 3060.84 1262.82 3059.36 1262.45ZM3095.87 1448.59C3094.77 1448.59 3094.21 1447.48 3094.21 1445.26C3094.21 1443.05 3094.77 1441.94 3095.87 1441.94C3108.06 1441.94 3116.37 1439.35 3120.8 1434.18C3125.24 1429.01 3127.45 1418.86 3127.45 1403.71V1120.63C3127.45 1107.7 3126.16 1098.47 3123.57 1092.93C3121.36 1087.02 3117.11 1084.07 3110.83 1084.07C3105.29 1084.07 3097.72 1086.28 3088.12 1090.72C3087.01 1091.09 3085.9 1090.35 3084.8 1088.5C3083.69 1086.28 3083.69 1084.81 3084.8 1084.07L3161.8 1047.51C3162.54 1047.14 3162.91 1046.95 3162.91 1046.95C3163.28 1046.95 3163.64 1046.95 3164.01 1046.95C3165.86 1046.95 3167.52 1047.69 3169 1049.17C3170.85 1050.64 3171.77 1051.94 3171.77 1053.05V1403.71C3171.77 1418.86 3173.8 1429.01 3177.86 1434.18C3182.3 1439.35 3190.79 1441.94 3203.35 1441.94C3204.82 1441.94 3205.56 1443.05 3205.56 1445.26C3205.56 1447.48 3204.82 1448.59 3203.35 1448.59C3196.33 1448.59 3188.2 1448.4 3178.97 1448.03C3170.11 1447.66 3160.32 1447.48 3149.61 1447.48C3139.27 1447.48 3129.48 1447.66 3120.25 1448.03C3111.02 1448.4 3102.89 1448.59 3095.87 1448.59ZM3244.9 1448.59C3243.79 1448.59 3243.23 1447.48 3243.23 1445.26C3243.23 1443.05 3243.79 1441.94 3244.9 1441.94C3257.08 1441.94 3265.39 1439.35 3269.82 1434.18C3274.26 1429.01 3276.47 1418.86 3276.47 1403.71V1321.17C3276.47 1280.55 3260.59 1260.23 3228.83 1260.23C3217.01 1260.23 3204.82 1263.56 3192.27 1270.21C3179.71 1276.85 3169.55 1285.9 3161.8 1297.35L3159.03 1290.7C3173.06 1270.76 3188.2 1255.43 3204.45 1244.72C3220.7 1234.01 3238.06 1228.66 3256.53 1228.66C3276.84 1228.66 3292.54 1234.94 3303.62 1247.49C3315.07 1259.68 3320.79 1276.11 3320.79 1296.8V1403.71C3320.79 1418.86 3322.82 1429.01 3326.88 1434.18C3331.32 1439.35 3339.81 1441.94 3352.37 1441.94C3353.84 1441.94 3354.58 1443.05 3354.58 1445.26C3354.58 1447.48 3353.84 1448.59 3352.37 1448.59C3345.35 1448.59 3337.23 1448.4 3327.99 1448.03C3319.13 1447.66 3309.34 1447.48 3298.63 1447.48C3288.29 1447.48 3278.5 1447.66 3269.27 1448.03C3260.04 1448.4 3251.91 1448.59 3244.9 1448.59ZM3490.8 1455.23C3467.16 1455.23 3447.22 1450.25 3430.97 1440.28C3414.72 1430.31 3402.35 1417.19 3393.85 1400.94C3385.36 1384.33 3381.11 1366.78 3381.11 1348.32C3381.11 1326.53 3386.46 1306.77 3397.17 1289.04C3408.25 1270.94 3423.03 1256.54 3441.49 1245.83C3460.33 1235.12 3481.56 1229.76 3505.2 1229.76C3526.99 1229.76 3543.79 1234.75 3555.61 1244.72C3567.43 1254.32 3573.34 1267.62 3573.34 1284.61C3573.34 1288.67 3572.97 1292.18 3572.23 1295.13C3571.49 1298.09 3569.83 1299.57 3567.25 1299.57H3521.27C3522.37 1281.84 3519.97 1267.62 3514.06 1256.91C3508.16 1246.2 3498.55 1240.84 3485.26 1240.84C3468.64 1240.84 3455.34 1248.6 3445.37 1264.11C3435.4 1279.25 3430.41 1299.75 3430.41 1325.6C3430.41 1346.65 3433.74 1365.12 3440.38 1381C3447.4 1396.51 3457.19 1408.7 3469.75 1417.56C3482.67 1426.43 3498 1430.86 3515.73 1430.86C3524.96 1430.86 3534.56 1429.57 3544.53 1426.98C3554.5 1424.03 3563.74 1419.78 3572.23 1414.24C3572.97 1413.5 3573.89 1413.87 3575 1415.35C3576.48 1416.83 3576.85 1418.12 3576.11 1419.23C3562.81 1432.15 3549.15 1441.38 3535.12 1446.92C3521.08 1452.46 3506.31 1455.23 3490.8 1455.23ZM3414.35 1300.67L3413.79 1291.26L3536.78 1288.49V1299.57L3414.35 1300.67ZM3694.22 1455.79C3678.71 1455.79 3664.31 1451.54 3651.01 1443.05C3637.71 1434.18 3627 1421.81 3618.88 1405.93C3611.12 1390.05 3607.25 1370.84 3607.25 1348.32C3607.25 1326.53 3611.31 1308.06 3619.43 1292.92C3627.56 1277.41 3637.9 1264.85 3650.46 1255.25C3663.38 1245.65 3677.23 1238.63 3692 1234.2C3706.78 1229.76 3720.81 1227.55 3734.11 1227.55C3747.4 1227.55 3759.77 1229.4 3771.22 1233.09C3782.67 1236.78 3793.01 1241.58 3802.25 1247.49L3791.72 1289.59C3783.6 1273.71 3774.18 1261.71 3763.47 1253.59C3753.13 1245.09 3739.83 1240.84 3723.58 1240.84C3703.27 1240.84 3687.02 1248.05 3674.83 1262.45C3663.01 1276.48 3657.1 1299.38 3657.1 1331.14C3657.1 1352.19 3659.87 1370.29 3665.41 1385.43C3670.95 1400.21 3678.71 1411.65 3688.68 1419.78C3698.65 1427.54 3709.73 1431.41 3721.92 1431.41C3737.06 1431.41 3750.54 1427.17 3762.36 1418.67C3774.18 1410.18 3785.44 1400.02 3796.15 1388.2L3801.14 1392.63C3793.38 1401.5 3784.15 1410.92 3773.44 1420.89C3763.1 1430.49 3751.28 1438.8 3737.98 1445.82C3725.06 1452.46 3710.47 1455.79 3694.22 1455.79ZM3825.51 1053.05V1385.43C3825.51 1398.36 3826.81 1407.59 3829.39 1413.13C3831.98 1418.3 3836.41 1420.89 3842.69 1420.89C3845.64 1420.89 3849.15 1420.33 3853.21 1419.23C3857.64 1418.12 3862.45 1416.46 3867.62 1414.24C3868.72 1413.5 3869.83 1414.24 3870.94 1416.46C3872.05 1418.3 3872.05 1419.6 3870.94 1420.33L3800.03 1454.68C3798.92 1455.05 3797.81 1455.23 3796.71 1455.23C3792.64 1455.23 3788.95 1450.8 3785.63 1441.94C3782.3 1433.08 3780.64 1420.15 3780.64 1403.16V1120.63C3780.64 1108.07 3779.53 1098.84 3777.32 1092.93C3775.1 1087.02 3770.67 1084.07 3764.02 1084.07C3761.07 1084.07 3757.74 1084.81 3754.05 1086.28C3750.36 1087.39 3746.29 1088.87 3741.86 1090.72C3740.38 1091.45 3739.09 1090.72 3737.98 1088.5C3736.88 1086.28 3736.88 1084.99 3737.98 1084.62L3815.54 1047.51C3816.28 1047.14 3817.02 1046.95 3817.76 1046.95C3819.23 1046.95 3820.9 1047.69 3822.74 1049.17C3824.59 1050.64 3825.51 1051.94 3825.51 1053.05ZM3957.77 1298.46L3953.89 1291.81C3967.93 1275.19 3979.75 1262.45 3989.35 1253.59C3999.32 1244.35 4007.63 1238.07 4014.28 1234.75C4020.92 1231.06 4027.2 1229.21 4033.11 1229.21C4040.87 1229.21 4048.62 1231.98 4056.38 1237.52C4064.5 1242.69 4068.57 1249.34 4068.57 1257.46C4068.57 1264.11 4066.54 1269.65 4062.47 1274.08C4058.41 1278.51 4052.69 1280.73 4045.3 1280.73C4038.65 1280.73 4033.48 1278.88 4029.79 1275.19C4026.1 1271.5 4022.59 1267.99 4019.26 1264.67C4015.94 1261.34 4011.32 1259.68 4005.41 1259.68C4002.46 1259.68 3999.32 1260.6 3996 1262.45C3992.67 1263.93 3988.06 1267.44 3982.15 1272.98C3976.24 1278.51 3968.11 1287.01 3957.77 1298.46ZM3894.62 1448.59C3893.51 1448.59 3892.96 1447.48 3892.96 1445.26C3892.96 1443.05 3893.51 1441.94 3894.62 1441.94C3907.17 1441.94 3915.48 1439.35 3919.55 1434.18C3923.61 1429.01 3925.64 1418.86 3925.64 1403.71V1297.9C3925.64 1286.09 3924.35 1277.41 3921.76 1271.87C3919.18 1266.33 3914.56 1263.56 3907.91 1263.56C3904.59 1263.56 3900.53 1264.3 3895.73 1265.77C3890.92 1267.25 3885.75 1269.28 3880.21 1271.87C3878.74 1272.24 3877.44 1271.5 3876.34 1269.65C3875.6 1267.44 3875.78 1266.14 3876.89 1265.77L3949.46 1230.32C3951.31 1229.58 3952.6 1229.21 3953.34 1229.21C3957.03 1229.21 3960.73 1233.46 3964.42 1241.95C3968.48 1250.45 3970.51 1262.82 3970.51 1279.07V1403.71C3970.51 1413.69 3971.99 1421.63 3974.94 1427.54C3977.9 1433.08 3983.07 1436.95 3990.46 1439.17C3997.84 1441.02 4008.18 1441.94 4021.48 1441.94C4022.96 1441.94 4023.69 1443.05 4023.69 1445.26C4023.69 1447.48 4022.96 1448.59 4021.48 1448.59C4011.88 1448.59 4000.8 1448.4 3988.24 1448.03C3976.05 1447.66 3962.76 1447.48 3948.35 1447.48C3938.38 1447.48 3928.6 1447.66 3918.99 1448.03C3909.76 1448.4 3901.63 1448.59 3894.62 1448.59ZM4247.14 1451.91C4245.67 1452.65 4244 1453.02 4242.16 1453.02C4236.25 1453.02 4230.34 1448.77 4224.43 1440.28C4218.52 1431.78 4215.57 1419.41 4215.57 1403.16V1307.32C4215.57 1291.81 4214.27 1279.25 4211.69 1269.65C4209.47 1260.05 4206.15 1253.03 4201.72 1248.6C4197.29 1244.17 4191.56 1241.95 4184.54 1241.95C4177.9 1241.95 4171.99 1243.8 4166.82 1247.49C4162.02 1250.82 4158.14 1255.62 4155.18 1261.9C4152.6 1268.17 4150.94 1276.11 4150.2 1285.72C4149.46 1294.58 4146.69 1301.41 4141.89 1306.21C4137.46 1311.02 4130.81 1313.42 4121.94 1313.42C4113.82 1313.42 4107.73 1311.57 4103.66 1307.88C4099.97 1304.18 4098.12 1299.2 4098.12 1292.92C4098.12 1285.16 4101.82 1277.59 4109.2 1270.21C4116.59 1262.82 4125.82 1256.17 4136.9 1250.26C4147.98 1243.98 4159.61 1239 4171.8 1235.3C4183.99 1231.61 4195.07 1229.76 4205.04 1229.76C4220.55 1229.76 4233.66 1234.75 4244.37 1244.72C4255.08 1254.32 4260.44 1269.65 4260.44 1290.7V1388.76C4260.44 1400.21 4262.29 1408.88 4265.98 1414.79C4269.67 1420.7 4275.03 1423.66 4282.04 1423.66C4287.95 1423.66 4294.6 1422 4301.99 1418.67C4303.83 1417.93 4305.13 1418.67 4305.87 1420.89C4306.6 1422.73 4306.05 1424.03 4304.2 1424.77L4247.14 1451.91ZM4133.58 1452.46C4122.13 1452.46 4113.08 1449.33 4106.43 1443.05C4099.78 1436.77 4096.46 1428.46 4096.46 1418.12C4096.46 1405.93 4101.08 1396.88 4110.31 1390.97C4119.91 1385.06 4134.87 1378.79 4155.18 1372.14L4221.11 1349.98L4222.77 1357.73L4175.68 1374.91C4166.45 1378.6 4159.8 1382.66 4155.74 1387.09C4151.67 1391.16 4149.64 1396.33 4149.64 1402.61C4149.64 1410.36 4151.86 1416.46 4156.29 1420.89C4160.72 1425.32 4166.26 1427.54 4172.91 1427.54C4176.23 1427.54 4180.11 1426.98 4184.54 1425.87C4189.34 1424.77 4194.33 1422.92 4199.5 1420.33L4235.51 1401.5L4236.62 1409.81L4188.42 1435.85C4178.82 1441.02 4169.22 1445.08 4159.61 1448.03C4150.38 1450.99 4141.7 1452.46 4133.58 1452.46ZM4324.66 1448.59C4323.55 1448.59 4323 1447.48 4323 1445.26C4323 1443.05 4323.55 1441.94 4324.66 1441.94C4336.84 1441.94 4345.15 1439.35 4349.59 1434.18C4354.02 1429.01 4356.23 1418.86 4356.23 1403.71V1120.63C4356.23 1107.7 4355.13 1098.47 4352.91 1092.93C4350.69 1087.02 4346.45 1084.07 4340.17 1084.07C4335 1084.07 4327.43 1086.28 4317.46 1090.72C4316.35 1091.09 4315.24 1090.16 4314.13 1087.95C4313.02 1085.73 4312.84 1084.44 4313.58 1084.07L4391.69 1047.51C4392.43 1047.14 4393.17 1046.95 4393.9 1046.95C4395.38 1046.95 4397.04 1047.69 4398.89 1049.17C4400.74 1050.64 4401.66 1051.94 4401.66 1053.05V1403.71C4401.66 1418.86 4403.69 1429.01 4407.75 1434.18C4412.19 1439.35 4420.68 1441.94 4433.24 1441.94C4434.35 1441.94 4434.9 1443.05 4434.9 1445.26C4434.9 1447.48 4434.35 1448.59 4433.24 1448.59C4426.22 1448.59 4417.91 1448.4 4408.31 1448.03C4399.08 1447.66 4389.29 1447.48 4378.95 1447.48C4368.61 1447.48 4358.63 1447.66 4349.03 1448.03C4339.8 1448.4 4331.67 1448.59 4324.66 1448.59Z" fill="#4C4951"/>
<path d="M213.192 817.069C213.192 836.582 215.469 851.542 220.022 861.949C224.575 871.706 234.006 878.536 248.316 882.438C263.276 886.341 285.391 888.292 314.661 888.292C316.612 888.292 317.588 890.243 317.588 894.146C317.588 898.049 316.612 900 314.661 900C293.847 900 271.081 899.675 246.365 899.024C222.299 898.374 195.956 898.049 167.337 898.049C144.571 898.049 122.782 898.374 101.968 899.024C81.1539 899.675 62.6165 900 46.3556 900C44.4043 900 43.4286 898.049 43.4286 894.146C43.4286 890.243 44.4043 888.292 46.3556 888.292C67.82 888.292 83.7557 886.666 94.1626 883.414C104.57 880.162 111.399 873.657 114.651 863.901C118.554 854.144 120.505 839.835 120.505 820.972V369.244C120.505 350.381 118.554 336.397 114.651 327.291C111.399 317.534 104.57 311.03 94.1626 307.778C83.7557 303.875 67.82 301.924 46.3556 301.924C44.4043 301.924 43.4286 299.972 43.4286 296.07C43.4286 292.167 44.4043 290.216 46.3556 290.216C62.6165 290.216 80.8287 290.866 100.992 292.167C121.806 292.818 143.596 293.143 166.361 293.143C181.972 293.143 202.135 292.167 226.852 290.216C252.219 288.265 276.61 287.289 300.026 287.289C339.702 287.289 374.826 292.818 405.396 303.875C436.617 314.282 461.334 331.193 479.546 354.609C497.758 378.025 507.515 408.921 508.816 447.296C509.466 481.119 503.612 510.389 491.254 535.105C478.896 559.822 461.984 580.311 440.52 596.571C419.706 612.182 396.616 624.215 371.249 632.671C345.882 640.476 320.515 644.379 295.147 644.379C287.993 644.379 280.187 644.053 271.732 643.403C263.927 642.752 256.121 641.452 248.316 639.5C246.365 638.85 245.714 636.573 246.365 632.671C247.015 628.118 248.641 626.166 251.243 626.817C256.447 628.118 262.3 629.093 268.805 629.744C275.309 630.394 280.838 630.719 285.391 630.719C306.855 630.719 326.694 624.865 344.906 613.158C363.118 601.45 377.753 583.563 388.81 559.497C400.518 535.43 406.372 505.185 406.372 468.761C406.372 434.288 400.843 405.018 389.786 380.952C378.729 356.886 363.118 338.673 342.955 326.315C323.441 313.306 299.375 306.802 270.756 306.802C255.796 306.802 244.088 308.428 235.633 311.68C227.177 314.282 221.323 320.136 218.071 329.242C214.819 338.348 213.192 352.333 213.192 371.195V817.069ZM748.232 911.708C706.604 911.708 671.481 902.927 642.862 885.365C614.242 867.803 592.453 844.713 577.493 816.094C562.533 786.824 555.053 755.928 555.053 723.407C555.053 685.031 564.484 650.232 583.347 619.011C602.86 587.14 628.877 561.773 661.399 542.91C694.571 524.048 731.971 514.616 773.599 514.616C811.975 514.616 841.57 523.397 862.384 540.959C883.198 557.87 893.605 581.286 893.605 611.206C893.605 618.361 892.954 624.54 891.653 629.744C890.353 634.947 887.426 637.549 882.873 637.549H801.893C803.845 606.328 799.617 581.286 789.21 562.424C778.803 543.561 761.891 534.13 738.476 534.13C709.206 534.13 685.79 547.789 668.229 575.107C650.667 601.775 641.886 637.874 641.886 683.405C641.886 720.48 647.74 753.001 659.448 780.97C671.806 808.288 689.043 829.753 711.157 845.363C733.923 860.974 760.916 868.779 792.137 868.779C808.398 868.779 825.309 866.503 842.871 861.949C860.433 856.746 876.693 849.266 891.653 839.509C892.954 838.209 894.58 838.859 896.532 841.461C899.134 844.062 899.784 846.339 898.483 848.29C875.067 871.056 851.001 887.316 826.285 897.073C801.568 906.83 775.551 911.708 748.232 911.708ZM613.592 639.5L612.616 622.914L829.212 618.036V637.549L613.592 639.5ZM1107.33 911.708C1091.72 911.708 1076.11 909.106 1060.5 903.903C1045.54 898.699 1032.86 889.918 1022.45 877.56C1012.7 865.202 1007.82 847.64 1007.82 824.875V604.377C1007.82 590.067 1006.19 579.01 1002.94 571.204C1000.34 563.399 995.459 558.196 988.304 555.594C981.149 552.342 971.068 550.716 958.059 550.716C955.457 550.716 954.156 548.114 954.156 542.91C954.156 537.707 955.457 535.105 958.059 535.105C988.629 533.804 1013.35 526.65 1032.21 513.641C1051.72 499.982 1065.38 480.794 1073.19 456.077C1073.84 453.475 1076.44 452.175 1080.99 452.175C1085.54 452.175 1087.82 453.475 1087.82 456.077V792.678C1087.82 819.346 1094.33 838.534 1107.33 850.242C1120.99 861.949 1138.56 867.803 1160.02 867.803C1175.63 867.803 1189.94 864.876 1202.95 859.023C1216.61 852.518 1227.99 845.689 1237.1 838.534C1239.05 837.233 1241.32 838.209 1243.93 841.461C1246.53 844.062 1246.53 846.339 1243.93 848.29C1219.86 870.405 1197.09 886.666 1175.63 897.073C1154.82 906.83 1132.05 911.708 1107.33 911.708ZM1213.68 572.18C1187.66 566.326 1162.3 562.424 1137.58 560.472C1113.51 557.87 1087.5 556.57 1059.53 556.57V533.154C1086.19 533.154 1111.89 532.178 1136.6 530.227C1161.97 528.276 1188.96 525.999 1217.58 523.397C1218.88 523.397 1220.18 525.674 1221.49 530.227C1223.44 534.78 1224.41 540.309 1224.41 546.813C1224.41 552.667 1223.11 558.521 1220.51 564.375C1218.56 570.229 1216.28 572.831 1213.68 572.18ZM1480.93 911.708C1439.3 911.708 1404.17 902.927 1375.56 885.365C1346.94 867.803 1325.15 844.713 1310.19 816.094C1295.23 786.824 1287.75 755.928 1287.75 723.407C1287.75 685.031 1297.18 650.232 1316.04 619.011C1335.55 587.14 1361.57 561.773 1394.09 542.91C1427.26 524.048 1464.66 514.616 1506.29 514.616C1544.67 514.616 1574.26 523.397 1595.08 540.959C1615.89 557.87 1626.3 581.286 1626.3 611.206C1626.3 618.361 1625.65 624.54 1624.35 629.744C1623.05 634.947 1620.12 637.549 1615.57 637.549H1534.59C1536.54 606.328 1532.31 581.286 1521.9 562.424C1511.5 543.561 1494.59 534.13 1471.17 534.13C1441.9 534.13 1418.48 547.789 1400.92 575.107C1383.36 601.775 1374.58 637.874 1374.58 683.405C1374.58 720.48 1380.43 753.001 1392.14 780.97C1404.5 808.288 1421.74 829.753 1443.85 845.363C1466.62 860.974 1493.61 868.779 1524.83 868.779C1541.09 868.779 1558 866.503 1575.56 861.949C1593.13 856.746 1609.39 849.266 1624.35 839.509C1625.65 838.209 1627.27 838.859 1629.23 841.461C1631.83 844.062 1632.48 846.339 1631.18 848.29C1607.76 871.056 1583.69 887.316 1558.98 897.073C1534.26 906.83 1508.24 911.708 1480.93 911.708ZM1346.29 639.5L1345.31 622.914L1561.91 618.036V637.549L1346.29 639.5ZM1810.76 635.598L1803.93 623.89C1828.65 594.62 1849.46 572.18 1866.37 556.57C1883.93 540.309 1898.57 529.251 1910.27 523.397C1921.98 516.893 1933.04 513.641 1943.45 513.641C1957.11 513.641 1970.77 518.519 1984.42 528.276C1998.73 537.382 2005.89 549.09 2005.89 563.399C2005.89 575.107 2002.31 584.864 1995.16 592.669C1988 600.474 1977.92 604.377 1964.91 604.377C1953.2 604.377 1944.1 601.125 1937.59 594.62C1931.09 588.116 1924.91 581.937 1919.06 576.083C1913.2 570.229 1905.07 567.302 1894.66 567.302C1889.46 567.302 1883.93 568.928 1878.08 572.18C1872.22 574.782 1864.09 580.961 1853.69 590.718C1843.28 600.474 1828.97 615.434 1810.76 635.598ZM1699.53 900C1697.58 900 1696.61 898.049 1696.61 894.146C1696.61 890.243 1697.58 888.292 1699.53 888.292C1721.65 888.292 1736.28 883.739 1743.44 874.633C1750.59 865.527 1754.17 847.64 1754.17 820.972V634.622C1754.17 613.808 1751.89 598.523 1747.34 588.766C1742.79 579.01 1734.66 574.131 1722.95 574.131C1717.1 574.131 1709.94 575.432 1701.48 578.034C1693.03 580.636 1683.92 584.213 1674.17 588.766C1671.56 589.417 1669.29 588.116 1667.34 584.864C1666.04 580.961 1666.36 578.684 1668.31 578.034L1796.12 515.592C1799.38 514.291 1801.65 513.641 1802.95 513.641C1809.46 513.641 1815.96 521.121 1822.47 536.081C1829.62 551.041 1833.2 572.831 1833.2 601.45V820.972C1833.2 838.534 1835.8 852.518 1841 862.925C1846.21 872.682 1855.31 879.511 1868.32 883.414C1881.33 886.666 1899.54 888.292 1922.96 888.292C1925.56 888.292 1926.86 890.243 1926.86 894.146C1926.86 898.049 1925.56 900 1922.96 900C1906.05 900 1886.53 899.675 1864.42 899.024C1842.95 898.374 1819.54 898.049 1794.17 898.049C1776.61 898.049 1759.37 898.374 1742.46 899.024C1726.2 899.675 1711.89 900 1699.53 900ZM2078.46 789.478C2078.46 766.764 2084.28 746.543 2095.91 728.815C2107.55 710.533 2122.78 693.637 2141.62 678.125C2160.46 662.613 2180.4 647.378 2201.45 632.42C2222.5 616.908 2242.45 600.842 2261.28 584.222C2280.12 567.602 2295.35 549.321 2306.99 529.377C2318.62 509.433 2324.44 486.996 2324.44 462.066C2324.44 437.136 2318.34 418.024 2306.16 404.728C2293.97 390.878 2278.46 383.953 2259.62 383.953C2242.45 383.953 2229.7 389.493 2221.39 400.573C2213.08 411.653 2208.93 428.272 2208.93 450.432C2208.93 480.348 2215.58 510.818 2228.87 541.842C2242.17 572.865 2260.17 603.335 2282.89 633.251C2306.16 663.167 2331.92 691.975 2360.17 719.674C2388.98 746.82 2418.62 771.75 2449.09 794.464C2487.31 822.718 2521.11 844.877 2550.47 860.943C2579.83 876.455 2602.54 886.15 2618.61 890.028C2621.38 890.582 2622.49 892.521 2621.93 895.845C2621.38 898.615 2620.27 900 2618.61 900C2603.1 900 2584.54 900 2562.93 900C2541.88 900 2520.55 900 2498.95 900C2492.3 900 2483.71 897.784 2473.19 893.352C2462.66 888.92 2448.81 881.164 2431.64 870.084C2414.46 858.45 2392.3 841.83 2365.16 820.225C2340.78 800.281 2315.57 778.121 2289.54 753.745C2263.5 728.815 2239.4 703.331 2217.24 677.294C2195.63 650.702 2178.18 624.664 2164.89 599.18C2157.69 584.776 2151.87 570.372 2147.44 555.968C2143 541.565 2140.79 526.053 2140.79 509.433C2140.79 481.733 2146.88 456.803 2159.07 434.643C2171.81 412.484 2189.54 395.033 2212.25 382.291C2234.97 369.549 2261.84 363.178 2292.86 363.178C2312.8 363.178 2330.81 366.225 2346.87 372.319C2362.94 378.413 2375.68 387.554 2385.1 399.742C2394.52 411.376 2399.23 426.887 2399.23 446.277C2399.23 468.991 2393.13 488.935 2380.95 506.109C2369.31 523.283 2354.08 539.072 2335.24 553.476C2316.41 567.879 2296.46 582.006 2275.41 595.856C2254.36 609.706 2234.41 624.11 2215.58 639.068C2196.74 653.472 2181.23 669.538 2169.04 687.266C2157.41 704.993 2151.59 725.491 2151.59 748.759C2151.59 770.365 2157.69 790.863 2169.87 810.253C2182.06 829.089 2199.23 844.6 2221.39 856.788C2243.55 868.976 2269.87 875.07 2300.34 875.07C2324.16 875.07 2345.21 870.915 2363.49 862.605C2382.33 853.741 2397.84 841.83 2410.03 826.873C2422.77 811.361 2432.19 793.079 2438.28 772.027C2444.93 750.421 2448.26 726.876 2448.26 701.392C2448.26 674.247 2443.55 654.026 2434.13 640.73C2425.27 626.88 2408.37 619.955 2383.44 619.955C2382.33 619.955 2381.5 618.293 2380.95 614.969C2380.95 611.645 2381.78 609.983 2383.44 609.983L2572.91 609.152C2575.12 609.152 2576.23 610.814 2576.23 614.138C2576.23 617.462 2575.12 619.124 2572.91 619.124C2555.73 619.124 2542.71 621.063 2533.85 624.941C2524.98 628.819 2518.61 634.913 2514.74 643.223C2510.86 651.533 2506.7 662.89 2502.27 677.294C2497.84 694.467 2491.74 713.58 2483.99 734.632C2476.23 755.13 2466.26 775.628 2454.07 796.126C2441.89 816.624 2426.37 835.736 2407.54 853.464C2389.26 870.638 2366.54 884.488 2339.4 895.014C2312.8 904.986 2281.5 909.972 2245.49 909.972C2206.71 909.972 2174.86 904.155 2149.93 892.521C2125.55 880.887 2107.55 865.929 2095.91 847.647C2084.28 828.812 2078.46 809.422 2078.46 789.478ZM2816.55 817.069C2816.55 836.582 2818.82 851.542 2823.38 861.949C2827.93 871.706 2837.36 878.536 2851.67 882.438C2866.63 886.341 2888.75 888.292 2918.02 888.292C2919.97 888.292 2920.94 890.243 2920.94 894.146C2920.94 898.049 2919.97 900 2918.02 900C2897.2 900 2874.44 899.675 2849.72 899.024C2825.65 898.374 2799.31 898.049 2770.69 898.049C2747.93 898.049 2726.14 898.374 2705.32 899.024C2684.51 899.675 2665.97 900 2649.71 900C2647.76 900 2646.78 898.049 2646.78 894.146C2646.78 890.243 2647.76 888.292 2649.71 888.292C2671.17 888.292 2687.11 886.666 2697.52 883.414C2707.92 880.162 2714.75 873.657 2718.01 863.901C2721.91 854.144 2723.86 839.835 2723.86 820.972V369.244C2723.86 350.381 2721.91 336.397 2718.01 327.291C2714.75 317.534 2707.92 311.03 2697.52 307.778C2687.11 303.875 2671.17 301.924 2649.71 301.924C2647.76 301.924 2646.78 299.972 2646.78 296.07C2646.78 292.167 2647.76 290.216 2649.71 290.216C2665.97 290.216 2684.18 290.866 2704.35 292.167C2725.16 292.818 2746.95 293.143 2769.72 293.143C2785.33 293.143 2805.49 292.167 2830.21 290.216C2855.57 288.265 2879.96 287.289 2903.38 287.289C2943.06 287.289 2978.18 292.818 3008.75 303.875C3039.97 314.282 3064.69 331.193 3082.9 354.609C3101.11 378.025 3110.87 408.921 3112.17 447.296C3112.82 481.119 3106.97 510.389 3094.61 535.105C3082.25 559.822 3065.34 580.311 3043.87 596.571C3023.06 612.182 2999.97 624.215 2974.6 632.671C2949.24 640.476 2923.87 644.379 2898.5 644.379C2891.35 644.379 2883.54 644.053 2875.09 643.403C2867.28 642.752 2859.48 641.452 2851.67 639.5C2849.72 638.85 2849.07 636.573 2849.72 632.671C2850.37 628.118 2852 626.166 2854.6 626.817C2859.8 628.118 2865.65 629.093 2872.16 629.744C2878.66 630.394 2884.19 630.719 2888.75 630.719C2910.21 630.719 2930.05 624.865 2948.26 613.158C2966.47 601.45 2981.11 583.563 2992.16 559.497C3003.87 535.43 3009.73 505.185 3009.73 468.761C3009.73 434.288 3004.2 405.018 2993.14 380.952C2982.08 356.886 2966.47 338.673 2946.31 326.315C2926.8 313.306 2902.73 306.802 2874.11 306.802C2859.15 306.802 2847.44 308.428 2838.99 311.68C2830.53 314.282 2824.68 320.136 2821.43 329.242C2818.17 338.348 2816.55 352.333 2816.55 371.195V817.069ZM3429.78 905.854C3427.17 907.155 3424.25 907.805 3421 907.805C3410.59 907.805 3400.18 900.325 3389.77 885.365C3379.37 870.405 3374.16 848.616 3374.16 819.996V651.208C3374.16 623.89 3371.89 601.775 3367.33 584.864C3363.43 567.952 3357.58 555.594 3349.77 547.789C3341.97 539.983 3331.89 536.081 3319.53 536.081C3307.82 536.081 3297.41 539.333 3288.31 545.837C3279.85 551.691 3273.02 560.147 3267.82 571.204C3263.26 582.262 3260.34 596.246 3259.04 613.158C3257.74 628.768 3252.86 640.801 3244.4 649.257C3236.6 657.712 3224.89 661.94 3209.28 661.94C3194.97 661.94 3184.24 658.688 3177.08 652.184C3170.58 645.679 3167.33 636.899 3167.33 625.841C3167.33 612.182 3173.83 598.848 3186.84 585.839C3199.85 572.831 3216.11 561.123 3235.62 550.716C3255.13 539.658 3275.62 530.877 3297.09 524.373C3318.55 517.869 3338.06 514.616 3355.63 514.616C3382.94 514.616 3406.04 523.397 3424.9 540.959C3443.76 557.87 3453.19 584.864 3453.19 621.938V794.629C3453.19 814.793 3456.44 830.078 3462.95 840.485C3469.45 850.892 3478.88 856.096 3491.24 856.096C3501.65 856.096 3513.36 853.169 3526.37 847.315C3529.62 846.014 3531.89 847.315 3533.2 851.217C3534.5 854.469 3533.52 856.746 3530.27 858.047L3429.78 905.854ZM3229.77 906.83C3209.6 906.83 3193.67 901.301 3181.96 890.243C3170.25 879.186 3164.4 864.551 3164.4 846.339C3164.4 824.875 3172.53 808.939 3188.79 798.532C3205.7 788.125 3232.04 777.068 3267.82 765.36L3383.92 726.333L3386.85 739.993L3303.92 770.238C3287.66 776.742 3275.95 783.897 3268.79 791.702C3261.64 798.857 3258.06 807.963 3258.06 819.021C3258.06 832.68 3261.96 843.412 3269.77 851.217C3277.57 859.023 3287.33 862.925 3299.04 862.925C3304.89 862.925 3311.72 861.949 3319.53 859.998C3327.98 858.047 3336.76 854.795 3345.87 850.242L3409.29 817.069L3411.24 831.704L3326.36 877.56C3309.45 886.666 3292.53 893.821 3275.62 899.024C3259.36 904.228 3244.08 906.83 3229.77 906.83ZM3714.59 910.732C3680.12 910.732 3652.8 899.675 3632.64 877.56C3613.12 855.445 3603.37 825.85 3603.37 788.775V643.403C3603.37 620.638 3600.76 604.051 3595.56 593.644C3591.01 582.587 3583.53 577.058 3573.12 577.058C3565.32 577.058 3556.21 579.66 3545.8 584.864C3543.2 585.514 3540.92 583.888 3538.97 579.985C3537.67 576.083 3538 573.806 3539.95 573.156L3662.88 515.592C3664.83 514.942 3666.46 514.616 3667.76 514.616C3670.36 514.616 3673.29 515.917 3676.54 518.519C3679.79 521.121 3681.42 523.397 3681.42 525.349V746.822C3681.42 783.247 3687.92 810.565 3700.93 828.777C3714.59 846.339 3735.08 855.12 3762.4 855.12C3783.21 855.12 3804.03 849.266 3824.84 837.558C3846.3 825.2 3863.87 809.264 3877.53 789.751L3883.38 801.459C3858.66 835.282 3832.32 861.949 3804.35 881.463C3776.38 900.976 3746.46 910.732 3714.59 910.732ZM3937.04 525.349V789.751C3937.04 811.866 3939.32 827.802 3943.87 837.558C3948.42 846.664 3956.23 851.217 3967.29 851.217C3972.49 851.217 3978.67 850.242 3985.82 848.29C3992.98 845.689 4001.43 842.762 4011.19 839.509C4013.79 838.209 4016.07 839.509 4018.02 843.412C4019.97 846.664 4019.65 848.941 4017.04 850.242L3889.23 911.708C3887.93 912.358 3886.63 912.684 3885.33 912.684C3879.48 912.684 3873.62 904.878 3867.77 889.268C3861.92 873.657 3858.99 851.542 3858.99 822.923V643.403C3858.99 620.638 3856.71 604.051 3852.16 593.644C3847.61 582.587 3839.8 577.058 3828.74 577.058C3820.94 577.058 3811.83 579.66 3801.42 584.864C3798.82 585.514 3796.87 583.888 3795.57 579.985C3794.27 576.083 3794.59 573.806 3796.55 573.156L3919.48 515.592C3920.78 514.942 3922.08 514.616 3923.38 514.616C3926.63 514.616 3929.56 515.917 3932.16 518.519C3935.41 521.121 3937.04 523.397 3937.04 525.349ZM4055.07 900C4053.12 900 4052.14 898.049 4052.14 894.146C4052.14 890.243 4053.12 888.292 4055.07 888.292C4076.54 888.292 4091.17 883.739 4098.98 874.633C4106.78 865.527 4110.68 847.64 4110.68 820.972V322.413C4110.68 299.647 4108.73 283.386 4104.83 273.63C4100.93 263.223 4093.45 258.019 4082.39 258.019C4073.28 258.019 4059.95 261.922 4042.39 269.727C4040.44 270.378 4038.49 268.752 4036.53 264.849C4034.58 260.946 4034.26 258.67 4035.56 258.019L4173.13 193.626C4174.43 192.976 4175.73 192.65 4177.03 192.65C4179.63 192.65 4182.56 193.951 4185.81 196.553C4189.06 199.155 4190.69 201.431 4190.69 203.383V820.972C4190.69 847.64 4194.27 865.527 4201.42 874.633C4209.23 883.739 4224.19 888.292 4246.3 888.292C4248.25 888.292 4249.23 890.243 4249.23 894.146C4249.23 898.049 4248.25 900 4246.3 900C4233.94 900 4219.31 899.675 4202.4 899.024C4186.13 898.374 4168.9 898.049 4150.69 898.049C4132.47 898.049 4114.91 898.374 4098 899.024C4081.74 899.675 4067.43 900 4055.07 900Z" fill="black"/>
<path d="M645.119 220.914C645.119 227.811 646.888 233.824 650.425 238.953C653.962 243.905 658.472 248.415 663.955 252.483C669.614 256.551 675.539 260.53 681.729 264.421C688.45 268.489 694.817 272.822 700.83 277.42C707.02 282.019 712.061 287.325 715.951 293.338C720.019 299.174 722.053 306.337 722.053 314.826C722.053 324.023 719.666 332.159 714.89 339.233C710.115 346.131 703.483 351.613 694.994 355.681C686.681 359.572 676.865 361.517 665.546 361.517C660.771 361.517 655.731 361.075 650.425 360.191C645.296 359.307 640.432 358.069 635.834 356.477C631.412 354.885 627.787 353.205 624.957 351.436C624.249 350.906 623.63 350.287 623.1 349.579C622.746 348.872 622.481 347.811 622.304 346.396L620.712 306.337C620.535 305.453 620.889 305.011 621.773 305.011C622.835 304.834 623.454 305.099 623.63 305.807C625.753 311.112 628.229 316.772 631.059 322.785C634.065 328.621 637.514 334.016 641.405 338.968C645.296 343.92 649.717 347.988 654.669 351.171C659.798 354.178 665.635 355.681 672.179 355.681C676.777 355.681 681.11 354.885 685.178 353.293C689.246 351.702 692.606 348.96 695.259 345.069C697.912 341.002 699.238 335.519 699.238 328.621C699.238 320.309 697.293 313.235 693.402 307.398C689.688 301.385 684.913 296.168 679.076 291.746C673.24 287.325 667.138 283.168 660.771 279.277C654.581 275.21 648.656 271.053 642.997 266.809C637.337 262.564 632.65 257.701 628.936 252.218C625.399 246.558 623.63 239.749 623.63 231.791C623.63 222.063 626.283 214.105 631.589 207.914C636.895 201.724 643.616 197.126 651.751 194.119C660.064 191.113 668.553 189.609 677.219 189.609C683.056 189.609 688.98 190.14 694.994 191.201C701.007 192.262 706.136 193.766 710.38 195.711C711.972 196.242 713.033 196.949 713.564 197.833C714.094 198.718 714.36 199.69 714.36 200.752L714.89 236.566C714.89 237.273 714.448 237.715 713.564 237.892C712.856 238.069 712.326 237.892 711.972 237.362C711.088 234.709 709.761 231.083 707.993 226.485C706.224 221.709 703.748 216.934 700.565 212.159C697.381 207.384 693.402 203.316 688.627 199.956C683.851 196.595 678.015 194.915 671.117 194.915C665.812 194.915 661.213 195.976 657.322 198.099C653.431 200.221 650.425 203.228 648.302 207.119C646.18 210.833 645.119 215.431 645.119 220.914ZM958.118 359.926C957.411 360.279 956.615 360.456 955.73 360.456C952.901 360.456 950.071 358.422 947.241 354.355C944.411 350.287 942.996 344.362 942.996 336.58V290.685C942.996 283.257 942.377 277.244 941.139 272.645C940.078 268.047 938.486 264.687 936.364 262.564C934.242 260.442 931.5 259.381 928.14 259.381C924.957 259.381 922.127 260.265 919.651 262.034C917.352 263.625 915.495 265.925 914.08 268.931C912.842 271.938 912.046 275.74 911.692 280.339C911.338 284.583 910.012 287.855 907.713 290.154C905.59 292.454 902.407 293.603 898.162 293.603C894.271 293.603 891.353 292.719 889.408 290.95C887.639 289.182 886.755 286.794 886.755 283.787C886.755 280.073 888.523 276.448 892.061 272.911C895.598 269.373 900.019 266.19 905.325 263.36C910.631 260.353 916.202 257.966 922.038 256.197C927.875 254.429 933.181 253.544 937.956 253.544C945.384 253.544 951.663 255.932 956.791 260.707C961.92 265.306 964.485 272.645 964.485 282.726V329.683C964.485 335.165 965.369 339.322 967.138 342.151C968.906 344.981 971.471 346.396 974.831 346.396C977.661 346.396 980.844 345.6 984.382 344.008C985.266 343.655 985.885 344.008 986.239 345.069C986.592 345.954 986.327 346.573 985.443 346.927L958.118 359.926ZM903.733 360.191C898.251 360.191 893.918 358.688 890.734 355.681C887.551 352.674 885.959 348.695 885.959 343.743C885.959 337.907 888.17 333.574 892.591 330.744C897.19 327.914 904.352 324.907 914.08 321.724L945.649 311.112L946.445 314.826L923.896 323.05C919.474 324.819 916.291 326.764 914.345 328.887C912.4 330.832 911.427 333.308 911.427 336.315C911.427 340.029 912.488 342.947 914.61 345.069C916.733 347.192 919.386 348.253 922.569 348.253C924.161 348.253 926.018 347.988 928.14 347.457C930.439 346.927 932.827 346.042 935.303 344.804L952.547 335.784L953.077 339.764L929.997 352.232C925.399 354.708 920.8 356.654 916.202 358.069C911.781 359.484 907.624 360.191 903.733 360.191ZM1135.05 358.334C1134.52 358.334 1134.25 357.803 1134.25 356.742C1134.25 355.681 1134.52 355.151 1135.05 355.151C1141.06 355.151 1145.04 353.912 1146.98 351.436C1149.11 348.96 1150.17 344.097 1150.17 336.845V288.563C1150.17 282.549 1149.55 278.216 1148.31 275.563C1147.07 272.734 1144.95 271.319 1141.94 271.319C1140.53 271.319 1138.94 271.584 1137.17 272.115C1135.4 272.645 1133.45 273.441 1131.33 274.502C1130.62 274.679 1130.01 274.237 1129.47 273.176C1129.12 272.115 1129.21 271.496 1129.74 271.319L1167.94 253.544C1168.3 253.367 1168.56 253.279 1168.74 253.279C1169.45 253.279 1170.15 253.721 1170.86 254.605C1171.74 255.313 1172.19 255.932 1172.19 256.463C1172.19 258.408 1172.1 261.945 1171.92 267.074C1171.74 272.203 1171.66 279.277 1171.66 288.297V336.845C1171.66 344.097 1172.63 348.96 1174.57 351.436C1176.7 353.912 1180.76 355.151 1186.78 355.151C1187.31 355.151 1187.57 355.681 1187.57 356.742C1187.57 357.803 1187.31 358.334 1186.78 358.334C1183.24 358.334 1179.26 358.246 1174.84 358.069C1170.42 357.892 1165.73 357.803 1160.78 357.803C1156 357.803 1151.32 357.892 1146.72 358.069C1142.3 358.246 1138.41 358.334 1135.05 358.334ZM1159.45 225.424C1154.85 225.424 1151.23 224.186 1148.58 221.709C1146.1 219.233 1144.86 215.696 1144.86 211.098C1144.86 206.853 1146.1 203.493 1148.58 201.017C1151.23 198.541 1154.85 197.303 1159.45 197.303C1163.87 197.303 1167.23 198.541 1169.53 201.017C1172.01 203.493 1173.25 206.853 1173.25 211.098C1173.25 220.648 1168.65 225.424 1159.45 225.424ZM1414.03 358.334C1413.5 358.334 1413.24 357.803 1413.24 356.742C1413.24 355.681 1413.5 355.151 1414.03 355.151C1420.04 355.151 1424.02 353.912 1425.97 351.436C1427.92 348.96 1428.89 344.097 1428.89 336.845V297.052C1428.89 287.148 1427.03 279.896 1423.32 275.298C1419.78 270.523 1414.12 268.135 1406.34 268.135C1400.68 268.135 1394.84 269.727 1388.83 272.911C1382.99 275.917 1378.13 280.162 1374.24 285.644L1372.91 282.461C1379.81 273.087 1387.06 265.836 1394.67 260.707C1402.45 255.401 1410.76 252.748 1419.6 252.748C1429.51 252.748 1437.11 255.755 1442.42 261.768C1447.72 267.605 1450.38 275.563 1450.38 285.644V336.845C1450.38 344.097 1451.35 348.96 1453.29 351.436C1455.42 353.912 1459.48 355.151 1465.5 355.151C1466.03 355.151 1466.29 355.681 1466.29 356.742C1466.29 357.803 1466.03 358.334 1465.5 358.334C1462.14 358.334 1458.25 358.246 1453.83 358.069C1449.4 357.892 1444.72 357.803 1439.76 357.803C1434.99 357.803 1430.3 357.892 1425.7 358.069C1421.28 358.246 1417.39 358.334 1414.03 358.334ZM1342.67 358.334C1342.14 358.334 1341.87 357.803 1341.87 356.742C1341.87 355.681 1342.14 355.151 1342.67 355.151C1348.68 355.151 1352.66 353.912 1354.61 351.436C1356.55 348.96 1357.52 344.097 1357.52 336.845V286.175C1357.52 280.516 1356.91 276.359 1355.67 273.706C1354.43 271.053 1352.22 269.727 1349.04 269.727C1347.44 269.727 1345.5 270.081 1343.2 270.788C1340.9 271.496 1338.42 272.468 1335.77 273.706C1335.06 273.883 1334.44 273.53 1333.91 272.645C1333.56 271.584 1333.65 270.965 1334.18 270.788L1368.93 253.81C1369.82 253.456 1370.44 253.279 1370.79 253.279C1372.56 253.279 1374.33 255.313 1376.1 259.381C1378.04 263.448 1379.01 269.373 1379.01 277.155V336.845C1379.01 344.097 1379.99 348.96 1381.93 351.436C1384.05 353.912 1388.12 355.151 1394.13 355.151C1394.67 355.151 1394.93 355.681 1394.93 356.742C1394.93 357.803 1394.67 358.334 1394.13 358.334C1390.77 358.334 1386.88 358.246 1382.46 358.069C1378.04 357.892 1373.35 357.803 1368.4 357.803C1363.63 357.803 1358.94 357.892 1354.34 358.069C1349.92 358.246 1346.03 358.334 1342.67 358.334ZM1657.68 361.517C1653.44 361.517 1649.19 360.81 1644.95 359.395C1640.88 357.98 1637.43 355.593 1634.6 352.232C1631.95 348.872 1630.62 344.097 1630.62 337.907V277.951C1630.62 274.06 1630.18 271.053 1629.3 268.931C1628.59 266.809 1627.26 265.394 1625.32 264.687C1623.37 263.802 1620.63 263.36 1617.09 263.36C1616.39 263.36 1616.03 262.653 1616.03 261.238C1616.03 259.823 1616.39 259.115 1617.09 259.115C1625.41 258.762 1632.13 256.816 1637.26 253.279C1642.56 249.565 1646.28 244.348 1648.4 237.627C1648.58 236.919 1649.28 236.566 1650.52 236.566C1651.76 236.566 1652.38 236.919 1652.38 237.627V329.152C1652.38 336.403 1654.15 341.621 1657.68 344.804C1661.4 347.988 1666.17 349.579 1672.01 349.579C1676.25 349.579 1680.15 348.784 1683.68 347.192C1687.4 345.423 1690.49 343.566 1692.97 341.621C1693.5 341.267 1694.12 341.532 1694.82 342.417C1695.53 343.124 1695.53 343.743 1694.82 344.274C1688.28 350.287 1682.09 354.708 1676.25 357.538C1670.6 360.191 1664.4 361.517 1657.68 361.517ZM1686.6 269.196C1679.53 267.605 1672.63 266.544 1665.91 266.013C1659.36 265.306 1652.29 264.952 1644.69 264.952V258.585C1651.94 258.585 1658.92 258.32 1665.64 257.789C1672.54 257.258 1679.88 256.639 1687.66 255.932C1688.02 255.932 1688.37 256.551 1688.72 257.789C1689.25 259.027 1689.52 260.53 1689.52 262.299C1689.52 263.891 1689.17 265.482 1688.46 267.074C1687.93 268.666 1687.31 269.373 1686.6 269.196ZM1865.65 269.727C1865.65 273.795 1866.71 277.332 1868.83 280.339C1870.95 283.345 1873.7 286.087 1877.06 288.563C1880.42 290.862 1884.04 293.073 1887.93 295.195C1892.35 297.671 1896.6 300.235 1900.67 302.888C1904.91 305.541 1908.45 308.813 1911.28 312.704C1914.11 316.418 1915.52 321.282 1915.52 327.295C1915.52 332.955 1914.02 338.437 1911.01 343.743C1908.18 348.872 1903.85 353.117 1898.01 356.477C1892.35 359.66 1885.19 361.252 1876.53 361.252C1872.1 361.252 1867.77 360.722 1863.53 359.66C1859.28 358.599 1854.68 356.654 1849.73 353.824C1849.38 353.47 1849.02 353.028 1848.67 352.498C1848.32 351.967 1848.14 351.348 1848.14 350.641L1847.61 326.234C1847.61 325.703 1848.05 325.438 1848.94 325.438C1850 325.261 1850.62 325.438 1850.79 325.969C1852.74 331.628 1855.39 336.757 1858.75 341.355C1862.29 345.954 1866.18 349.579 1870.42 352.232C1874.85 354.708 1879.36 355.946 1883.95 355.946C1888.38 355.946 1891.82 354.797 1894.3 352.498C1896.95 350.022 1898.19 346.307 1898.01 341.355C1898.01 336.403 1896.86 332.336 1894.57 329.152C1892.27 325.792 1889.35 322.962 1885.81 320.663C1882.45 318.364 1878.91 316.241 1875.2 314.296C1870.95 311.997 1866.8 309.697 1862.73 307.398C1858.84 304.922 1855.57 301.827 1852.92 298.113C1850.26 294.222 1848.94 289.182 1848.94 282.992C1848.94 275.74 1850.7 269.992 1854.24 265.748C1857.96 261.326 1862.73 258.143 1868.57 256.197C1874.4 254.075 1880.42 253.014 1886.61 253.014C1890.32 253.014 1893.77 253.279 1896.95 253.81C1900.31 254.34 1903.94 255.401 1907.83 256.993C1909.42 257.524 1910.22 258.496 1910.22 259.911C1910.22 263.272 1910.13 266.72 1909.95 270.258C1909.78 273.795 1909.69 277.774 1909.69 282.196C1909.69 282.549 1909.16 282.726 1908.1 282.726C1907.03 282.726 1906.5 282.549 1906.5 282.196C1906.5 278.658 1905.09 275.033 1902.26 271.319C1899.43 267.605 1895.8 264.51 1891.38 262.034C1887.14 259.381 1882.63 258.054 1877.85 258.054C1874.67 258.054 1871.84 258.85 1869.36 260.442C1866.89 262.034 1865.65 265.129 1865.65 269.727Z" fill="#4C4951"/>
</svg>
