<svg width="134" height="42" viewBox="0 0 134 42" fill="none" xmlns="http://www.w3.org/2000/svg">
<rect width="134" height="42" fill="white"/>
<path d="M134.002 42H0V38.6885H134.002V42ZM134.002 8.61035C133.981 8.58151 133.959 8.55253 133.938 8.52344C131.352 12.0003 130.729 13.6746 131.045 15.9375C131.244 17.4607 131.877 19.2412 132.631 22.0205C126.802 15.5764 122.52 20.2396 123.078 23.6885C123.318 25.4029 124.734 26.8432 127.729 26.5186C127.708 26.4937 127.69 26.468 127.67 26.4434C127.686 26.4417 127.703 26.4412 127.719 26.4395C127.082 25.6591 126.764 24.978 126.676 24.4082C126.431 22.3808 129.158 21.8255 130.719 23.3262C131.331 23.9148 131.71 24.6618 131.836 25.457C131.87 25.7033 131.881 25.9535 131.865 26.2051C131.675 29.2984 128.018 31.1735 125.185 30.4277C121.961 29.5789 119.46 25.8243 118.95 22.1719C118.902 21.8068 118.874 21.4426 118.867 21.083C118.78 16.5669 121.074 12.2278 126.108 10.8027C126.083 10.7824 126.057 10.7629 126.032 10.7432C126.054 10.7368 126.076 10.7298 126.098 10.7236C122.409 7.74521 118.636 11.9101 117.192 15.2637C115.749 11.9101 111.977 7.74515 108.289 10.7236C108.316 10.7312 108.342 10.7403 108.369 10.748C108.346 10.7661 108.323 10.7841 108.3 10.8027C112.545 12.0043 114.841 15.2779 115.404 18.9824C115.501 19.6462 115.543 20.3236 115.53 21.0049C115.454 24.9862 112.772 29.4879 109.202 30.4277C106.471 31.1467 102.973 29.4296 102.556 26.5332C102.545 26.4511 102.537 26.3681 102.532 26.2842C102.466 25.1903 102.869 24.1158 103.689 23.3262C105.114 21.9551 107.51 22.2999 107.73 23.9141C107.789 24.568 107.501 25.4189 106.669 26.4395C106.691 26.4419 106.713 26.4421 106.735 26.4443C106.716 26.4683 106.699 26.4944 106.68 26.5186C110.353 26.9168 111.654 24.659 111.317 22.4971C110.885 19.3376 106.944 16.3121 101.785 21.9883C102.83 18.1418 103.643 16.2146 103.377 14.2217C103.191 12.6633 102.351 11.081 100.45 8.52344C97.866 12.0001 97.2427 13.6747 97.5586 15.9375C97.7576 17.4607 98.3921 19.2411 99.1455 22.0205C93.3167 15.5762 89.0338 20.2396 89.5918 23.6885C89.8316 25.403 91.2486 26.8433 94.2432 26.5186C94.2229 26.4937 94.2042 26.468 94.1846 26.4434C94.2004 26.4417 94.2165 26.4412 94.2324 26.4395C93.5962 25.6592 93.2781 24.9779 93.1895 24.4082C92.9452 22.3809 95.6727 21.8255 97.2334 23.3262C97.8457 23.9148 98.2246 24.6618 98.3506 25.457C98.3843 25.7033 98.3952 25.9536 98.3799 26.2051C98.1898 29.2984 94.5322 31.1735 91.6992 30.4277C88.4686 29.5773 85.9649 25.8089 85.4619 22.1494C85.4156 21.7918 85.3886 21.4353 85.3818 21.083C85.2949 16.5669 87.5886 12.2277 92.623 10.8027C92.5979 10.7824 92.5721 10.7628 92.5469 10.7432C92.5686 10.7369 92.5904 10.7298 92.6123 10.7236C88.9245 7.74499 85.1513 11.91 83.708 15.2637C82.2647 11.9101 78.4914 7.74539 74.8037 10.7236C74.8306 10.7312 74.857 10.7403 74.8838 10.748C74.8607 10.7661 74.8375 10.7841 74.8145 10.8027C79.0579 12.004 81.3543 15.2757 81.9189 18.9785C82.0158 19.6435 82.0581 20.3223 82.0449 21.0049C81.9685 24.9863 79.2854 29.4881 75.7158 30.4277C72.9845 31.1465 69.4881 29.4294 69.0703 26.5332C69.0601 26.4511 69.0511 26.3681 69.0459 26.2842C68.9793 25.1903 69.3826 24.1158 70.2041 23.3262C71.6285 21.9551 74.025 22.2999 74.2451 23.9141C74.304 24.5681 74.0149 25.4188 73.1826 26.4395C73.205 26.4419 73.2278 26.4421 73.25 26.4443C73.2308 26.4685 73.2132 26.4942 73.1934 26.5186C76.8645 26.9167 78.1656 24.6625 77.832 22.502C77.4026 19.3408 73.4616 16.3094 68.2998 21.9883C69.3443 18.1419 70.1564 16.2145 69.8906 14.2217C69.7048 12.6633 68.865 11.0809 66.9639 8.52344C64.3789 12.0002 63.7555 13.6746 64.0713 15.9375C64.2702 17.4607 64.9038 19.2412 65.6572 22.0205C59.8285 15.5766 55.5464 20.2396 56.1045 23.6885C56.3443 25.403 57.7613 26.8434 60.7559 26.5186C60.7356 26.4937 60.7169 26.468 60.6973 26.4434C60.713 26.4417 60.7292 26.4412 60.7451 26.4395C60.1084 25.6587 59.7905 24.9772 59.7021 24.4072C59.459 22.3807 62.1855 21.8258 63.7451 23.3262C64.358 23.9153 64.7376 24.6629 64.8633 25.459C64.8968 25.7046 64.9078 25.9542 64.8926 26.2051C64.7025 29.2983 61.0448 31.1732 58.2119 30.4277C54.9887 29.5793 52.4886 25.8264 51.9775 22.1748C51.9292 21.8087 51.9005 21.4436 51.8936 21.083C51.8066 16.567 54.1006 12.2278 59.1348 10.8027C59.1095 10.7824 59.0838 10.7629 59.0586 10.7432C59.0804 10.7368 59.1021 10.7298 59.124 10.7236C55.4352 7.74545 51.663 11.9101 50.2197 15.2637C48.7775 11.91 45.0032 7.74499 41.3154 10.7236C41.3422 10.7312 41.3689 10.7403 41.3955 10.748C41.3725 10.766 41.3491 10.7842 41.3262 10.8027C45.5712 12.0043 47.867 15.2779 48.4307 18.9824C48.5271 19.6462 48.5698 20.3236 48.5566 21.0049C48.4791 24.9863 45.798 29.4881 42.2285 30.4277C39.4971 31.1467 35.9998 29.4296 35.582 26.5332C35.5719 26.4511 35.5638 26.3681 35.5586 26.2842C35.492 25.1904 35.8956 24.1158 36.7158 23.3262C38.1402 21.9551 40.5367 22.3 40.7568 23.9141C40.8157 24.568 40.5275 25.4189 39.6953 26.4395C39.7178 26.4419 39.7404 26.4421 39.7627 26.4443C39.7435 26.4685 39.7259 26.4942 39.7061 26.5186C43.3798 26.917 44.68 24.659 44.3438 22.4971C43.9109 19.3377 39.9706 16.3118 34.8115 21.9873C35.8565 18.1414 36.669 16.2144 36.4033 14.2217C36.2176 12.6633 35.3785 11.0808 33.4775 8.52344C30.8931 12.0003 30.2691 13.6746 30.585 15.9375C30.7835 17.4577 31.4165 19.2339 32.168 22.0039C26.6828 15.9547 22.5729 19.7417 22.583 23.082C22.551 25.0445 23.9272 26.8809 27.2695 26.5186C27.2496 26.4941 27.2313 26.4686 27.2119 26.4443C27.231 26.4424 27.2503 26.4415 27.2695 26.4395C26.5335 25.5368 26.2236 24.7667 26.2021 24.1484C26.2119 22.336 28.768 21.8918 30.2598 23.3262C31.0143 24.0516 31.4151 25.0172 31.4238 26.0176C31.4231 26.08 31.4208 26.1425 31.417 26.2051C31.2269 29.2984 27.5693 31.1735 24.7363 30.4277C21.167 29.4879 18.4846 24.9862 18.4082 21.0049C18.406 20.888 18.4063 20.7709 18.4072 20.6543C18.4695 16.2948 20.7746 12.1826 25.6494 10.8027C25.6251 10.7831 25.6005 10.7641 25.5762 10.7451C25.6006 10.738 25.6249 10.7306 25.6494 10.7236C21.9617 7.74523 18.1894 11.9101 16.7461 15.2637C15.3028 11.91 11.5286 7.74514 7.84082 10.7236C7.86502 10.7305 7.88901 10.7381 7.91309 10.7451C7.88898 10.764 7.86492 10.7833 7.84082 10.8027C12.7156 12.1826 15.0197 16.2948 15.082 20.6543C15.083 20.7709 15.0843 20.888 15.082 21.0049C15.0045 24.9862 12.3233 29.4879 8.75391 30.4277C5.92093 31.1735 2.26332 29.2984 2.07324 26.2051C2.06944 26.1425 2.06715 26.08 2.06641 26.0176C2.07509 25.0172 2.4759 24.0516 3.23047 23.3262C4.72152 21.891 7.27824 22.3356 7.28809 24.1484C7.26671 24.7668 6.95667 25.5368 6.2207 26.4395C6.23961 26.4415 6.25856 26.4424 6.27734 26.4443C6.25813 26.4685 6.24054 26.4942 6.2207 26.5186C9.56307 26.8809 10.9402 25.0445 10.9082 23.082C10.9183 19.7416 6.80669 15.9539 1.32129 22.0039C2.246 18.596 2.99045 16.6926 2.96777 14.9189C2.96768 13.1126 2.1851 11.4616 0.000976562 8.52344V28.5352C5.46815 35.9698 12.791 33.4157 16.7441 25.874C20.6972 33.4159 28.0211 35.97 33.4873 28.5352C38.9535 35.9697 46.2764 33.4159 50.2295 25.874C54.1826 33.4157 61.5055 35.9699 66.9727 28.5352C72.4399 35.9698 79.7627 33.4158 83.7158 25.874C87.6689 33.4158 94.9919 35.9699 100.458 28.5352C105.924 35.9699 113.247 33.4158 117.2 25.874C121.153 33.4158 128.476 35.9697 133.943 28.5352C133.962 28.5612 133.983 28.5865 134.002 28.6123V34.0498H0V7.12207H134.002V8.61035ZM16.7432 8.26465C15.8349 9.17519 15.4837 9.74129 14.833 10.999C15.9851 12.2449 16.0195 12.291 16.7432 13.5615C17.467 12.2908 17.502 12.2451 18.6543 10.999C18.0035 9.74114 17.6517 9.17539 16.7432 8.26465ZM50.2285 8.26465C49.32 9.17539 48.9682 9.74114 48.3174 10.999C49.4696 12.245 49.5047 12.2908 50.2285 13.5615C50.9532 12.2911 50.9865 12.2449 52.1387 10.999C51.488 9.74131 51.1368 9.17516 50.2285 8.26465ZM83.7148 8.26465C82.8064 9.17533 82.4555 9.74118 81.8047 10.999C82.9566 12.2447 82.9911 12.2909 83.7148 13.5615C84.4385 12.291 84.473 12.2448 85.625 10.999C84.9743 9.74123 84.6232 9.17526 83.7148 8.26465ZM117.2 8.26465C116.292 9.17525 115.941 9.74124 115.29 10.999C116.442 12.2448 116.477 12.291 117.2 13.5615C117.925 12.2908 117.959 12.2451 119.111 10.999C118.461 9.74117 118.109 9.17534 117.2 8.26465ZM134.002 0V3.40625H0V0H134.002Z" fill="#7B1D2A"/>
</svg>
